G04 #@! TF.GenerationSoftware,KiCad,Pcbnew,7.0.6*
G04 #@! TF.CreationDate,2024-10-13T07:30:47+02:00*
G04 #@! TF.ProjectId,KeybJr,4b657962-4a72-42e6-9b69-6361645f7063,rev?*
G04 #@! TF.SameCoordinates,Original*
G04 #@! TF.FileFunction,Copper,L1,Top*
G04 #@! TF.FilePolarity,Positive*
%FSLAX46Y46*%
G04 Gerber Fmt 4.6, Leading zero omitted, Abs format (unit mm)*
G04 Created by KiCad (PCBNEW 7.0.6) date 2024-10-13 07:30:47*
%MOMM*%
%LPD*%
G01*
G04 APERTURE LIST*
G04 Aperture macros list*
%AMRoundRect*
0 Rectangle with rounded corners*
0 $1 Rounding radius*
0 $2 $3 $4 $5 $6 $7 $8 $9 X,Y pos of 4 corners*
0 Add a 4 corners polygon primitive as box body*
4,1,4,$2,$3,$4,$5,$6,$7,$8,$9,$2,$3,0*
0 Add four circle primitives for the rounded corners*
1,1,$1+$1,$2,$3*
1,1,$1+$1,$4,$5*
1,1,$1+$1,$6,$7*
1,1,$1+$1,$8,$9*
0 Add four rect primitives between the rounded corners*
20,1,$1+$1,$2,$3,$4,$5,0*
20,1,$1+$1,$4,$5,$6,$7,0*
20,1,$1+$1,$6,$7,$8,$9,0*
20,1,$1+$1,$8,$9,$2,$3,0*%
%AMOutline5P*
0 Free polygon, 5 corners , with rotation*
0 The origin of the aperture is its center*
0 number of corners: always 5*
0 $1 to $10 corner X, Y*
0 $11 Rotation angle, in degrees counterclockwise*
0 create outline with 5 corners*
4,1,5,$1,$2,$3,$4,$5,$6,$7,$8,$9,$10,$1,$2,$11*%
%AMOutline6P*
0 Free polygon, 6 corners , with rotation*
0 The origin of the aperture is its center*
0 number of corners: always 6*
0 $1 to $12 corner X, Y*
0 $13 Rotation angle, in degrees counterclockwise*
0 create outline with 6 corners*
4,1,6,$1,$2,$3,$4,$5,$6,$7,$8,$9,$10,$11,$12,$1,$2,$13*%
%AMOutline7P*
0 Free polygon, 7 corners , with rotation*
0 The origin of the aperture is its center*
0 number of corners: always 7*
0 $1 to $14 corner X, Y*
0 $15 Rotation angle, in degrees counterclockwise*
0 create outline with 7 corners*
4,1,7,$1,$2,$3,$4,$5,$6,$7,$8,$9,$10,$11,$12,$13,$14,$1,$2,$15*%
%AMOutline8P*
0 Free polygon, 8 corners , with rotation*
0 The origin of the aperture is its center*
0 number of corners: always 8*
0 $1 to $16 corner X, Y*
0 $17 Rotation angle, in degrees counterclockwise*
0 create outline with 8 corners*
4,1,8,$1,$2,$3,$4,$5,$6,$7,$8,$9,$10,$11,$12,$13,$14,$15,$16,$1,$2,$17*%
G04 Aperture macros list end*
G04 #@! TA.AperFunction,ComponentPad*
%ADD10R,1.600000X1.600000*%
G04 #@! TD*
G04 #@! TA.AperFunction,ComponentPad*
%ADD11O,1.600000X1.600000*%
G04 #@! TD*
G04 #@! TA.AperFunction,ComponentPad*
%ADD12C,1.500000*%
G04 #@! TD*
G04 #@! TA.AperFunction,ComponentPad*
%ADD13R,1.700000X1.700000*%
G04 #@! TD*
G04 #@! TA.AperFunction,ComponentPad*
%ADD14O,1.700000X1.700000*%
G04 #@! TD*
G04 #@! TA.AperFunction,ComponentPad*
%ADD15C,1.600000*%
G04 #@! TD*
G04 #@! TA.AperFunction,ComponentPad*
%ADD16R,3.500000X3.500000*%
G04 #@! TD*
G04 #@! TA.AperFunction,ComponentPad*
%ADD17RoundRect,0.750000X-1.000000X0.750000X-1.000000X-0.750000X1.000000X-0.750000X1.000000X0.750000X0*%
G04 #@! TD*
G04 #@! TA.AperFunction,ComponentPad*
%ADD18RoundRect,0.875000X-0.875000X0.875000X-0.875000X-0.875000X0.875000X-0.875000X0.875000X0.875000X0*%
G04 #@! TD*
G04 #@! TA.AperFunction,ComponentPad*
%ADD19C,2.000000*%
G04 #@! TD*
G04 #@! TA.AperFunction,ComponentPad*
%ADD20R,1.500000X1.050000*%
G04 #@! TD*
G04 #@! TA.AperFunction,ComponentPad*
%ADD21O,1.500000X1.050000*%
G04 #@! TD*
G04 #@! TA.AperFunction,ComponentPad*
%ADD22R,1.800000X1.800000*%
G04 #@! TD*
G04 #@! TA.AperFunction,ComponentPad*
%ADD23C,1.800000*%
G04 #@! TD*
G04 #@! TA.AperFunction,ComponentPad*
%ADD24Outline8P,-0.711200X0.294589X-0.294589X0.711200X0.294589X0.711200X0.711200X0.294589X0.711200X-0.294589X0.294589X-0.711200X-0.294589X-0.711200X-0.711200X-0.294589X0.000000*%
G04 #@! TD*
G04 #@! TA.AperFunction,ComponentPad*
%ADD25C,3.500000*%
G04 #@! TD*
G04 #@! TA.AperFunction,Conductor*
%ADD26C,0.300000*%
G04 #@! TD*
G04 #@! TA.AperFunction,Conductor*
%ADD27C,0.800000*%
G04 #@! TD*
G04 APERTURE END LIST*
D10*
X143400000Y-55300000D03*
D11*
X143400000Y-57840000D03*
X143400000Y-60380000D03*
X143400000Y-62920000D03*
X143400000Y-65460000D03*
X143400000Y-68000000D03*
X143400000Y-70540000D03*
X143400000Y-73080000D03*
X143400000Y-75620000D03*
X143400000Y-78160000D03*
X143400000Y-80700000D03*
X143400000Y-83240000D03*
X143400000Y-85780000D03*
X143400000Y-88320000D03*
X151020000Y-88320000D03*
X151020000Y-85780000D03*
X151020000Y-83240000D03*
X151020000Y-80700000D03*
X151020000Y-78160000D03*
X151020000Y-75620000D03*
X151020000Y-73080000D03*
X151020000Y-70540000D03*
X151020000Y-68000000D03*
X151020000Y-65460000D03*
X151020000Y-62920000D03*
X151020000Y-60380000D03*
X151020000Y-57840000D03*
X151020000Y-55300000D03*
D12*
X137450000Y-78480000D03*
X137450000Y-73600000D03*
D13*
X123300000Y-91500000D03*
D14*
X123300000Y-94040000D03*
X123300000Y-96580000D03*
D10*
X119750000Y-67700000D03*
D15*
X117250000Y-67700000D03*
D16*
X107900000Y-57900000D03*
D17*
X107900000Y-51900000D03*
D18*
X103200000Y-54900000D03*
D19*
X127250000Y-73650000D03*
X132250000Y-73650000D03*
D20*
X138610000Y-96320000D03*
D21*
X138610000Y-95050000D03*
X138610000Y-93780000D03*
D13*
X127950000Y-91500000D03*
D14*
X127950000Y-94040000D03*
X127950000Y-96580000D03*
D15*
X139280000Y-85000000D03*
D11*
X129120000Y-85000000D03*
D22*
X146950000Y-96350000D03*
D23*
X146950000Y-93810000D03*
D19*
X127250000Y-78500000D03*
X132250000Y-78500000D03*
D14*
X109240000Y-66300000D03*
X109240000Y-68840000D03*
X106700000Y-63760000D03*
X106700000Y-66300000D03*
X106700000Y-68840000D03*
D15*
X103370000Y-96700000D03*
D11*
X113530000Y-96700000D03*
D24*
X124750000Y-52550000D03*
X127350000Y-52550000D03*
X122650000Y-52550000D03*
X129450000Y-52550000D03*
X122650000Y-55000000D03*
X129450000Y-55050000D03*
D25*
X132850000Y-49550000D03*
X126050000Y-48750000D03*
X119300000Y-49550000D03*
D15*
X139650000Y-45470000D03*
D11*
X139650000Y-55630000D03*
D19*
X123750000Y-61050000D03*
X128750000Y-61050000D03*
D22*
X147000000Y-49340000D03*
D23*
X147000000Y-46800000D03*
D19*
X104950000Y-86700000D03*
X111450000Y-86700000D03*
X104950000Y-91200000D03*
X111450000Y-91200000D03*
X138800000Y-61050000D03*
X133800000Y-61050000D03*
D26*
X108000000Y-67680000D02*
X108040000Y-67640000D01*
X108000000Y-91310000D02*
X108000000Y-67680000D01*
X110730000Y-94040000D02*
X108000000Y-91310000D01*
X123300000Y-94040000D02*
X110730000Y-94040000D01*
X108040000Y-67640000D02*
X106700000Y-66300000D01*
D27*
X151020000Y-75620000D02*
X148480000Y-75620000D01*
X148480000Y-75620000D02*
X143400000Y-70540000D01*
D26*
X124750000Y-52550000D02*
X130100000Y-57900000D01*
X133400000Y-57900000D02*
X140960000Y-65460000D01*
X130100000Y-57900000D02*
X133400000Y-57900000D01*
X140960000Y-65460000D02*
X143400000Y-65460000D01*
X122650000Y-55000000D02*
X121588800Y-53938800D01*
X121588800Y-48711200D02*
X124780000Y-45520000D01*
X141160000Y-60680000D02*
X143400000Y-62920000D01*
X141160000Y-51950000D02*
X141160000Y-60680000D01*
X124780000Y-45520000D02*
X134730000Y-45520000D01*
X121588800Y-53938800D02*
X121588800Y-48711200D01*
X134730000Y-45520000D02*
X141160000Y-51950000D01*
X109240000Y-66300000D02*
X110440000Y-67500000D01*
X143400000Y-83240000D02*
X110980000Y-83240000D01*
X110440000Y-67500000D02*
X110440000Y-82700000D01*
X110980000Y-83240000D02*
X110440000Y-82700000D01*
G04 #@! TA.AperFunction,Conductor*
G36*
X152643039Y-43519685D02*
G01*
X152688794Y-43572489D01*
X152700000Y-43624000D01*
X152700000Y-99776000D01*
X152680315Y-99843039D01*
X152627511Y-99888794D01*
X152576000Y-99900000D01*
X100624000Y-99900000D01*
X100556961Y-99880315D01*
X100511206Y-99827511D01*
X100500000Y-99776000D01*
X100500000Y-96700001D01*
X102056502Y-96700001D01*
X102076456Y-96928081D01*
X102076457Y-96928089D01*
X102135714Y-97149238D01*
X102135718Y-97149249D01*
X102230962Y-97353500D01*
X102232477Y-97356749D01*
X102363802Y-97544300D01*
X102525700Y-97706198D01*
X102713251Y-97837523D01*
X102838091Y-97895736D01*
X102920750Y-97934281D01*
X102920752Y-97934281D01*
X102920757Y-97934284D01*
X103141913Y-97993543D01*
X103304832Y-98007796D01*
X103369998Y-98013498D01*
X103370000Y-98013498D01*
X103370002Y-98013498D01*
X103427021Y-98008509D01*
X103598087Y-97993543D01*
X103819243Y-97934284D01*
X104026749Y-97837523D01*
X104214300Y-97706198D01*
X104376198Y-97544300D01*
X104507523Y-97356749D01*
X104604284Y-97149243D01*
X104663543Y-96928087D01*
X104683498Y-96700001D01*
X112216502Y-96700001D01*
X112236456Y-96928081D01*
X112236457Y-96928089D01*
X112295714Y-97149238D01*
X112295718Y-97149249D01*
X112390962Y-97353500D01*
X112392477Y-97356749D01*
X112523802Y-97544300D01*
X112685700Y-97706198D01*
X112873251Y-97837523D01*
X112998091Y-97895736D01*
X113080750Y-97934281D01*
X113080752Y-97934281D01*
X113080757Y-97934284D01*
X113301913Y-97993543D01*
X113464832Y-98007796D01*
X113529998Y-98013498D01*
X113530000Y-98013498D01*
X113530002Y-98013498D01*
X113587021Y-98008509D01*
X113758087Y-97993543D01*
X113979243Y-97934284D01*
X114186749Y-97837523D01*
X114374300Y-97706198D01*
X114536198Y-97544300D01*
X114667523Y-97356749D01*
X114764284Y-97149243D01*
X114823543Y-96928087D01*
X114843498Y-96700000D01*
X114823543Y-96471913D01*
X114764284Y-96250757D01*
X114667523Y-96043251D01*
X114536198Y-95855700D01*
X114374300Y-95693802D01*
X114186749Y-95562477D01*
X114157410Y-95548796D01*
X113979249Y-95465718D01*
X113979238Y-95465714D01*
X113758089Y-95406457D01*
X113758081Y-95406456D01*
X113530002Y-95386502D01*
X113529998Y-95386502D01*
X113301918Y-95406456D01*
X113301910Y-95406457D01*
X113080761Y-95465714D01*
X113080750Y-95465718D01*
X112873254Y-95562475D01*
X112873252Y-95562476D01*
X112873249Y-95562477D01*
X112873251Y-95562477D01*
X112685700Y-95693802D01*
X112685698Y-95693803D01*
X112685695Y-95693806D01*
X112523806Y-95855695D01*
X112392476Y-96043252D01*
X112392475Y-96043254D01*
X112295718Y-96250750D01*
X112295714Y-96250761D01*
X112236457Y-96471910D01*
X112236456Y-96471918D01*
X112216502Y-96699998D01*
X112216502Y-96700001D01*
X104683498Y-96700001D01*
X104683498Y-96700000D01*
X104663543Y-96471913D01*
X104604284Y-96250757D01*
X104507523Y-96043251D01*
X104376198Y-95855700D01*
X104214300Y-95693802D01*
X104026749Y-95562477D01*
X103997410Y-95548796D01*
X103819249Y-95465718D01*
X103819238Y-95465714D01*
X103598089Y-95406457D01*
X103598081Y-95406456D01*
X103370002Y-95386502D01*
X103369998Y-95386502D01*
X103141918Y-95406456D01*
X103141910Y-95406457D01*
X102920761Y-95465714D01*
X102920750Y-95465718D01*
X102713254Y-95562475D01*
X102713252Y-95562476D01*
X102713249Y-95562477D01*
X102713251Y-95562477D01*
X102525700Y-95693802D01*
X102525698Y-95693803D01*
X102525695Y-95693806D01*
X102363806Y-95855695D01*
X102232476Y-96043252D01*
X102232475Y-96043254D01*
X102135718Y-96250750D01*
X102135714Y-96250761D01*
X102076457Y-96471910D01*
X102076456Y-96471918D01*
X102056502Y-96699998D01*
X102056502Y-96700001D01*
X100500000Y-96700001D01*
X100500000Y-86699999D01*
X103436835Y-86699999D01*
X103455465Y-86936714D01*
X103510895Y-87167595D01*
X103510895Y-87167597D01*
X103601757Y-87386959D01*
X103601759Y-87386962D01*
X103725820Y-87589410D01*
X103725821Y-87589413D01*
X103725824Y-87589416D01*
X103880031Y-87769969D01*
X103998043Y-87870761D01*
X104060586Y-87924178D01*
X104060589Y-87924179D01*
X104263037Y-88048240D01*
X104263040Y-88048242D01*
X104482403Y-88139104D01*
X104482404Y-88139104D01*
X104482406Y-88139105D01*
X104713289Y-88194535D01*
X104950000Y-88213165D01*
X105186711Y-88194535D01*
X105417594Y-88139105D01*
X105417596Y-88139104D01*
X105417597Y-88139104D01*
X105636959Y-88048242D01*
X105636960Y-88048241D01*
X105636963Y-88048240D01*
X105839416Y-87924176D01*
X106019969Y-87769969D01*
X106174176Y-87589416D01*
X106298240Y-87386963D01*
X106328543Y-87313806D01*
X106389104Y-87167597D01*
X106389104Y-87167596D01*
X106389105Y-87167594D01*
X106444535Y-86936711D01*
X106463165Y-86700000D01*
X106444535Y-86463289D01*
X106389105Y-86232406D01*
X106389104Y-86232403D01*
X106389104Y-86232402D01*
X106298242Y-86013040D01*
X106298240Y-86013037D01*
X106174179Y-85810589D01*
X106174178Y-85810586D01*
X106042788Y-85656749D01*
X106019969Y-85630031D01*
X105900596Y-85528076D01*
X105839413Y-85475821D01*
X105839410Y-85475820D01*
X105636962Y-85351759D01*
X105636959Y-85351757D01*
X105417596Y-85260895D01*
X105186714Y-85205465D01*
X105009177Y-85191492D01*
X104950000Y-85186835D01*
X104949999Y-85186835D01*
X104713285Y-85205465D01*
X104482404Y-85260895D01*
X104482402Y-85260895D01*
X104263040Y-85351757D01*
X104263037Y-85351759D01*
X104060589Y-85475820D01*
X104060586Y-85475821D01*
X103880031Y-85630031D01*
X103725821Y-85810586D01*
X103725820Y-85810589D01*
X103601759Y-86013037D01*
X103601757Y-86013040D01*
X103510895Y-86232402D01*
X103510895Y-86232404D01*
X103455465Y-86463285D01*
X103436835Y-86699999D01*
X100500000Y-86699999D01*
X100500000Y-66300005D01*
X105336844Y-66300005D01*
X105355434Y-66524359D01*
X105355436Y-66524371D01*
X105410703Y-66742614D01*
X105501140Y-66948792D01*
X105624276Y-67137265D01*
X105624284Y-67137276D01*
X105776756Y-67302902D01*
X105776761Y-67302907D01*
X105835981Y-67349000D01*
X105954424Y-67441189D01*
X105954425Y-67441189D01*
X105954427Y-67441191D01*
X106043985Y-67489657D01*
X106152426Y-67548342D01*
X106365365Y-67621444D01*
X106587431Y-67658500D01*
X106812568Y-67658500D01*
X106812569Y-67658500D01*
X107019285Y-67624005D01*
X107088647Y-67632387D01*
X107127373Y-67658633D01*
X107305181Y-67836441D01*
X107338666Y-67897764D01*
X107341500Y-67924122D01*
X107341500Y-91223609D01*
X107339718Y-91239746D01*
X107339946Y-91239768D01*
X107339211Y-91247534D01*
X107341500Y-91320342D01*
X107341500Y-91351434D01*
X107342433Y-91358829D01*
X107342891Y-91364647D01*
X107344437Y-91413829D01*
X107344438Y-91413832D01*
X107350464Y-91434577D01*
X107354407Y-91453618D01*
X107357116Y-91475053D01*
X107357117Y-91475057D01*
X107357118Y-91475064D01*
X107373284Y-91515897D01*
X107375234Y-91520822D01*
X107377125Y-91526348D01*
X107390854Y-91573598D01*
X107401850Y-91592191D01*
X107410410Y-91609665D01*
X107418363Y-91629754D01*
X107447289Y-91669565D01*
X107450490Y-91674437D01*
X107475547Y-91716807D01*
X107475551Y-91716811D01*
X107490821Y-91732081D01*
X107503458Y-91746876D01*
X107516159Y-91764357D01*
X107554072Y-91795721D01*
X107558383Y-91799643D01*
X108896071Y-93137331D01*
X110203280Y-94444540D01*
X110213430Y-94457208D01*
X110213606Y-94457064D01*
X110218580Y-94463076D01*
X110271685Y-94512946D01*
X110293661Y-94534922D01*
X110299551Y-94539491D01*
X110303994Y-94543286D01*
X110339864Y-94576970D01*
X110339866Y-94576971D01*
X110339867Y-94576972D01*
X110358803Y-94587382D01*
X110375049Y-94598053D01*
X110392132Y-94611304D01*
X110392137Y-94611306D01*
X110437296Y-94630848D01*
X110442544Y-94633420D01*
X110474234Y-94650840D01*
X110485663Y-94657124D01*
X110501823Y-94661272D01*
X110506583Y-94662495D01*
X110524986Y-94668795D01*
X110544824Y-94677380D01*
X110581960Y-94683261D01*
X110593431Y-94685078D01*
X110599146Y-94686261D01*
X110646812Y-94698500D01*
X110668419Y-94698500D01*
X110687816Y-94700026D01*
X110709152Y-94703406D01*
X110758144Y-94698774D01*
X110763981Y-94698500D01*
X122040377Y-94698500D01*
X122107416Y-94718185D01*
X122144185Y-94754678D01*
X122224276Y-94877265D01*
X122224284Y-94877276D01*
X122336443Y-94999111D01*
X122376760Y-95042906D01*
X122554424Y-95181189D01*
X122554425Y-95181189D01*
X122554427Y-95181191D01*
X122596196Y-95203795D01*
X122752426Y-95288342D01*
X122965365Y-95361444D01*
X123187431Y-95398500D01*
X123412569Y-95398500D01*
X123634635Y-95361444D01*
X123847574Y-95288342D01*
X124045576Y-95181189D01*
X124223240Y-95042906D01*
X124375722Y-94877268D01*
X124498860Y-94688791D01*
X124589296Y-94482616D01*
X124644564Y-94264368D01*
X124651015Y-94186518D01*
X124663156Y-94040005D01*
X126586844Y-94040005D01*
X126605434Y-94264359D01*
X126605436Y-94264371D01*
X126660703Y-94482614D01*
X126751140Y-94688792D01*
X126874276Y-94877265D01*
X126874284Y-94877276D01*
X126986443Y-94999111D01*
X127026760Y-95042906D01*
X127204424Y-95181189D01*
X127204425Y-95181189D01*
X127204427Y-95181191D01*
X127246196Y-95203795D01*
X127402426Y-95288342D01*
X127615365Y-95361444D01*
X127837431Y-95398500D01*
X128062569Y-95398500D01*
X128284635Y-95361444D01*
X128497574Y-95288342D01*
X128695576Y-95181189D01*
X128864127Y-95049999D01*
X137346499Y-95049999D01*
X137366453Y-95252599D01*
X137424475Y-95443873D01*
X137425098Y-95513740D01*
X137411976Y-95540261D01*
X137413359Y-95541017D01*
X137409110Y-95548796D01*
X137358010Y-95685798D01*
X137351500Y-95746345D01*
X137351500Y-96893654D01*
X137358011Y-96954202D01*
X137358011Y-96954204D01*
X137409110Y-97091203D01*
X137409111Y-97091204D01*
X137496739Y-97208261D01*
X137613796Y-97295889D01*
X137750799Y-97346989D01*
X137778050Y-97349918D01*
X137811345Y-97353499D01*
X137811362Y-97353500D01*
X139408638Y-97353500D01*
X139408654Y-97353499D01*
X139435692Y-97350591D01*
X139469201Y-97346989D01*
X139606204Y-97295889D01*
X139723261Y-97208261D01*
X139810889Y-97091204D01*
X139861989Y-96954201D01*
X139865591Y-96920692D01*
X139868499Y-96893654D01*
X139868500Y-96893637D01*
X139868500Y-95746362D01*
X139868499Y-95746345D01*
X139865157Y-95715270D01*
X139861989Y-95685799D01*
X139815991Y-95562476D01*
X139810888Y-95548793D01*
X139806637Y-95541008D01*
X139809435Y-95539479D01*
X139790501Y-95488709D01*
X139795523Y-95443879D01*
X139853546Y-95252601D01*
X139873501Y-95050000D01*
X139853546Y-94847399D01*
X139794450Y-94652583D01*
X139784207Y-94633420D01*
X139698485Y-94473045D01*
X139698483Y-94473043D01*
X139698482Y-94473040D01*
X139659204Y-94425180D01*
X139569331Y-94315668D01*
X139411961Y-94186519D01*
X139411954Y-94186514D01*
X139232424Y-94090553D01*
X139232421Y-94090552D01*
X139232420Y-94090551D01*
X139232417Y-94090550D01*
X139037601Y-94031454D01*
X139037599Y-94031453D01*
X139037601Y-94031453D01*
X138920402Y-94019910D01*
X138885775Y-94016500D01*
X138334225Y-94016500D01*
X138296748Y-94020191D01*
X138182400Y-94031453D01*
X138067374Y-94066345D01*
X137987583Y-94090550D01*
X137987580Y-94090551D01*
X137987578Y-94090552D01*
X137987575Y-94090553D01*
X137808045Y-94186514D01*
X137808038Y-94186519D01*
X137650668Y-94315668D01*
X137521519Y-94473038D01*
X137521514Y-94473045D01*
X137425553Y-94652575D01*
X137425552Y-94652578D01*
X137425551Y-94652580D01*
X137425550Y-94652583D01*
X137411538Y-94698775D01*
X137366453Y-94847400D01*
X137346499Y-95049999D01*
X128864127Y-95049999D01*
X128873240Y-95042906D01*
X129025722Y-94877268D01*
X129148860Y-94688791D01*
X129239296Y-94482616D01*
X129294564Y-94264368D01*
X129301015Y-94186518D01*
X129313156Y-94040005D01*
X129313156Y-94039994D01*
X129294565Y-93815640D01*
X129294563Y-93815628D01*
X129293139Y-93810005D01*
X145536673Y-93810005D01*
X145555948Y-94042622D01*
X145613251Y-94268907D01*
X145707015Y-94482668D01*
X145834686Y-94678084D01*
X145921856Y-94772775D01*
X145952779Y-94835429D01*
X145944919Y-94904855D01*
X145900772Y-94959011D01*
X145873963Y-94972939D01*
X145803794Y-94999111D01*
X145686739Y-95086739D01*
X145599111Y-95203795D01*
X145548011Y-95340795D01*
X145548011Y-95340797D01*
X145541500Y-95401345D01*
X145541500Y-97298654D01*
X145548011Y-97359202D01*
X145548011Y-97359204D01*
X145599110Y-97496204D01*
X145599111Y-97496204D01*
X145686739Y-97613261D01*
X145803796Y-97700889D01*
X145940799Y-97751989D01*
X145968050Y-97754918D01*
X146001345Y-97758499D01*
X146001362Y-97758500D01*
X147898638Y-97758500D01*
X147898654Y-97758499D01*
X147925692Y-97755591D01*
X147959201Y-97751989D01*
X148096204Y-97700889D01*
X148213261Y-97613261D01*
X148300889Y-97496204D01*
X148351989Y-97359201D01*
X148355591Y-97325692D01*
X148358499Y-97298654D01*
X148358500Y-97298637D01*
X148358500Y-95401362D01*
X148358499Y-95401345D01*
X148355157Y-95370270D01*
X148351989Y-95340799D01*
X148300889Y-95203796D01*
X148213261Y-95086739D01*
X148096204Y-94999111D01*
X148026037Y-94972939D01*
X147970104Y-94931067D01*
X147945688Y-94865602D01*
X147960541Y-94797329D01*
X147978138Y-94772780D01*
X148065314Y-94678083D01*
X148192984Y-94482669D01*
X148286749Y-94268907D01*
X148344051Y-94042626D01*
X148362860Y-93815640D01*
X148363327Y-93810005D01*
X148363327Y-93809994D01*
X148344051Y-93577377D01*
X148344051Y-93577374D01*
X148286749Y-93351093D01*
X148192984Y-93137331D01*
X148192983Y-93137331D01*
X148065313Y-92941915D01*
X147907223Y-92770185D01*
X147907222Y-92770184D01*
X147907220Y-92770182D01*
X147723017Y-92626810D01*
X147723015Y-92626809D01*
X147723014Y-92626808D01*
X147723011Y-92626806D01*
X147517733Y-92515716D01*
X147517730Y-92515715D01*
X147517727Y-92515713D01*
X147517721Y-92515711D01*
X147517719Y-92515710D01*
X147296954Y-92439920D01*
X147124271Y-92411104D01*
X147066712Y-92401500D01*
X146833288Y-92401500D01*
X146787240Y-92409184D01*
X146603045Y-92439920D01*
X146382280Y-92515710D01*
X146382266Y-92515716D01*
X146176988Y-92626806D01*
X146176985Y-92626808D01*
X145992781Y-92770181D01*
X145992776Y-92770185D01*
X145834686Y-92941915D01*
X145707015Y-93137331D01*
X145613251Y-93351092D01*
X145555948Y-93577377D01*
X145536673Y-93809994D01*
X145536673Y-93810005D01*
X129293139Y-93810005D01*
X129239296Y-93597385D01*
X129230518Y-93577374D01*
X129148860Y-93391209D01*
X129118788Y-93345181D01*
X129025723Y-93202734D01*
X129025715Y-93202723D01*
X128880510Y-93044991D01*
X128849587Y-92982337D01*
X128857447Y-92912911D01*
X128901594Y-92858755D01*
X128928405Y-92844827D01*
X129008584Y-92814920D01*
X129046204Y-92800889D01*
X129163261Y-92713261D01*
X129250889Y-92596204D01*
X129301989Y-92459201D01*
X129305591Y-92425692D01*
X129308499Y-92398654D01*
X129308499Y-92398647D01*
X129308500Y-92398638D01*
X129308500Y-90601362D01*
X129308499Y-90601352D01*
X129308499Y-90601345D01*
X129305157Y-90570270D01*
X129301989Y-90540799D01*
X129250889Y-90403796D01*
X129163261Y-90286739D01*
X129046204Y-90199111D01*
X129046203Y-90199110D01*
X128909203Y-90148011D01*
X128848654Y-90141500D01*
X128848638Y-90141500D01*
X127051362Y-90141500D01*
X127051345Y-90141500D01*
X126990797Y-90148011D01*
X126990795Y-90148011D01*
X126853795Y-90199111D01*
X126736739Y-90286739D01*
X126649111Y-90403795D01*
X126598011Y-90540795D01*
X126598011Y-90540797D01*
X126591500Y-90601345D01*
X126591500Y-92398654D01*
X126598011Y-92459202D01*
X126598011Y-92459204D01*
X126619090Y-92515716D01*
X126649111Y-92596204D01*
X126736739Y-92713261D01*
X126853796Y-92800889D01*
X126905737Y-92820262D01*
X126971595Y-92844827D01*
X127027528Y-92886699D01*
X127051944Y-92952163D01*
X127037092Y-93020436D01*
X127019490Y-93044991D01*
X126874279Y-93202730D01*
X126874276Y-93202734D01*
X126751140Y-93391207D01*
X126660703Y-93597385D01*
X126605436Y-93815628D01*
X126605434Y-93815640D01*
X126586844Y-94039994D01*
X126586844Y-94040005D01*
X124663156Y-94040005D01*
X124663156Y-94039994D01*
X124644565Y-93815640D01*
X124644563Y-93815628D01*
X124589296Y-93597385D01*
X124580518Y-93577374D01*
X124498860Y-93391209D01*
X124468788Y-93345181D01*
X124375723Y-93202734D01*
X124375715Y-93202723D01*
X124230510Y-93044991D01*
X124199587Y-92982337D01*
X124207447Y-92912911D01*
X124251594Y-92858755D01*
X124278405Y-92844827D01*
X124358584Y-92814920D01*
X124396204Y-92800889D01*
X124513261Y-92713261D01*
X124600889Y-92596204D01*
X124651989Y-92459201D01*
X124655591Y-92425692D01*
X124658499Y-92398654D01*
X124658499Y-92398647D01*
X124658500Y-92398638D01*
X124658500Y-90601362D01*
X124658499Y-90601352D01*
X124658499Y-90601345D01*
X124655157Y-90570270D01*
X124651989Y-90540799D01*
X124600889Y-90403796D01*
X124513261Y-90286739D01*
X124396204Y-90199111D01*
X124396203Y-90199110D01*
X124259203Y-90148011D01*
X124198654Y-90141500D01*
X124198638Y-90141500D01*
X122401362Y-90141500D01*
X122401345Y-90141500D01*
X122340797Y-90148011D01*
X122340795Y-90148011D01*
X122203795Y-90199111D01*
X122086739Y-90286739D01*
X121999111Y-90403795D01*
X121948011Y-90540795D01*
X121948011Y-90540797D01*
X121941500Y-90601345D01*
X121941500Y-92398654D01*
X121948011Y-92459202D01*
X121948011Y-92459204D01*
X121969090Y-92515716D01*
X121999111Y-92596204D01*
X122086739Y-92713261D01*
X122203796Y-92800889D01*
X122255737Y-92820262D01*
X122321595Y-92844827D01*
X122377528Y-92886699D01*
X122401944Y-92952163D01*
X122387092Y-93020436D01*
X122369490Y-93044991D01*
X122224279Y-93202730D01*
X122224276Y-93202734D01*
X122144185Y-93325322D01*
X122091039Y-93370679D01*
X122040377Y-93381500D01*
X111054122Y-93381500D01*
X110987083Y-93361815D01*
X110966441Y-93345181D01*
X108694819Y-91073559D01*
X108661334Y-91012236D01*
X108658500Y-90985878D01*
X108658500Y-86699999D01*
X109936835Y-86699999D01*
X109955465Y-86936714D01*
X110010895Y-87167595D01*
X110010895Y-87167597D01*
X110101757Y-87386959D01*
X110101759Y-87386962D01*
X110225820Y-87589410D01*
X110225821Y-87589413D01*
X110225824Y-87589416D01*
X110380031Y-87769969D01*
X110498043Y-87870761D01*
X110560586Y-87924178D01*
X110560589Y-87924179D01*
X110763037Y-88048240D01*
X110763040Y-88048242D01*
X110982403Y-88139104D01*
X110982404Y-88139104D01*
X110982406Y-88139105D01*
X111213289Y-88194535D01*
X111450000Y-88213165D01*
X111686711Y-88194535D01*
X111917594Y-88139105D01*
X111917596Y-88139104D01*
X111917597Y-88139104D01*
X112136959Y-88048242D01*
X112136960Y-88048241D01*
X112136963Y-88048240D01*
X112339416Y-87924176D01*
X112519969Y-87769969D01*
X112674176Y-87589416D01*
X112798240Y-87386963D01*
X112828543Y-87313806D01*
X112889104Y-87167597D01*
X112889104Y-87167596D01*
X112889105Y-87167594D01*
X112944535Y-86936711D01*
X112963165Y-86700000D01*
X112944535Y-86463289D01*
X112889105Y-86232406D01*
X112889104Y-86232403D01*
X112889104Y-86232402D01*
X112798242Y-86013040D01*
X112798240Y-86013037D01*
X112674179Y-85810589D01*
X112674178Y-85810586D01*
X112542788Y-85656749D01*
X112519969Y-85630031D01*
X112400596Y-85528076D01*
X112339413Y-85475821D01*
X112339410Y-85475820D01*
X112136962Y-85351759D01*
X112136959Y-85351757D01*
X111917596Y-85260895D01*
X111686714Y-85205465D01*
X111509177Y-85191492D01*
X111450000Y-85186835D01*
X111449999Y-85186835D01*
X111213285Y-85205465D01*
X110982404Y-85260895D01*
X110982402Y-85260895D01*
X110763040Y-85351757D01*
X110763037Y-85351759D01*
X110560589Y-85475820D01*
X110560586Y-85475821D01*
X110380031Y-85630031D01*
X110225821Y-85810586D01*
X110225820Y-85810589D01*
X110101759Y-86013037D01*
X110101757Y-86013040D01*
X110010895Y-86232402D01*
X110010895Y-86232404D01*
X109955465Y-86463285D01*
X109936835Y-86699999D01*
X108658500Y-86699999D01*
X108658500Y-70250368D01*
X108678185Y-70183329D01*
X108730989Y-70137574D01*
X108800147Y-70127630D01*
X108822763Y-70133087D01*
X108905362Y-70161443D01*
X108905365Y-70161444D01*
X109127431Y-70198500D01*
X109352569Y-70198500D01*
X109574635Y-70161444D01*
X109617236Y-70146819D01*
X109687035Y-70143669D01*
X109747457Y-70178755D01*
X109779317Y-70240937D01*
X109781500Y-70264100D01*
X109781500Y-82613609D01*
X109779718Y-82629746D01*
X109779946Y-82629768D01*
X109779211Y-82637534D01*
X109781500Y-82710342D01*
X109781500Y-82741434D01*
X109782433Y-82748829D01*
X109782891Y-82754647D01*
X109784437Y-82803829D01*
X109784438Y-82803832D01*
X109790464Y-82824577D01*
X109794407Y-82843618D01*
X109797116Y-82865053D01*
X109797117Y-82865057D01*
X109797118Y-82865064D01*
X109813284Y-82905897D01*
X109815234Y-82910822D01*
X109817125Y-82916348D01*
X109830854Y-82963598D01*
X109841850Y-82982191D01*
X109850410Y-82999665D01*
X109858363Y-83019754D01*
X109887289Y-83059565D01*
X109890490Y-83064437D01*
X109915547Y-83106807D01*
X109915551Y-83106811D01*
X109930821Y-83122081D01*
X109943459Y-83136877D01*
X109956159Y-83154357D01*
X109956163Y-83154361D01*
X109994078Y-83185727D01*
X109998389Y-83189649D01*
X110276822Y-83468081D01*
X110453280Y-83644539D01*
X110463436Y-83657215D01*
X110463612Y-83657070D01*
X110468584Y-83663080D01*
X110521701Y-83712960D01*
X110543667Y-83734926D01*
X110548922Y-83739002D01*
X110549547Y-83739487D01*
X110553990Y-83743282D01*
X110589865Y-83776971D01*
X110589867Y-83776972D01*
X110608794Y-83787377D01*
X110625054Y-83798057D01*
X110642131Y-83811304D01*
X110687301Y-83830851D01*
X110692537Y-83833415D01*
X110735663Y-83857124D01*
X110755667Y-83862260D01*
X110756586Y-83862496D01*
X110774991Y-83868797D01*
X110794823Y-83877379D01*
X110843453Y-83885081D01*
X110849122Y-83886255D01*
X110896812Y-83898500D01*
X110918418Y-83898500D01*
X110937816Y-83900026D01*
X110959151Y-83903406D01*
X111004264Y-83899141D01*
X111008141Y-83898775D01*
X111013979Y-83898500D01*
X128071640Y-83898500D01*
X128138679Y-83918185D01*
X128184434Y-83970989D01*
X128194378Y-84040147D01*
X128165353Y-84103703D01*
X128159321Y-84110181D01*
X128113806Y-84155695D01*
X128113803Y-84155698D01*
X128113802Y-84155700D01*
X128031767Y-84272856D01*
X127982476Y-84343252D01*
X127982475Y-84343254D01*
X127885718Y-84550750D01*
X127885714Y-84550761D01*
X127826457Y-84771910D01*
X127826456Y-84771918D01*
X127806502Y-84999998D01*
X127806502Y-85000001D01*
X127826456Y-85228081D01*
X127826457Y-85228089D01*
X127885714Y-85449238D01*
X127885718Y-85449249D01*
X127970018Y-85630031D01*
X127982477Y-85656749D01*
X128113802Y-85844300D01*
X128275700Y-86006198D01*
X128463251Y-86137523D01*
X128588091Y-86195736D01*
X128670750Y-86234281D01*
X128670752Y-86234281D01*
X128670757Y-86234284D01*
X128891913Y-86293543D01*
X129054832Y-86307796D01*
X129119998Y-86313498D01*
X129120000Y-86313498D01*
X129120002Y-86313498D01*
X129177021Y-86308509D01*
X129348087Y-86293543D01*
X129569243Y-86234284D01*
X129776749Y-86137523D01*
X129964300Y-86006198D01*
X130126198Y-85844300D01*
X130257523Y-85656749D01*
X130354284Y-85449243D01*
X130413543Y-85228087D01*
X130433498Y-85000000D01*
X130413543Y-84771913D01*
X130354284Y-84550757D01*
X130351933Y-84545716D01*
X130304405Y-84443791D01*
X130257523Y-84343251D01*
X130126198Y-84155700D01*
X130080678Y-84110181D01*
X130047194Y-84048858D01*
X130052178Y-83979166D01*
X130094050Y-83923233D01*
X130159514Y-83898816D01*
X130168360Y-83898500D01*
X138231640Y-83898500D01*
X138298679Y-83918185D01*
X138344434Y-83970989D01*
X138354378Y-84040147D01*
X138325353Y-84103703D01*
X138319321Y-84110181D01*
X138273806Y-84155695D01*
X138273803Y-84155698D01*
X138273802Y-84155700D01*
X138191767Y-84272856D01*
X138142476Y-84343252D01*
X138142475Y-84343254D01*
X138045718Y-84550750D01*
X138045714Y-84550761D01*
X137986457Y-84771910D01*
X137986456Y-84771918D01*
X137966502Y-84999998D01*
X137966502Y-85000001D01*
X137986456Y-85228081D01*
X137986457Y-85228089D01*
X138045714Y-85449238D01*
X138045718Y-85449249D01*
X138130018Y-85630031D01*
X138142477Y-85656749D01*
X138273802Y-85844300D01*
X138435700Y-86006198D01*
X138623251Y-86137523D01*
X138748091Y-86195736D01*
X138830750Y-86234281D01*
X138830752Y-86234281D01*
X138830757Y-86234284D01*
X139051913Y-86293543D01*
X139214832Y-86307796D01*
X139279998Y-86313498D01*
X139280000Y-86313498D01*
X139280002Y-86313498D01*
X139337021Y-86308509D01*
X139508087Y-86293543D01*
X139729243Y-86234284D01*
X139936749Y-86137523D01*
X140124300Y-86006198D01*
X140286198Y-85844300D01*
X140417523Y-85656749D01*
X140514284Y-85449243D01*
X140573543Y-85228087D01*
X140593498Y-85000000D01*
X140573543Y-84771913D01*
X140514284Y-84550757D01*
X140511933Y-84545716D01*
X140464405Y-84443791D01*
X140417523Y-84343251D01*
X140286198Y-84155700D01*
X140240679Y-84110181D01*
X140207194Y-84048858D01*
X140212178Y-83979166D01*
X140254050Y-83923233D01*
X140319514Y-83898816D01*
X140328360Y-83898500D01*
X142199153Y-83898500D01*
X142266192Y-83918185D01*
X142300725Y-83951373D01*
X142393802Y-84084300D01*
X142555700Y-84246198D01*
X142694310Y-84343254D01*
X142743251Y-84377523D01*
X142786345Y-84397618D01*
X142838784Y-84443791D01*
X142857936Y-84510984D01*
X142837720Y-84577865D01*
X142786345Y-84622382D01*
X142743251Y-84642476D01*
X142618126Y-84730090D01*
X142555700Y-84773802D01*
X142555698Y-84773803D01*
X142555695Y-84773806D01*
X142393806Y-84935695D01*
X142262476Y-85123252D01*
X142262475Y-85123254D01*
X142165718Y-85330750D01*
X142165714Y-85330761D01*
X142106457Y-85551910D01*
X142106456Y-85551918D01*
X142086502Y-85779998D01*
X142086502Y-85780001D01*
X142106456Y-86008081D01*
X142106457Y-86008089D01*
X142165714Y-86229238D01*
X142165718Y-86229249D01*
X142195699Y-86293543D01*
X142262477Y-86436749D01*
X142393802Y-86624300D01*
X142555700Y-86786198D01*
X142743250Y-86917522D01*
X142743251Y-86917523D01*
X142786345Y-86937618D01*
X142838784Y-86983791D01*
X142857936Y-87050984D01*
X142837720Y-87117865D01*
X142786345Y-87162382D01*
X142743251Y-87182476D01*
X142618126Y-87270090D01*
X142555700Y-87313802D01*
X142555698Y-87313803D01*
X142555695Y-87313806D01*
X142393806Y-87475695D01*
X142262476Y-87663252D01*
X142262475Y-87663254D01*
X142165718Y-87870750D01*
X142165714Y-87870761D01*
X142106457Y-88091910D01*
X142106456Y-88091918D01*
X142086502Y-88319998D01*
X142086502Y-88320001D01*
X142106456Y-88548081D01*
X142106457Y-88548089D01*
X142165714Y-88769238D01*
X142165718Y-88769249D01*
X142262475Y-88976745D01*
X142262477Y-88976749D01*
X142393802Y-89164300D01*
X142555700Y-89326198D01*
X142743251Y-89457523D01*
X142868091Y-89515736D01*
X142950750Y-89554281D01*
X142950752Y-89554281D01*
X142950757Y-89554284D01*
X143171913Y-89613543D01*
X143334832Y-89627796D01*
X143399998Y-89633498D01*
X143400000Y-89633498D01*
X143400002Y-89633498D01*
X143457021Y-89628509D01*
X143628087Y-89613543D01*
X143849243Y-89554284D01*
X144056749Y-89457523D01*
X144244300Y-89326198D01*
X144406198Y-89164300D01*
X144537523Y-88976749D01*
X144634284Y-88769243D01*
X144693543Y-88548087D01*
X144713498Y-88320000D01*
X144693543Y-88091913D01*
X144634284Y-87870757D01*
X144537523Y-87663251D01*
X144406198Y-87475700D01*
X144244300Y-87313802D01*
X144056749Y-87182477D01*
X144013655Y-87162382D01*
X143961215Y-87116210D01*
X143942063Y-87049017D01*
X143962278Y-86982136D01*
X144013655Y-86937618D01*
X144016882Y-86936112D01*
X144056749Y-86917523D01*
X144244300Y-86786198D01*
X144406198Y-86624300D01*
X144537523Y-86436749D01*
X144634284Y-86229243D01*
X144693543Y-86008087D01*
X144713498Y-85780000D01*
X144693543Y-85551913D01*
X144634284Y-85330757D01*
X144537523Y-85123251D01*
X144406198Y-84935700D01*
X144244300Y-84773802D01*
X144056749Y-84642477D01*
X144013655Y-84622382D01*
X143961215Y-84576210D01*
X143942063Y-84509017D01*
X143962278Y-84442136D01*
X144013655Y-84397618D01*
X144016882Y-84396112D01*
X144056749Y-84377523D01*
X144244300Y-84246198D01*
X144406198Y-84084300D01*
X144537523Y-83896749D01*
X144634284Y-83689243D01*
X144693543Y-83468087D01*
X144713498Y-83240000D01*
X144693543Y-83011913D01*
X144634284Y-82790757D01*
X144611284Y-82741434D01*
X144559204Y-82629746D01*
X144537523Y-82583251D01*
X144406198Y-82395700D01*
X144244300Y-82233802D01*
X144056749Y-82102477D01*
X144013655Y-82082382D01*
X143961215Y-82036210D01*
X143942063Y-81969017D01*
X143962278Y-81902136D01*
X144013655Y-81857618D01*
X144016882Y-81856112D01*
X144056749Y-81837523D01*
X144244300Y-81706198D01*
X144406198Y-81544300D01*
X144537523Y-81356749D01*
X144634284Y-81149243D01*
X144693543Y-80928087D01*
X144713498Y-80700000D01*
X144693543Y-80471913D01*
X144634284Y-80250757D01*
X144537523Y-80043251D01*
X144406198Y-79855700D01*
X144244300Y-79693802D01*
X144056749Y-79562477D01*
X144013655Y-79542382D01*
X143961215Y-79496210D01*
X143942063Y-79429017D01*
X143962278Y-79362136D01*
X144013655Y-79317618D01*
X144016882Y-79316112D01*
X144056749Y-79297523D01*
X144244300Y-79166198D01*
X144406198Y-79004300D01*
X144537523Y-78816749D01*
X144634284Y-78609243D01*
X144693543Y-78388087D01*
X144713498Y-78160000D01*
X144693543Y-77931913D01*
X144634284Y-77710757D01*
X144614328Y-77667962D01*
X144541720Y-77512252D01*
X144537523Y-77503251D01*
X144406198Y-77315700D01*
X144244300Y-77153802D01*
X144056749Y-77022477D01*
X144020266Y-77005465D01*
X144013655Y-77002382D01*
X143961215Y-76956210D01*
X143942063Y-76889017D01*
X143962278Y-76822136D01*
X144013655Y-76777618D01*
X144016882Y-76776112D01*
X144056749Y-76757523D01*
X144244300Y-76626198D01*
X144406198Y-76464300D01*
X144537523Y-76276749D01*
X144634284Y-76069243D01*
X144693543Y-75848087D01*
X144713498Y-75620000D01*
X144693543Y-75391913D01*
X144634284Y-75170757D01*
X144630743Y-75163164D01*
X144553839Y-74998242D01*
X144537523Y-74963251D01*
X144406198Y-74775700D01*
X144244300Y-74613802D01*
X144056749Y-74482477D01*
X144013655Y-74462382D01*
X143849249Y-74385718D01*
X143849238Y-74385714D01*
X143628089Y-74326457D01*
X143628081Y-74326456D01*
X143400002Y-74306502D01*
X143399998Y-74306502D01*
X143171918Y-74326456D01*
X143171910Y-74326457D01*
X142950761Y-74385714D01*
X142950750Y-74385718D01*
X142743254Y-74482475D01*
X142743252Y-74482476D01*
X142743249Y-74482477D01*
X142743251Y-74482477D01*
X142555700Y-74613802D01*
X142555698Y-74613803D01*
X142555695Y-74613806D01*
X142393806Y-74775695D01*
X142262476Y-74963252D01*
X142262475Y-74963254D01*
X142165718Y-75170750D01*
X142165714Y-75170761D01*
X142106457Y-75391910D01*
X142106456Y-75391918D01*
X142086502Y-75619998D01*
X142086502Y-75620001D01*
X142106456Y-75848081D01*
X142106457Y-75848089D01*
X142165714Y-76069238D01*
X142165718Y-76069249D01*
X142235893Y-76219739D01*
X142262477Y-76276749D01*
X142393802Y-76464300D01*
X142555700Y-76626198D01*
X142743251Y-76757522D01*
X142743251Y-76757523D01*
X142786345Y-76777618D01*
X142838784Y-76823791D01*
X142857936Y-76890984D01*
X142837720Y-76957865D01*
X142786345Y-77002382D01*
X142743251Y-77022476D01*
X142618126Y-77110090D01*
X142555700Y-77153802D01*
X142555698Y-77153803D01*
X142555695Y-77153806D01*
X142393806Y-77315695D01*
X142393803Y-77315698D01*
X142393802Y-77315700D01*
X142344615Y-77385946D01*
X142262476Y-77503252D01*
X142262475Y-77503254D01*
X142165718Y-77710750D01*
X142165714Y-77710761D01*
X142106457Y-77931910D01*
X142106456Y-77931918D01*
X142086502Y-78159998D01*
X142086502Y-78160001D01*
X142106456Y-78388081D01*
X142106457Y-78388089D01*
X142165714Y-78609238D01*
X142165718Y-78609249D01*
X142225155Y-78736711D01*
X142262477Y-78816749D01*
X142393802Y-79004300D01*
X142555700Y-79166198D01*
X142735418Y-79292038D01*
X142743251Y-79297523D01*
X142786345Y-79317618D01*
X142838784Y-79363791D01*
X142857936Y-79430984D01*
X142837720Y-79497865D01*
X142786345Y-79542382D01*
X142743251Y-79562476D01*
X142618126Y-79650090D01*
X142555700Y-79693802D01*
X142555698Y-79693803D01*
X142555695Y-79693806D01*
X142393806Y-79855695D01*
X142262476Y-80043252D01*
X142262475Y-80043254D01*
X142165718Y-80250750D01*
X142165714Y-80250761D01*
X142106457Y-80471910D01*
X142106456Y-80471918D01*
X142086502Y-80699998D01*
X142086502Y-80700001D01*
X142106456Y-80928081D01*
X142106457Y-80928089D01*
X142165714Y-81149238D01*
X142165718Y-81149249D01*
X142262475Y-81356745D01*
X142262477Y-81356749D01*
X142393802Y-81544300D01*
X142555700Y-81706198D01*
X142743251Y-81837522D01*
X142743251Y-81837523D01*
X142786345Y-81857618D01*
X142838784Y-81903791D01*
X142857936Y-81970984D01*
X142837720Y-82037865D01*
X142786345Y-82082382D01*
X142743251Y-82102476D01*
X142618126Y-82190090D01*
X142555700Y-82233802D01*
X142555698Y-82233803D01*
X142555695Y-82233806D01*
X142393806Y-82395695D01*
X142393803Y-82395698D01*
X142393802Y-82395700D01*
X142300726Y-82528625D01*
X142246150Y-82572249D01*
X142199153Y-82581500D01*
X111304122Y-82581500D01*
X111237083Y-82561815D01*
X111216440Y-82545181D01*
X111134818Y-82463558D01*
X111101334Y-82402234D01*
X111098500Y-82375877D01*
X111098500Y-78500000D01*
X130736835Y-78500000D01*
X130755465Y-78736714D01*
X130810895Y-78967595D01*
X130810895Y-78967597D01*
X130901757Y-79186959D01*
X130901759Y-79186962D01*
X131025820Y-79389410D01*
X131025821Y-79389413D01*
X131059646Y-79429017D01*
X131180031Y-79569969D01*
X131293777Y-79667117D01*
X131360586Y-79724178D01*
X131360589Y-79724179D01*
X131563037Y-79848240D01*
X131563040Y-79848242D01*
X131782403Y-79939104D01*
X131782404Y-79939104D01*
X131782406Y-79939105D01*
X132013289Y-79994535D01*
X132250000Y-80013165D01*
X132486711Y-79994535D01*
X132717594Y-79939105D01*
X132717596Y-79939104D01*
X132717597Y-79939104D01*
X132936959Y-79848242D01*
X132936960Y-79848241D01*
X132936963Y-79848240D01*
X133139416Y-79724176D01*
X133319969Y-79569969D01*
X133474176Y-79389416D01*
X133598240Y-79186963D01*
X133629436Y-79111650D01*
X133689104Y-78967597D01*
X133689104Y-78967596D01*
X133689105Y-78967594D01*
X133744535Y-78736711D01*
X133763165Y-78500000D01*
X133761591Y-78480002D01*
X136186693Y-78480002D01*
X136198000Y-78609249D01*
X136205885Y-78699371D01*
X136262880Y-78912076D01*
X136262881Y-78912079D01*
X136262882Y-78912081D01*
X136305884Y-79004300D01*
X136355944Y-79111654D01*
X136482251Y-79292038D01*
X136637962Y-79447749D01*
X136818346Y-79574056D01*
X137017924Y-79667120D01*
X137230629Y-79724115D01*
X137387322Y-79737823D01*
X137449998Y-79743307D01*
X137450000Y-79743307D01*
X137450002Y-79743307D01*
X137504842Y-79738509D01*
X137669371Y-79724115D01*
X137882076Y-79667120D01*
X138081654Y-79574056D01*
X138262038Y-79447749D01*
X138417749Y-79292038D01*
X138544056Y-79111654D01*
X138637120Y-78912076D01*
X138694115Y-78699371D01*
X138713307Y-78480000D01*
X138694115Y-78260629D01*
X138637120Y-78047924D01*
X138544056Y-77848347D01*
X138544054Y-77848344D01*
X138544053Y-77848342D01*
X138447709Y-77710750D01*
X138417749Y-77667962D01*
X138262038Y-77512251D01*
X138081654Y-77385944D01*
X138081650Y-77385942D01*
X137882081Y-77292882D01*
X137882079Y-77292881D01*
X137882076Y-77292880D01*
X137730777Y-77252339D01*
X137669372Y-77235885D01*
X137669365Y-77235884D01*
X137450002Y-77216693D01*
X137449998Y-77216693D01*
X137230634Y-77235884D01*
X137230627Y-77235885D01*
X137017920Y-77292881D01*
X136818346Y-77385944D01*
X136818342Y-77385946D01*
X136637967Y-77512247D01*
X136637960Y-77512252D01*
X136482252Y-77667960D01*
X136482247Y-77667967D01*
X136355946Y-77848342D01*
X136355944Y-77848346D01*
X136262881Y-78047920D01*
X136205885Y-78260627D01*
X136205884Y-78260634D01*
X136186693Y-78479997D01*
X136186693Y-78480002D01*
X133761591Y-78480002D01*
X133744535Y-78263289D01*
X133689105Y-78032406D01*
X133689104Y-78032403D01*
X133689104Y-78032402D01*
X133598242Y-77813040D01*
X133598240Y-77813037D01*
X133535558Y-77710750D01*
X133474178Y-77610588D01*
X133474178Y-77610586D01*
X133390192Y-77512252D01*
X133319969Y-77430031D01*
X133186099Y-77315695D01*
X133139413Y-77275821D01*
X133139410Y-77275820D01*
X132936962Y-77151759D01*
X132936959Y-77151757D01*
X132717596Y-77060895D01*
X132486714Y-77005465D01*
X132309177Y-76991492D01*
X132250000Y-76986835D01*
X132249999Y-76986835D01*
X132013285Y-77005465D01*
X131782404Y-77060895D01*
X131782402Y-77060895D01*
X131563040Y-77151757D01*
X131563037Y-77151759D01*
X131360589Y-77275820D01*
X131360586Y-77275821D01*
X131180031Y-77430031D01*
X131025821Y-77610586D01*
X131025820Y-77610589D01*
X130901759Y-77813037D01*
X130901757Y-77813040D01*
X130810895Y-78032402D01*
X130810895Y-78032404D01*
X130755465Y-78263285D01*
X130736835Y-78500000D01*
X111098500Y-78500000D01*
X111098500Y-73649999D01*
X130736835Y-73649999D01*
X130755465Y-73886714D01*
X130810895Y-74117595D01*
X130810895Y-74117597D01*
X130901757Y-74336959D01*
X130901759Y-74336962D01*
X131025820Y-74539410D01*
X131025821Y-74539413D01*
X131078076Y-74600596D01*
X131180031Y-74719969D01*
X131258655Y-74787120D01*
X131360586Y-74874178D01*
X131360589Y-74874179D01*
X131563037Y-74998240D01*
X131563040Y-74998242D01*
X131782403Y-75089104D01*
X131782404Y-75089104D01*
X131782406Y-75089105D01*
X132013289Y-75144535D01*
X132250000Y-75163165D01*
X132486711Y-75144535D01*
X132717594Y-75089105D01*
X132717596Y-75089104D01*
X132717597Y-75089104D01*
X132936959Y-74998242D01*
X132936960Y-74998241D01*
X132936963Y-74998240D01*
X133139416Y-74874176D01*
X133319969Y-74719969D01*
X133474176Y-74539416D01*
X133598240Y-74336963D01*
X133610858Y-74306502D01*
X133689104Y-74117597D01*
X133689104Y-74117596D01*
X133689105Y-74117594D01*
X133744535Y-73886711D01*
X133763165Y-73650000D01*
X133759230Y-73600002D01*
X136186693Y-73600002D01*
X136198656Y-73736749D01*
X136205885Y-73819371D01*
X136262880Y-74032076D01*
X136355944Y-74231654D01*
X136482251Y-74412038D01*
X136637962Y-74567749D01*
X136818346Y-74694056D01*
X137017924Y-74787120D01*
X137230629Y-74844115D01*
X137387322Y-74857823D01*
X137449998Y-74863307D01*
X137450000Y-74863307D01*
X137450002Y-74863307D01*
X137504842Y-74858509D01*
X137669371Y-74844115D01*
X137882076Y-74787120D01*
X138081654Y-74694056D01*
X138262038Y-74567749D01*
X138417749Y-74412038D01*
X138544056Y-74231654D01*
X138637120Y-74032076D01*
X138694115Y-73819371D01*
X138713307Y-73600000D01*
X138694115Y-73380629D01*
X138637120Y-73167924D01*
X138544056Y-72968347D01*
X138544054Y-72968344D01*
X138544053Y-72968342D01*
X138462526Y-72851910D01*
X138417749Y-72787962D01*
X138262038Y-72632251D01*
X138081654Y-72505944D01*
X137909835Y-72425824D01*
X137882081Y-72412882D01*
X137882079Y-72412881D01*
X137882076Y-72412880D01*
X137730777Y-72372339D01*
X137669372Y-72355885D01*
X137669365Y-72355884D01*
X137450002Y-72336693D01*
X137449998Y-72336693D01*
X137230634Y-72355884D01*
X137230627Y-72355885D01*
X137017920Y-72412881D01*
X136818346Y-72505944D01*
X136818342Y-72505946D01*
X136637967Y-72632247D01*
X136637960Y-72632252D01*
X136482252Y-72787960D01*
X136482247Y-72787967D01*
X136355946Y-72968342D01*
X136355944Y-72968346D01*
X136262881Y-73167920D01*
X136205885Y-73380627D01*
X136205884Y-73380634D01*
X136186693Y-73599997D01*
X136186693Y-73600002D01*
X133759230Y-73600002D01*
X133744535Y-73413289D01*
X133689105Y-73182406D01*
X133689104Y-73182403D01*
X133689104Y-73182402D01*
X133598242Y-72963040D01*
X133598240Y-72963037D01*
X133474179Y-72760589D01*
X133474178Y-72760586D01*
X133439340Y-72719797D01*
X133319969Y-72580031D01*
X133200596Y-72478076D01*
X133139413Y-72425821D01*
X133139410Y-72425820D01*
X132936962Y-72301759D01*
X132936959Y-72301757D01*
X132717596Y-72210895D01*
X132486714Y-72155465D01*
X132309177Y-72141492D01*
X132250000Y-72136835D01*
X132249999Y-72136835D01*
X132013285Y-72155465D01*
X131782404Y-72210895D01*
X131782402Y-72210895D01*
X131563040Y-72301757D01*
X131563037Y-72301759D01*
X131360589Y-72425820D01*
X131360586Y-72425821D01*
X131180031Y-72580031D01*
X131025821Y-72760586D01*
X131025820Y-72760589D01*
X130901759Y-72963037D01*
X130901757Y-72963040D01*
X130810895Y-73182402D01*
X130810895Y-73182404D01*
X130755465Y-73413285D01*
X130736835Y-73649999D01*
X111098500Y-73649999D01*
X111098500Y-68548654D01*
X118441500Y-68548654D01*
X118448011Y-68609202D01*
X118448011Y-68609204D01*
X118499110Y-68746204D01*
X118499111Y-68746204D01*
X118586739Y-68863261D01*
X118703796Y-68950889D01*
X118840799Y-69001989D01*
X118868050Y-69004918D01*
X118901345Y-69008499D01*
X118901362Y-69008500D01*
X120598638Y-69008500D01*
X120598654Y-69008499D01*
X120625692Y-69005591D01*
X120659201Y-69001989D01*
X120796204Y-68950889D01*
X120913261Y-68863261D01*
X121000889Y-68746204D01*
X121051989Y-68609201D01*
X121055591Y-68575692D01*
X121058499Y-68548654D01*
X121058499Y-68548647D01*
X121058500Y-68548638D01*
X121058500Y-66851362D01*
X121058499Y-66851352D01*
X121058499Y-66851345D01*
X121055157Y-66820270D01*
X121051989Y-66790799D01*
X121042633Y-66765716D01*
X121008845Y-66675127D01*
X121000889Y-66653796D01*
X120913261Y-66536739D01*
X120796204Y-66449111D01*
X120796203Y-66449110D01*
X120659203Y-66398011D01*
X120598654Y-66391500D01*
X120598638Y-66391500D01*
X118901362Y-66391500D01*
X118901345Y-66391500D01*
X118840797Y-66398011D01*
X118840795Y-66398011D01*
X118703795Y-66449111D01*
X118586739Y-66536739D01*
X118499111Y-66653795D01*
X118448011Y-66790795D01*
X118448011Y-66790797D01*
X118441500Y-66851345D01*
X118441500Y-68548654D01*
X111098500Y-68548654D01*
X111098500Y-67586387D01*
X111100282Y-67570249D01*
X111100054Y-67570228D01*
X111100788Y-67562465D01*
X111098500Y-67489657D01*
X111098500Y-67458574D01*
X111098500Y-67458568D01*
X111097566Y-67451175D01*
X111097107Y-67445347D01*
X111096976Y-67441191D01*
X111095562Y-67396169D01*
X111089535Y-67375426D01*
X111085590Y-67356377D01*
X111082882Y-67334936D01*
X111064763Y-67289172D01*
X111062876Y-67283665D01*
X111049145Y-67236400D01*
X111038148Y-67217807D01*
X111029591Y-67200340D01*
X111021635Y-67180244D01*
X110992705Y-67140425D01*
X110989495Y-67135539D01*
X110964453Y-67093195D01*
X110964452Y-67093193D01*
X110964450Y-67093191D01*
X110964447Y-67093187D01*
X110949178Y-67077918D01*
X110936541Y-67063122D01*
X110923843Y-67045644D01*
X110923840Y-67045641D01*
X110885914Y-67014267D01*
X110881592Y-67010333D01*
X110596207Y-66724948D01*
X110562722Y-66663625D01*
X110563683Y-66606826D01*
X110584561Y-66524380D01*
X110584563Y-66524371D01*
X110584564Y-66524368D01*
X110590800Y-66449111D01*
X110603156Y-66300005D01*
X110603156Y-66299994D01*
X110584565Y-66075640D01*
X110584563Y-66075628D01*
X110567280Y-66007379D01*
X110529296Y-65857384D01*
X110438860Y-65651209D01*
X110422706Y-65626484D01*
X110315723Y-65462734D01*
X110315715Y-65462723D01*
X110163243Y-65297097D01*
X110163238Y-65297092D01*
X109985577Y-65158812D01*
X109985572Y-65158808D01*
X109787580Y-65051661D01*
X109787577Y-65051659D01*
X109787574Y-65051658D01*
X109787571Y-65051657D01*
X109787569Y-65051656D01*
X109574637Y-64978556D01*
X109352569Y-64941500D01*
X109127431Y-64941500D01*
X108905362Y-64978556D01*
X108692430Y-65051656D01*
X108692419Y-65051661D01*
X108494427Y-65158808D01*
X108494422Y-65158812D01*
X108316761Y-65297092D01*
X108316756Y-65297097D01*
X108164284Y-65462723D01*
X108164276Y-65462734D01*
X108073808Y-65601206D01*
X108020662Y-65646562D01*
X107951431Y-65655986D01*
X107888095Y-65626484D01*
X107866192Y-65601206D01*
X107775723Y-65462734D01*
X107775715Y-65462723D01*
X107623243Y-65297097D01*
X107623238Y-65297092D01*
X107445577Y-65158812D01*
X107445572Y-65158808D01*
X107409068Y-65139053D01*
X107359478Y-65089833D01*
X107344371Y-65021616D01*
X107368542Y-64956061D01*
X107409069Y-64920945D01*
X107445576Y-64901189D01*
X107623240Y-64762906D01*
X107775722Y-64597268D01*
X107898860Y-64408791D01*
X107989296Y-64202616D01*
X108044564Y-63984368D01*
X108049385Y-63926193D01*
X108063156Y-63760005D01*
X108063156Y-63759994D01*
X108044565Y-63535640D01*
X108044563Y-63535628D01*
X108002430Y-63369249D01*
X107989296Y-63317384D01*
X107898860Y-63111209D01*
X107775722Y-62922732D01*
X107775719Y-62922729D01*
X107775715Y-62922723D01*
X107623243Y-62757097D01*
X107623238Y-62757092D01*
X107492361Y-62655226D01*
X107445576Y-62618811D01*
X107445575Y-62618810D01*
X107445572Y-62618808D01*
X107247580Y-62511661D01*
X107247577Y-62511659D01*
X107247574Y-62511658D01*
X107247571Y-62511657D01*
X107247569Y-62511656D01*
X107034637Y-62438556D01*
X106812569Y-62401500D01*
X106587431Y-62401500D01*
X106365362Y-62438556D01*
X106152430Y-62511656D01*
X106152419Y-62511661D01*
X105954427Y-62618808D01*
X105954422Y-62618812D01*
X105776761Y-62757092D01*
X105776756Y-62757097D01*
X105624284Y-62922723D01*
X105624276Y-62922734D01*
X105501140Y-63111207D01*
X105410703Y-63317385D01*
X105355436Y-63535628D01*
X105355434Y-63535640D01*
X105336844Y-63759994D01*
X105336844Y-63760005D01*
X105355434Y-63984359D01*
X105355436Y-63984371D01*
X105410703Y-64202614D01*
X105501140Y-64408792D01*
X105624276Y-64597265D01*
X105624284Y-64597276D01*
X105776756Y-64762902D01*
X105776761Y-64762907D01*
X105835981Y-64809000D01*
X105954424Y-64901189D01*
X105990930Y-64920945D01*
X106040519Y-64970162D01*
X106055629Y-65038378D01*
X106031459Y-65103934D01*
X105990932Y-65139052D01*
X105954432Y-65158805D01*
X105954422Y-65158812D01*
X105776761Y-65297092D01*
X105776756Y-65297097D01*
X105624284Y-65462723D01*
X105624276Y-65462734D01*
X105501140Y-65651207D01*
X105410703Y-65857385D01*
X105355436Y-66075628D01*
X105355434Y-66075640D01*
X105336844Y-66299994D01*
X105336844Y-66300005D01*
X100500000Y-66300005D01*
X100500000Y-61049999D01*
X122236835Y-61049999D01*
X122255465Y-61286714D01*
X122310895Y-61517595D01*
X122310895Y-61517597D01*
X122401757Y-61736959D01*
X122401759Y-61736962D01*
X122525820Y-61939410D01*
X122525821Y-61939413D01*
X122525824Y-61939416D01*
X122680031Y-62119969D01*
X122819797Y-62239340D01*
X122860586Y-62274178D01*
X122860589Y-62274179D01*
X123063037Y-62398240D01*
X123063040Y-62398242D01*
X123282403Y-62489104D01*
X123282404Y-62489104D01*
X123282406Y-62489105D01*
X123513289Y-62544535D01*
X123750000Y-62563165D01*
X123986711Y-62544535D01*
X124217594Y-62489105D01*
X124217596Y-62489104D01*
X124217597Y-62489104D01*
X124436959Y-62398242D01*
X124436960Y-62398241D01*
X124436963Y-62398240D01*
X124639416Y-62274176D01*
X124819969Y-62119969D01*
X124974176Y-61939416D01*
X125098240Y-61736963D01*
X125106152Y-61717863D01*
X125189104Y-61517597D01*
X125189104Y-61517596D01*
X125189105Y-61517594D01*
X125244535Y-61286711D01*
X125263165Y-61050000D01*
X125244535Y-60813289D01*
X125189105Y-60582406D01*
X125189104Y-60582403D01*
X125189104Y-60582402D01*
X125098242Y-60363040D01*
X125098240Y-60363037D01*
X124974179Y-60160589D01*
X124974178Y-60160586D01*
X124939340Y-60119797D01*
X124819969Y-59980031D01*
X124700596Y-59878076D01*
X124639413Y-59825821D01*
X124639410Y-59825820D01*
X124436962Y-59701759D01*
X124436959Y-59701757D01*
X124217596Y-59610895D01*
X123986714Y-59555465D01*
X123750000Y-59536835D01*
X123513285Y-59555465D01*
X123282404Y-59610895D01*
X123282402Y-59610895D01*
X123063040Y-59701757D01*
X123063037Y-59701759D01*
X122860589Y-59825820D01*
X122860586Y-59825821D01*
X122680031Y-59980031D01*
X122525821Y-60160586D01*
X122525820Y-60160589D01*
X122401759Y-60363037D01*
X122401757Y-60363040D01*
X122310895Y-60582402D01*
X122310895Y-60582404D01*
X122255465Y-60813285D01*
X122236835Y-61049999D01*
X100500000Y-61049999D01*
X100500000Y-59698654D01*
X105641500Y-59698654D01*
X105648011Y-59759202D01*
X105648011Y-59759204D01*
X105672859Y-59825821D01*
X105699111Y-59896204D01*
X105786739Y-60013261D01*
X105903796Y-60100889D01*
X106018949Y-60143839D01*
X106040608Y-60151918D01*
X106040799Y-60151989D01*
X106068050Y-60154918D01*
X106101345Y-60158499D01*
X106101362Y-60158500D01*
X109698638Y-60158500D01*
X109698654Y-60158499D01*
X109725692Y-60155591D01*
X109759201Y-60151989D01*
X109759392Y-60151918D01*
X109773768Y-60146555D01*
X109896204Y-60100889D01*
X110013261Y-60013261D01*
X110100889Y-59896204D01*
X110151989Y-59759201D01*
X110155854Y-59723251D01*
X110158499Y-59698654D01*
X110158500Y-59698637D01*
X110158500Y-56101362D01*
X110158499Y-56101345D01*
X110155157Y-56070270D01*
X110151989Y-56040799D01*
X110100889Y-55903796D01*
X110013261Y-55786739D01*
X109896204Y-55699111D01*
X109759203Y-55648011D01*
X109698654Y-55641500D01*
X109698638Y-55641500D01*
X106101362Y-55641500D01*
X106101345Y-55641500D01*
X106040797Y-55648011D01*
X106040795Y-55648011D01*
X105903795Y-55699111D01*
X105786739Y-55786739D01*
X105699111Y-55903795D01*
X105648011Y-56040795D01*
X105648011Y-56040797D01*
X105641500Y-56101345D01*
X105641500Y-59698654D01*
X100500000Y-59698654D01*
X100500000Y-48690351D01*
X120925394Y-48690351D01*
X120930025Y-48739343D01*
X120930300Y-48745181D01*
X120930300Y-53852409D01*
X120928518Y-53868546D01*
X120928746Y-53868568D01*
X120928011Y-53876334D01*
X120930300Y-53949142D01*
X120930300Y-53980234D01*
X120931233Y-53987629D01*
X120931691Y-53993447D01*
X120933237Y-54042629D01*
X120933238Y-54042632D01*
X120939264Y-54063377D01*
X120943207Y-54082418D01*
X120945916Y-54103853D01*
X120945917Y-54103857D01*
X120945918Y-54103864D01*
X120958934Y-54136739D01*
X120964034Y-54149622D01*
X120965925Y-54155148D01*
X120979654Y-54202398D01*
X120990650Y-54220991D01*
X120999210Y-54238465D01*
X121007163Y-54258554D01*
X121022459Y-54279606D01*
X121032776Y-54293806D01*
X121036089Y-54298365D01*
X121039290Y-54303237D01*
X121064347Y-54345607D01*
X121064351Y-54345611D01*
X121079621Y-54360881D01*
X121092259Y-54375677D01*
X121104959Y-54393157D01*
X121104963Y-54393161D01*
X121142878Y-54424527D01*
X121147189Y-54428449D01*
X121297100Y-54578360D01*
X121393980Y-54675240D01*
X121427465Y-54736563D01*
X121430299Y-54762921D01*
X121430299Y-55336219D01*
X121441028Y-55421635D01*
X121441029Y-55421639D01*
X121496985Y-55556728D01*
X121496986Y-55556730D01*
X121549791Y-55624707D01*
X121549803Y-55624720D01*
X122025283Y-56100200D01*
X122025293Y-56100209D01*
X122078229Y-56141329D01*
X122093271Y-56153014D01*
X122228363Y-56208971D01*
X122313781Y-56219700D01*
X122986218Y-56219701D01*
X123071638Y-56208971D01*
X123206730Y-56153014D01*
X123273243Y-56101345D01*
X123274707Y-56100208D01*
X123274710Y-56100205D01*
X123274718Y-56100199D01*
X123750202Y-55624715D01*
X123803014Y-55556729D01*
X123858971Y-55421637D01*
X123869700Y-55336219D01*
X123869701Y-54663782D01*
X123858971Y-54578362D01*
X123803014Y-54443270D01*
X123789041Y-54425283D01*
X123750208Y-54375292D01*
X123750196Y-54375279D01*
X123274716Y-53899799D01*
X123274706Y-53899790D01*
X123206729Y-53846986D01*
X123192893Y-53841255D01*
X123071637Y-53791029D01*
X123050282Y-53788346D01*
X122986222Y-53780300D01*
X122986215Y-53780299D01*
X122412921Y-53780299D01*
X122345881Y-53760614D01*
X122325239Y-53743979D01*
X122283618Y-53702357D01*
X122250133Y-53641034D01*
X122247300Y-53614677D01*
X122247300Y-49035321D01*
X122266985Y-48968282D01*
X122283619Y-48947640D01*
X125016440Y-46214819D01*
X125077763Y-46181334D01*
X125104121Y-46178500D01*
X134405878Y-46178500D01*
X134472917Y-46198185D01*
X134493559Y-46214819D01*
X140465181Y-52186441D01*
X140498666Y-52247764D01*
X140501500Y-52274122D01*
X140501500Y-54390641D01*
X140481815Y-54457680D01*
X140429011Y-54503435D01*
X140359853Y-54513379D01*
X140311894Y-54494400D01*
X140311441Y-54495186D01*
X140306751Y-54492478D01*
X140306749Y-54492477D01*
X140306745Y-54492475D01*
X140099249Y-54395718D01*
X140099238Y-54395714D01*
X139878089Y-54336457D01*
X139878081Y-54336456D01*
X139650002Y-54316502D01*
X139649998Y-54316502D01*
X139421918Y-54336456D01*
X139421910Y-54336457D01*
X139200761Y-54395714D01*
X139200750Y-54395718D01*
X138993254Y-54492475D01*
X138993252Y-54492476D01*
X138989382Y-54495186D01*
X138805700Y-54623802D01*
X138805698Y-54623803D01*
X138805695Y-54623806D01*
X138643806Y-54785695D01*
X138643803Y-54785698D01*
X138643802Y-54785700D01*
X138572620Y-54887358D01*
X138512476Y-54973252D01*
X138512475Y-54973254D01*
X138415718Y-55180750D01*
X138415714Y-55180761D01*
X138356457Y-55401910D01*
X138356456Y-55401918D01*
X138336502Y-55629998D01*
X138336502Y-55630001D01*
X138356456Y-55858081D01*
X138356457Y-55858089D01*
X138415714Y-56079238D01*
X138415718Y-56079249D01*
X138499524Y-56258971D01*
X138512477Y-56286749D01*
X138643802Y-56474300D01*
X138805700Y-56636198D01*
X138993251Y-56767523D01*
X139091635Y-56813400D01*
X139200750Y-56864281D01*
X139200752Y-56864281D01*
X139200757Y-56864284D01*
X139421913Y-56923543D01*
X139584832Y-56937796D01*
X139649998Y-56943498D01*
X139650000Y-56943498D01*
X139650002Y-56943498D01*
X139707021Y-56938509D01*
X139878087Y-56923543D01*
X140099243Y-56864284D01*
X140306749Y-56767523D01*
X140306759Y-56767515D01*
X140311441Y-56764814D01*
X140312052Y-56765872D01*
X140372567Y-56745456D01*
X140440337Y-56762458D01*
X140488156Y-56813400D01*
X140501500Y-56869358D01*
X140501500Y-60593609D01*
X140499718Y-60609746D01*
X140499946Y-60609768D01*
X140498478Y-60625301D01*
X140496242Y-60625089D01*
X140481520Y-60681708D01*
X140430170Y-60729089D01*
X140361356Y-60741186D01*
X140296925Y-60714159D01*
X140257334Y-60656588D01*
X140254589Y-60646903D01*
X140245668Y-60609746D01*
X140239105Y-60582406D01*
X140239104Y-60582404D01*
X140239104Y-60582402D01*
X140148242Y-60363040D01*
X140148240Y-60363037D01*
X140024179Y-60160589D01*
X140024178Y-60160586D01*
X139989340Y-60119797D01*
X139869969Y-59980031D01*
X139750596Y-59878076D01*
X139689413Y-59825821D01*
X139689410Y-59825820D01*
X139486962Y-59701759D01*
X139486959Y-59701757D01*
X139267596Y-59610895D01*
X139036714Y-59555465D01*
X138859177Y-59541492D01*
X138800000Y-59536835D01*
X138799999Y-59536835D01*
X138563285Y-59555465D01*
X138332404Y-59610895D01*
X138332402Y-59610895D01*
X138113040Y-59701757D01*
X138113037Y-59701759D01*
X137910589Y-59825820D01*
X137910586Y-59825821D01*
X137730031Y-59980031D01*
X137575821Y-60160586D01*
X137575820Y-60160589D01*
X137451759Y-60363037D01*
X137451757Y-60363040D01*
X137360895Y-60582402D01*
X137345360Y-60647112D01*
X137310569Y-60707704D01*
X137248542Y-60739867D01*
X137178973Y-60733391D01*
X137137105Y-60705845D01*
X133926717Y-57495457D01*
X133916564Y-57482785D01*
X133916388Y-57482931D01*
X133911419Y-57476926D01*
X133911416Y-57476920D01*
X133885754Y-57452822D01*
X133858315Y-57427054D01*
X133836333Y-57405072D01*
X133830439Y-57400501D01*
X133826002Y-57396711D01*
X133790133Y-57363028D01*
X133790131Y-57363026D01*
X133771200Y-57352619D01*
X133754948Y-57341944D01*
X133737868Y-57328696D01*
X133737864Y-57328694D01*
X133692702Y-57309150D01*
X133687455Y-57306580D01*
X133644337Y-57282875D01*
X133644338Y-57282875D01*
X133623411Y-57277502D01*
X133605006Y-57271201D01*
X133585174Y-57262619D01*
X133536569Y-57254921D01*
X133530847Y-57253736D01*
X133497188Y-57245094D01*
X133483188Y-57241500D01*
X133483187Y-57241500D01*
X133461581Y-57241500D01*
X133442183Y-57239973D01*
X133433603Y-57238614D01*
X133420849Y-57236594D01*
X133420848Y-57236594D01*
X133371855Y-57241225D01*
X133366019Y-57241500D01*
X130424122Y-57241500D01*
X130357083Y-57221815D01*
X130336441Y-57205181D01*
X129612641Y-56481381D01*
X129579156Y-56420058D01*
X129584140Y-56350366D01*
X129626012Y-56294433D01*
X129691476Y-56270016D01*
X129700301Y-56269700D01*
X129786218Y-56269701D01*
X129871638Y-56258971D01*
X130006730Y-56203014D01*
X130053453Y-56166718D01*
X130074707Y-56150208D01*
X130074710Y-56150205D01*
X130074718Y-56150199D01*
X130550202Y-55674715D01*
X130603014Y-55606729D01*
X130658971Y-55471637D01*
X130669700Y-55386219D01*
X130669701Y-54713782D01*
X130658971Y-54628362D01*
X130603014Y-54493270D01*
X130570459Y-54451362D01*
X130550208Y-54425292D01*
X130550196Y-54425279D01*
X130074716Y-53949799D01*
X130074706Y-53949790D01*
X130007939Y-53897926D01*
X129967072Y-53841255D01*
X129963331Y-53771486D01*
X129997904Y-53710769D01*
X130007929Y-53702081D01*
X130074718Y-53650199D01*
X130550202Y-53174715D01*
X130603014Y-53106729D01*
X130658971Y-52971637D01*
X130669700Y-52886219D01*
X130669701Y-52213782D01*
X130658971Y-52128362D01*
X130603014Y-51993270D01*
X130594913Y-51982841D01*
X130550208Y-51925292D01*
X130550196Y-51925279D01*
X130074716Y-51449799D01*
X130074706Y-51449790D01*
X130006729Y-51396986D01*
X130006724Y-51396984D01*
X129871637Y-51341029D01*
X129850282Y-51338346D01*
X129786222Y-51330300D01*
X129786215Y-51330299D01*
X129113780Y-51330299D01*
X129028364Y-51341028D01*
X129028360Y-51341029D01*
X128893272Y-51396984D01*
X128825282Y-51449801D01*
X128825275Y-51449807D01*
X128487680Y-51787401D01*
X128426357Y-51820886D01*
X128356665Y-51815902D01*
X128312318Y-51787401D01*
X127974716Y-51449799D01*
X127974706Y-51449790D01*
X127906729Y-51396986D01*
X127906724Y-51396984D01*
X127771637Y-51341029D01*
X127750282Y-51338346D01*
X127686222Y-51330300D01*
X127686215Y-51330299D01*
X127013780Y-51330299D01*
X126928364Y-51341028D01*
X126928360Y-51341029D01*
X126793271Y-51396985D01*
X126793269Y-51396986D01*
X126725292Y-51449791D01*
X126725279Y-51449803D01*
X126249799Y-51925283D01*
X126249790Y-51925293D01*
X126196986Y-51993270D01*
X126164561Y-52071551D01*
X126120719Y-52125955D01*
X126054425Y-52148019D01*
X125986726Y-52130739D01*
X125939116Y-52079602D01*
X125935439Y-52071551D01*
X125903014Y-51993270D01*
X125894913Y-51982841D01*
X125850208Y-51925292D01*
X125850196Y-51925279D01*
X125374716Y-51449799D01*
X125374706Y-51449790D01*
X125306729Y-51396986D01*
X125306724Y-51396984D01*
X125171637Y-51341029D01*
X125150282Y-51338346D01*
X125086222Y-51330300D01*
X125086215Y-51330299D01*
X124413780Y-51330299D01*
X124328364Y-51341028D01*
X124328360Y-51341029D01*
X124193271Y-51396985D01*
X124193269Y-51396986D01*
X124125292Y-51449791D01*
X124125279Y-51449803D01*
X123649799Y-51925283D01*
X123649790Y-51925293D01*
X123596986Y-51993270D01*
X123541029Y-52128363D01*
X123530300Y-52213777D01*
X123530299Y-52213784D01*
X123530299Y-52886219D01*
X123541028Y-52971635D01*
X123541029Y-52971639D01*
X123596985Y-53106728D01*
X123596986Y-53106730D01*
X123649791Y-53174707D01*
X123649803Y-53174720D01*
X124125283Y-53650200D01*
X124125293Y-53650209D01*
X124178229Y-53691329D01*
X124193271Y-53703014D01*
X124328363Y-53758971D01*
X124413781Y-53769700D01*
X124987078Y-53769700D01*
X125054117Y-53789385D01*
X125074759Y-53806019D01*
X129573280Y-58304540D01*
X129583430Y-58317208D01*
X129583606Y-58317064D01*
X129588580Y-58323076D01*
X129641685Y-58372946D01*
X129663661Y-58394922D01*
X129669551Y-58399491D01*
X129673994Y-58403286D01*
X129709864Y-58436970D01*
X129709866Y-58436971D01*
X129709867Y-58436972D01*
X129728803Y-58447382D01*
X129745049Y-58458053D01*
X129762132Y-58471304D01*
X129762137Y-58471306D01*
X129807296Y-58490848D01*
X129812544Y-58493420D01*
X129844234Y-58510840D01*
X129855663Y-58517124D01*
X129871823Y-58521272D01*
X129876583Y-58522495D01*
X129894986Y-58528795D01*
X129914824Y-58537380D01*
X129951960Y-58543261D01*
X129963431Y-58545078D01*
X129969146Y-58546261D01*
X130016812Y-58558500D01*
X130038419Y-58558500D01*
X130057816Y-58560026D01*
X130079152Y-58563406D01*
X130128144Y-58558774D01*
X130133981Y-58558500D01*
X133075878Y-58558500D01*
X133142917Y-58578185D01*
X133163559Y-58594819D01*
X140433280Y-65864540D01*
X140443430Y-65877208D01*
X140443606Y-65877064D01*
X140448580Y-65883076D01*
X140501685Y-65932946D01*
X140523661Y-65954922D01*
X140529551Y-65959491D01*
X140533994Y-65963286D01*
X140569864Y-65996970D01*
X140569866Y-65996971D01*
X140569867Y-65996972D01*
X140588803Y-66007382D01*
X140605049Y-66018053D01*
X140622132Y-66031304D01*
X140622137Y-66031306D01*
X140667296Y-66050848D01*
X140672544Y-66053420D01*
X140704234Y-66070840D01*
X140715663Y-66077124D01*
X140731823Y-66081272D01*
X140736583Y-66082495D01*
X140754986Y-66088795D01*
X140774824Y-66097380D01*
X140811960Y-66103261D01*
X140823431Y-66105078D01*
X140829146Y-66106261D01*
X140876812Y-66118500D01*
X140898419Y-66118500D01*
X140917816Y-66120026D01*
X140939152Y-66123406D01*
X140988144Y-66118774D01*
X140993981Y-66118500D01*
X142199153Y-66118500D01*
X142266192Y-66138185D01*
X142300725Y-66171373D01*
X142393802Y-66304300D01*
X142555700Y-66466198D01*
X142743251Y-66597522D01*
X142743251Y-66597523D01*
X142786345Y-66617618D01*
X142838784Y-66663791D01*
X142857936Y-66730984D01*
X142837720Y-66797865D01*
X142786345Y-66842382D01*
X142743251Y-66862476D01*
X142619982Y-66948791D01*
X142555700Y-66993802D01*
X142555698Y-66993803D01*
X142555695Y-66993806D01*
X142393806Y-67155695D01*
X142393803Y-67155698D01*
X142393802Y-67155700D01*
X142311767Y-67272856D01*
X142262476Y-67343252D01*
X142262475Y-67343254D01*
X142165718Y-67550750D01*
X142165714Y-67550761D01*
X142106457Y-67771910D01*
X142106456Y-67771918D01*
X142086502Y-67999998D01*
X142086502Y-68000001D01*
X142106456Y-68228081D01*
X142106457Y-68228089D01*
X142165714Y-68449238D01*
X142165718Y-68449249D01*
X142262475Y-68656745D01*
X142262477Y-68656749D01*
X142393802Y-68844300D01*
X142555700Y-69006198D01*
X142743251Y-69137523D01*
X142786345Y-69157618D01*
X142838784Y-69203791D01*
X142857936Y-69270984D01*
X142837720Y-69337865D01*
X142786345Y-69382382D01*
X142743251Y-69402476D01*
X142618126Y-69490090D01*
X142555700Y-69533802D01*
X142555698Y-69533803D01*
X142555695Y-69533806D01*
X142393806Y-69695695D01*
X142262476Y-69883252D01*
X142262475Y-69883254D01*
X142165718Y-70090750D01*
X142165714Y-70090761D01*
X142106457Y-70311910D01*
X142106456Y-70311918D01*
X142086502Y-70539998D01*
X142086502Y-70540001D01*
X142106456Y-70768081D01*
X142106457Y-70768089D01*
X142165714Y-70989238D01*
X142165718Y-70989249D01*
X142262475Y-71196745D01*
X142262477Y-71196749D01*
X142393802Y-71384300D01*
X142555700Y-71546198D01*
X142743251Y-71677523D01*
X142868091Y-71735736D01*
X142950750Y-71774281D01*
X142950752Y-71774281D01*
X142950757Y-71774284D01*
X143171913Y-71833543D01*
X143386476Y-71852314D01*
X143451543Y-71877766D01*
X143463348Y-71888161D01*
X147780133Y-76204946D01*
X147792768Y-76219739D01*
X147801132Y-76231251D01*
X147801134Y-76231253D01*
X147853204Y-76278137D01*
X147855560Y-76280373D01*
X147871262Y-76296075D01*
X147888516Y-76310048D01*
X147890982Y-76312154D01*
X147930389Y-76347635D01*
X147943056Y-76359040D01*
X147943058Y-76359041D01*
X147955374Y-76366152D01*
X147971405Y-76377169D01*
X147982471Y-76386130D01*
X148044917Y-76417948D01*
X148047763Y-76419493D01*
X148108444Y-76454527D01*
X148121976Y-76458923D01*
X148139949Y-76466368D01*
X148152630Y-76472830D01*
X148220338Y-76490971D01*
X148223417Y-76491884D01*
X148290072Y-76513542D01*
X148301642Y-76514757D01*
X148304222Y-76515029D01*
X148323360Y-76518576D01*
X148337097Y-76522257D01*
X148337096Y-76522257D01*
X148342481Y-76522539D01*
X148407084Y-76525924D01*
X148410294Y-76526177D01*
X148432390Y-76528500D01*
X148454596Y-76528500D01*
X148457839Y-76528584D01*
X148527810Y-76532252D01*
X148541857Y-76530027D01*
X148561257Y-76528500D01*
X150026640Y-76528500D01*
X150093679Y-76548185D01*
X150114321Y-76564819D01*
X150175700Y-76626198D01*
X150363251Y-76757523D01*
X150406345Y-76777618D01*
X150458784Y-76823791D01*
X150477936Y-76890984D01*
X150457720Y-76957865D01*
X150406345Y-77002382D01*
X150363251Y-77022476D01*
X150238126Y-77110090D01*
X150175700Y-77153802D01*
X150175698Y-77153803D01*
X150175695Y-77153806D01*
X150013806Y-77315695D01*
X150013803Y-77315698D01*
X150013802Y-77315700D01*
X149964615Y-77385946D01*
X149882476Y-77503252D01*
X149882475Y-77503254D01*
X149785718Y-77710750D01*
X149785714Y-77710761D01*
X149726457Y-77931910D01*
X149726456Y-77931918D01*
X149706502Y-78159998D01*
X149706502Y-78160001D01*
X149726456Y-78388081D01*
X149726457Y-78388089D01*
X149785714Y-78609238D01*
X149785718Y-78609249D01*
X149845155Y-78736711D01*
X149882477Y-78816749D01*
X150013802Y-79004300D01*
X150175700Y-79166198D01*
X150355418Y-79292038D01*
X150363251Y-79297523D01*
X150406345Y-79317618D01*
X150458784Y-79363791D01*
X150477936Y-79430984D01*
X150457720Y-79497865D01*
X150406345Y-79542382D01*
X150363251Y-79562476D01*
X150238126Y-79650090D01*
X150175700Y-79693802D01*
X150175698Y-79693803D01*
X150175695Y-79693806D01*
X150013806Y-79855695D01*
X149882476Y-80043252D01*
X149882475Y-80043254D01*
X149785718Y-80250750D01*
X149785714Y-80250761D01*
X149726457Y-80471910D01*
X149726456Y-80471918D01*
X149706502Y-80699998D01*
X149706502Y-80700001D01*
X149726456Y-80928081D01*
X149726457Y-80928089D01*
X149785714Y-81149238D01*
X149785718Y-81149249D01*
X149882475Y-81356745D01*
X149882477Y-81356749D01*
X150013802Y-81544300D01*
X150175700Y-81706198D01*
X150363251Y-81837523D01*
X150406345Y-81857618D01*
X150458784Y-81903791D01*
X150477936Y-81970984D01*
X150457720Y-82037865D01*
X150406345Y-82082382D01*
X150363251Y-82102476D01*
X150238126Y-82190090D01*
X150175700Y-82233802D01*
X150175698Y-82233803D01*
X150175695Y-82233806D01*
X150013806Y-82395695D01*
X150013803Y-82395698D01*
X150013802Y-82395700D01*
X149966287Y-82463558D01*
X149882476Y-82583252D01*
X149882475Y-82583254D01*
X149785718Y-82790750D01*
X149785714Y-82790761D01*
X149726457Y-83011910D01*
X149726456Y-83011918D01*
X149706502Y-83239998D01*
X149706502Y-83240001D01*
X149726456Y-83468081D01*
X149726457Y-83468089D01*
X149785714Y-83689238D01*
X149785718Y-83689249D01*
X149877033Y-83885074D01*
X149882477Y-83896749D01*
X150013802Y-84084300D01*
X150175700Y-84246198D01*
X150314310Y-84343254D01*
X150363251Y-84377523D01*
X150406345Y-84397618D01*
X150458784Y-84443791D01*
X150477936Y-84510984D01*
X150457720Y-84577865D01*
X150406345Y-84622382D01*
X150363251Y-84642476D01*
X150238126Y-84730090D01*
X150175700Y-84773802D01*
X150175698Y-84773803D01*
X150175695Y-84773806D01*
X150013806Y-84935695D01*
X149882476Y-85123252D01*
X149882475Y-85123254D01*
X149785718Y-85330750D01*
X149785714Y-85330761D01*
X149726457Y-85551910D01*
X149726456Y-85551918D01*
X149706502Y-85779998D01*
X149706502Y-85780001D01*
X149726456Y-86008081D01*
X149726457Y-86008089D01*
X149785714Y-86229238D01*
X149785718Y-86229249D01*
X149815699Y-86293543D01*
X149882477Y-86436749D01*
X150013802Y-86624300D01*
X150175700Y-86786198D01*
X150363251Y-86917522D01*
X150363251Y-86917523D01*
X150406345Y-86937618D01*
X150458784Y-86983791D01*
X150477936Y-87050984D01*
X150457720Y-87117865D01*
X150406345Y-87162382D01*
X150363251Y-87182476D01*
X150238126Y-87270090D01*
X150175700Y-87313802D01*
X150175698Y-87313803D01*
X150175695Y-87313806D01*
X150013806Y-87475695D01*
X149882476Y-87663252D01*
X149882475Y-87663254D01*
X149785718Y-87870750D01*
X149785714Y-87870761D01*
X149726457Y-88091910D01*
X149726456Y-88091918D01*
X149706502Y-88319998D01*
X149706502Y-88320001D01*
X149726456Y-88548081D01*
X149726457Y-88548089D01*
X149785714Y-88769238D01*
X149785718Y-88769249D01*
X149882475Y-88976745D01*
X149882477Y-88976749D01*
X150013802Y-89164300D01*
X150175700Y-89326198D01*
X150363251Y-89457523D01*
X150488091Y-89515736D01*
X150570750Y-89554281D01*
X150570752Y-89554281D01*
X150570757Y-89554284D01*
X150791913Y-89613543D01*
X150954832Y-89627796D01*
X151019998Y-89633498D01*
X151020000Y-89633498D01*
X151020002Y-89633498D01*
X151077021Y-89628509D01*
X151248087Y-89613543D01*
X151469243Y-89554284D01*
X151676749Y-89457523D01*
X151864300Y-89326198D01*
X152026198Y-89164300D01*
X152157523Y-88976749D01*
X152254284Y-88769243D01*
X152313543Y-88548087D01*
X152333498Y-88320000D01*
X152313543Y-88091913D01*
X152254284Y-87870757D01*
X152157523Y-87663251D01*
X152026198Y-87475700D01*
X151864300Y-87313802D01*
X151676749Y-87182477D01*
X151633655Y-87162382D01*
X151581215Y-87116210D01*
X151562063Y-87049017D01*
X151582278Y-86982136D01*
X151633655Y-86937618D01*
X151636882Y-86936112D01*
X151676749Y-86917523D01*
X151864300Y-86786198D01*
X152026198Y-86624300D01*
X152157523Y-86436749D01*
X152254284Y-86229243D01*
X152313543Y-86008087D01*
X152333498Y-85780000D01*
X152313543Y-85551913D01*
X152254284Y-85330757D01*
X152157523Y-85123251D01*
X152026198Y-84935700D01*
X151864300Y-84773802D01*
X151676749Y-84642477D01*
X151633655Y-84622382D01*
X151581215Y-84576210D01*
X151562063Y-84509017D01*
X151582278Y-84442136D01*
X151633655Y-84397618D01*
X151636882Y-84396112D01*
X151676749Y-84377523D01*
X151864300Y-84246198D01*
X152026198Y-84084300D01*
X152157523Y-83896749D01*
X152254284Y-83689243D01*
X152313543Y-83468087D01*
X152333498Y-83240000D01*
X152313543Y-83011913D01*
X152254284Y-82790757D01*
X152231284Y-82741434D01*
X152179204Y-82629746D01*
X152157523Y-82583251D01*
X152026198Y-82395700D01*
X151864300Y-82233802D01*
X151676749Y-82102477D01*
X151633655Y-82082382D01*
X151581215Y-82036210D01*
X151562063Y-81969017D01*
X151582278Y-81902136D01*
X151633655Y-81857618D01*
X151636882Y-81856112D01*
X151676749Y-81837523D01*
X151864300Y-81706198D01*
X152026198Y-81544300D01*
X152157523Y-81356749D01*
X152254284Y-81149243D01*
X152313543Y-80928087D01*
X152333498Y-80700000D01*
X152313543Y-80471913D01*
X152254284Y-80250757D01*
X152157523Y-80043251D01*
X152026198Y-79855700D01*
X151864300Y-79693802D01*
X151676749Y-79562477D01*
X151633655Y-79542382D01*
X151581215Y-79496210D01*
X151562063Y-79429017D01*
X151582278Y-79362136D01*
X151633655Y-79317618D01*
X151636882Y-79316112D01*
X151676749Y-79297523D01*
X151864300Y-79166198D01*
X152026198Y-79004300D01*
X152157523Y-78816749D01*
X152254284Y-78609243D01*
X152313543Y-78388087D01*
X152333498Y-78160000D01*
X152313543Y-77931913D01*
X152254284Y-77710757D01*
X152234328Y-77667962D01*
X152161720Y-77512252D01*
X152157523Y-77503251D01*
X152026198Y-77315700D01*
X151864300Y-77153802D01*
X151676749Y-77022477D01*
X151640266Y-77005465D01*
X151633655Y-77002382D01*
X151581215Y-76956210D01*
X151562063Y-76889017D01*
X151582278Y-76822136D01*
X151633655Y-76777618D01*
X151636882Y-76776112D01*
X151676749Y-76757523D01*
X151864300Y-76626198D01*
X152026198Y-76464300D01*
X152157523Y-76276749D01*
X152254284Y-76069243D01*
X152313543Y-75848087D01*
X152333498Y-75620000D01*
X152313543Y-75391913D01*
X152254284Y-75170757D01*
X152250743Y-75163164D01*
X152173839Y-74998242D01*
X152157523Y-74963251D01*
X152026198Y-74775700D01*
X151864300Y-74613802D01*
X151676749Y-74482477D01*
X151633655Y-74462382D01*
X151581215Y-74416210D01*
X151562063Y-74349017D01*
X151582278Y-74282136D01*
X151633655Y-74237618D01*
X151636882Y-74236112D01*
X151676749Y-74217523D01*
X151864300Y-74086198D01*
X152026198Y-73924300D01*
X152157523Y-73736749D01*
X152254284Y-73529243D01*
X152313543Y-73308087D01*
X152333498Y-73080000D01*
X152313543Y-72851913D01*
X152254284Y-72630757D01*
X152157523Y-72423251D01*
X152026198Y-72235700D01*
X151864300Y-72073802D01*
X151676749Y-71942477D01*
X151676745Y-71942475D01*
X151469249Y-71845718D01*
X151469238Y-71845714D01*
X151248089Y-71786457D01*
X151248081Y-71786456D01*
X151020002Y-71766502D01*
X151019998Y-71766502D01*
X150791918Y-71786456D01*
X150791910Y-71786457D01*
X150570761Y-71845714D01*
X150570750Y-71845718D01*
X150363254Y-71942475D01*
X150363252Y-71942476D01*
X150363249Y-71942477D01*
X150363251Y-71942477D01*
X150175700Y-72073802D01*
X150175698Y-72073803D01*
X150175695Y-72073806D01*
X150013806Y-72235695D01*
X149882476Y-72423252D01*
X149882475Y-72423254D01*
X149785718Y-72630750D01*
X149785714Y-72630761D01*
X149726457Y-72851910D01*
X149726456Y-72851918D01*
X149706502Y-73079998D01*
X149706502Y-73080001D01*
X149726456Y-73308081D01*
X149726457Y-73308089D01*
X149785714Y-73529238D01*
X149785718Y-73529249D01*
X149882475Y-73736745D01*
X149882477Y-73736749D01*
X150013802Y-73924300D01*
X150175700Y-74086198D01*
X150363251Y-74217523D01*
X150406345Y-74237618D01*
X150458784Y-74283791D01*
X150477936Y-74350984D01*
X150457720Y-74417865D01*
X150406345Y-74462382D01*
X150363251Y-74482476D01*
X150241472Y-74567748D01*
X150175700Y-74613802D01*
X150175698Y-74613803D01*
X150175695Y-74613806D01*
X150114321Y-74675181D01*
X150052998Y-74708666D01*
X150026640Y-74711500D01*
X148907675Y-74711500D01*
X148840636Y-74691815D01*
X148819994Y-74675181D01*
X144748161Y-70603348D01*
X144714676Y-70542025D01*
X144712315Y-70526483D01*
X144693543Y-70311913D01*
X144634284Y-70090757D01*
X144537523Y-69883251D01*
X144406198Y-69695700D01*
X144244300Y-69533802D01*
X144056749Y-69402477D01*
X144013655Y-69382382D01*
X143961215Y-69336210D01*
X143942063Y-69269017D01*
X143962278Y-69202136D01*
X144013655Y-69157618D01*
X144016882Y-69156112D01*
X144056749Y-69137523D01*
X144244300Y-69006198D01*
X144406198Y-68844300D01*
X144537523Y-68656749D01*
X144634284Y-68449243D01*
X144693543Y-68228087D01*
X144713498Y-68000001D01*
X149706502Y-68000001D01*
X149726456Y-68228081D01*
X149726457Y-68228089D01*
X149785714Y-68449238D01*
X149785718Y-68449249D01*
X149882475Y-68656745D01*
X149882477Y-68656749D01*
X150013802Y-68844300D01*
X150175700Y-69006198D01*
X150363251Y-69137523D01*
X150488091Y-69195736D01*
X150570750Y-69234281D01*
X150570752Y-69234281D01*
X150570757Y-69234284D01*
X150791913Y-69293543D01*
X150954832Y-69307796D01*
X151019998Y-69313498D01*
X151020000Y-69313498D01*
X151020002Y-69313498D01*
X151077021Y-69308509D01*
X151248087Y-69293543D01*
X151469243Y-69234284D01*
X151676749Y-69137523D01*
X151864300Y-69006198D01*
X152026198Y-68844300D01*
X152157523Y-68656749D01*
X152254284Y-68449243D01*
X152313543Y-68228087D01*
X152333498Y-68000000D01*
X152313543Y-67771913D01*
X152254284Y-67550757D01*
X152253158Y-67548343D01*
X152172527Y-67375428D01*
X152157523Y-67343251D01*
X152026198Y-67155700D01*
X151864300Y-66993802D01*
X151676749Y-66862477D01*
X151633655Y-66842382D01*
X151581215Y-66796210D01*
X151562063Y-66729017D01*
X151582278Y-66662136D01*
X151633655Y-66617618D01*
X151636882Y-66616112D01*
X151676749Y-66597523D01*
X151864300Y-66466198D01*
X152026198Y-66304300D01*
X152157523Y-66116749D01*
X152254284Y-65909243D01*
X152313543Y-65688087D01*
X152333498Y-65460000D01*
X152313543Y-65231913D01*
X152254284Y-65010757D01*
X152157523Y-64803251D01*
X152026198Y-64615700D01*
X151864300Y-64453802D01*
X151676749Y-64322477D01*
X151633655Y-64302382D01*
X151581215Y-64256210D01*
X151562063Y-64189017D01*
X151582278Y-64122136D01*
X151633655Y-64077618D01*
X151636882Y-64076112D01*
X151676749Y-64057523D01*
X151864300Y-63926198D01*
X152026198Y-63764300D01*
X152157523Y-63576749D01*
X152254284Y-63369243D01*
X152313543Y-63148087D01*
X152333498Y-62920000D01*
X152313543Y-62691913D01*
X152254284Y-62470757D01*
X152157523Y-62263251D01*
X152026198Y-62075700D01*
X151864300Y-61913802D01*
X151676749Y-61782477D01*
X151676743Y-61782474D01*
X151633653Y-61762380D01*
X151581214Y-61716207D01*
X151562063Y-61649014D01*
X151582280Y-61582133D01*
X151633654Y-61537618D01*
X151676749Y-61517523D01*
X151864300Y-61386198D01*
X152026198Y-61224300D01*
X152157523Y-61036749D01*
X152254284Y-60829243D01*
X152313543Y-60608087D01*
X152333026Y-60385393D01*
X152333498Y-60380001D01*
X152333498Y-60379998D01*
X152314302Y-60160589D01*
X152313543Y-60151913D01*
X152254284Y-59930757D01*
X152157523Y-59723251D01*
X152026198Y-59535700D01*
X151864300Y-59373802D01*
X151676749Y-59242477D01*
X151676743Y-59242474D01*
X151633653Y-59222380D01*
X151581214Y-59176207D01*
X151562063Y-59109014D01*
X151582280Y-59042133D01*
X151633654Y-58997618D01*
X151676749Y-58977523D01*
X151864300Y-58846198D01*
X152026198Y-58684300D01*
X152157523Y-58496749D01*
X152254284Y-58289243D01*
X152313543Y-58068087D01*
X152333498Y-57840000D01*
X152313543Y-57611913D01*
X152254284Y-57390757D01*
X152234308Y-57347919D01*
X152184685Y-57241500D01*
X152157523Y-57183251D01*
X152026198Y-56995700D01*
X151864300Y-56833802D01*
X151676749Y-56702477D01*
X151676743Y-56702474D01*
X151633653Y-56682380D01*
X151581214Y-56636207D01*
X151562063Y-56569014D01*
X151582280Y-56502133D01*
X151633654Y-56457618D01*
X151676749Y-56437523D01*
X151864300Y-56306198D01*
X152026198Y-56144300D01*
X152157523Y-55956749D01*
X152254284Y-55749243D01*
X152313543Y-55528087D01*
X152333498Y-55300000D01*
X152313543Y-55071913D01*
X152254284Y-54850757D01*
X152157523Y-54643251D01*
X152026198Y-54455700D01*
X151864300Y-54293802D01*
X151676749Y-54162477D01*
X151661032Y-54155148D01*
X151469249Y-54065718D01*
X151469238Y-54065714D01*
X151248089Y-54006457D01*
X151248081Y-54006456D01*
X151020002Y-53986502D01*
X151019998Y-53986502D01*
X150791918Y-54006456D01*
X150791910Y-54006457D01*
X150570761Y-54065714D01*
X150570750Y-54065718D01*
X150363254Y-54162475D01*
X150363252Y-54162476D01*
X150363249Y-54162477D01*
X150363251Y-54162477D01*
X150175700Y-54293802D01*
X150175698Y-54293803D01*
X150175695Y-54293806D01*
X150013806Y-54455695D01*
X150013803Y-54455698D01*
X150013802Y-54455700D01*
X149973415Y-54513379D01*
X149882476Y-54643252D01*
X149882475Y-54643254D01*
X149785718Y-54850750D01*
X149785714Y-54850761D01*
X149726457Y-55071910D01*
X149726456Y-55071918D01*
X149706502Y-55299998D01*
X149706502Y-55300001D01*
X149726456Y-55528081D01*
X149726457Y-55528089D01*
X149785714Y-55749238D01*
X149785718Y-55749249D01*
X149882475Y-55956745D01*
X149882477Y-55956749D01*
X150013802Y-56144300D01*
X150175700Y-56306198D01*
X150363251Y-56437523D01*
X150406345Y-56457618D01*
X150458783Y-56503788D01*
X150477936Y-56570981D01*
X150457721Y-56637863D01*
X150406347Y-56682380D01*
X150363252Y-56702476D01*
X150363249Y-56702477D01*
X150363251Y-56702477D01*
X150175700Y-56833802D01*
X150175698Y-56833803D01*
X150175695Y-56833806D01*
X150013806Y-56995695D01*
X149882476Y-57183252D01*
X149882475Y-57183254D01*
X149785718Y-57390750D01*
X149785714Y-57390761D01*
X149726457Y-57611910D01*
X149726456Y-57611918D01*
X149706502Y-57839998D01*
X149706502Y-57840001D01*
X149726456Y-58068081D01*
X149726457Y-58068089D01*
X149785714Y-58289238D01*
X149785718Y-58289249D01*
X149864437Y-58458062D01*
X149882477Y-58496749D01*
X150013802Y-58684300D01*
X150175700Y-58846198D01*
X150363251Y-58977523D01*
X150406345Y-58997618D01*
X150458783Y-59043788D01*
X150477936Y-59110981D01*
X150457721Y-59177863D01*
X150406347Y-59222380D01*
X150363252Y-59242476D01*
X150363249Y-59242477D01*
X150363251Y-59242477D01*
X150175700Y-59373802D01*
X150175698Y-59373803D01*
X150175695Y-59373806D01*
X150013806Y-59535695D01*
X150013803Y-59535698D01*
X150013802Y-59535700D01*
X149961150Y-59610895D01*
X149882476Y-59723252D01*
X149882475Y-59723254D01*
X149785718Y-59930750D01*
X149785714Y-59930761D01*
X149726457Y-60151910D01*
X149726456Y-60151918D01*
X149706502Y-60379998D01*
X149706502Y-60380001D01*
X149726456Y-60608081D01*
X149726457Y-60608089D01*
X149785714Y-60829238D01*
X149785718Y-60829249D01*
X149855858Y-60979665D01*
X149882477Y-61036749D01*
X150013802Y-61224300D01*
X150175700Y-61386198D01*
X150363251Y-61517523D01*
X150406345Y-61537618D01*
X150458783Y-61583788D01*
X150477936Y-61650981D01*
X150457721Y-61717863D01*
X150406347Y-61762380D01*
X150363252Y-61782476D01*
X150363249Y-61782477D01*
X150363251Y-61782477D01*
X150175700Y-61913802D01*
X150175698Y-61913803D01*
X150175695Y-61913806D01*
X150013806Y-62075695D01*
X150013803Y-62075698D01*
X150013802Y-62075700D01*
X149931767Y-62192856D01*
X149882476Y-62263252D01*
X149882475Y-62263254D01*
X149785718Y-62470750D01*
X149785714Y-62470761D01*
X149726457Y-62691910D01*
X149726456Y-62691918D01*
X149706502Y-62919998D01*
X149706502Y-62920001D01*
X149726456Y-63148081D01*
X149726457Y-63148089D01*
X149785714Y-63369238D01*
X149785718Y-63369249D01*
X149882475Y-63576745D01*
X149882477Y-63576749D01*
X150013802Y-63764300D01*
X150175700Y-63926198D01*
X150363251Y-64057523D01*
X150406345Y-64077618D01*
X150458783Y-64123788D01*
X150477936Y-64190981D01*
X150457721Y-64257863D01*
X150406347Y-64302380D01*
X150363252Y-64322476D01*
X150363249Y-64322477D01*
X150363251Y-64322477D01*
X150175700Y-64453802D01*
X150175698Y-64453803D01*
X150175695Y-64453806D01*
X150013806Y-64615695D01*
X149882476Y-64803252D01*
X149882475Y-64803254D01*
X149785718Y-65010750D01*
X149785714Y-65010761D01*
X149726457Y-65231910D01*
X149726456Y-65231918D01*
X149706502Y-65459998D01*
X149706502Y-65460001D01*
X149726456Y-65688081D01*
X149726457Y-65688089D01*
X149785714Y-65909238D01*
X149785718Y-65909249D01*
X149873445Y-66097380D01*
X149882477Y-66116749D01*
X150013802Y-66304300D01*
X150175700Y-66466198D01*
X150363251Y-66597523D01*
X150406345Y-66617618D01*
X150458784Y-66663791D01*
X150477936Y-66730984D01*
X150457720Y-66797865D01*
X150406345Y-66842382D01*
X150363251Y-66862476D01*
X150239982Y-66948791D01*
X150175700Y-66993802D01*
X150175698Y-66993803D01*
X150175695Y-66993806D01*
X150013806Y-67155695D01*
X150013803Y-67155698D01*
X150013802Y-67155700D01*
X149931767Y-67272856D01*
X149882476Y-67343252D01*
X149882475Y-67343254D01*
X149785718Y-67550750D01*
X149785714Y-67550761D01*
X149726457Y-67771910D01*
X149726456Y-67771918D01*
X149706502Y-67999998D01*
X149706502Y-68000001D01*
X144713498Y-68000001D01*
X144713498Y-68000000D01*
X144693543Y-67771913D01*
X144634284Y-67550757D01*
X144633158Y-67548343D01*
X144552527Y-67375428D01*
X144537523Y-67343251D01*
X144406198Y-67155700D01*
X144244300Y-66993802D01*
X144056749Y-66862477D01*
X144056743Y-66862474D01*
X144013653Y-66842380D01*
X143961214Y-66796207D01*
X143942063Y-66729014D01*
X143962280Y-66662133D01*
X144013654Y-66617618D01*
X144056749Y-66597523D01*
X144244300Y-66466198D01*
X144406198Y-66304300D01*
X144537523Y-66116749D01*
X144634284Y-65909243D01*
X144693543Y-65688087D01*
X144713498Y-65460000D01*
X144693543Y-65231913D01*
X144634284Y-65010757D01*
X144537523Y-64803251D01*
X144406198Y-64615700D01*
X144244300Y-64453802D01*
X144056749Y-64322477D01*
X144056743Y-64322474D01*
X144013653Y-64302380D01*
X143961214Y-64256207D01*
X143942063Y-64189014D01*
X143962280Y-64122133D01*
X144013654Y-64077618D01*
X144056749Y-64057523D01*
X144244300Y-63926198D01*
X144406198Y-63764300D01*
X144537523Y-63576749D01*
X144634284Y-63369243D01*
X144693543Y-63148087D01*
X144713498Y-62920000D01*
X144693543Y-62691913D01*
X144634284Y-62470757D01*
X144537523Y-62263251D01*
X144406198Y-62075700D01*
X144244300Y-61913802D01*
X144056749Y-61782477D01*
X144056743Y-61782474D01*
X144013653Y-61762380D01*
X143961214Y-61716207D01*
X143942063Y-61649014D01*
X143962280Y-61582133D01*
X144013654Y-61537618D01*
X144056749Y-61517523D01*
X144244300Y-61386198D01*
X144406198Y-61224300D01*
X144537523Y-61036749D01*
X144634284Y-60829243D01*
X144693543Y-60608087D01*
X144713026Y-60385393D01*
X144713498Y-60380001D01*
X144713498Y-60379998D01*
X144694302Y-60160589D01*
X144693543Y-60151913D01*
X144634284Y-59930757D01*
X144537523Y-59723251D01*
X144406198Y-59535700D01*
X144244300Y-59373802D01*
X144056749Y-59242477D01*
X144056743Y-59242474D01*
X144013653Y-59222380D01*
X143961214Y-59176207D01*
X143942063Y-59109014D01*
X143962280Y-59042133D01*
X144013654Y-58997618D01*
X144056749Y-58977523D01*
X144244300Y-58846198D01*
X144406198Y-58684300D01*
X144537523Y-58496749D01*
X144634284Y-58289243D01*
X144693543Y-58068087D01*
X144713498Y-57840000D01*
X144693543Y-57611913D01*
X144634284Y-57390757D01*
X144614308Y-57347919D01*
X144564685Y-57241500D01*
X144537523Y-57183251D01*
X144406198Y-56995700D01*
X144244300Y-56833802D01*
X144236627Y-56828429D01*
X144193006Y-56773853D01*
X144185814Y-56704355D01*
X144217338Y-56642001D01*
X144277568Y-56606588D01*
X144294489Y-56603570D01*
X144309201Y-56601989D01*
X144446204Y-56550889D01*
X144563261Y-56463261D01*
X144650889Y-56346204D01*
X144701989Y-56209201D01*
X144708030Y-56153013D01*
X144708499Y-56148654D01*
X144708500Y-56148637D01*
X144708500Y-54451362D01*
X144708499Y-54451345D01*
X144705157Y-54420270D01*
X144701989Y-54390799D01*
X144701930Y-54390641D01*
X144668396Y-54300733D01*
X144650889Y-54253796D01*
X144563261Y-54136739D01*
X144446204Y-54049111D01*
X144309203Y-53998011D01*
X144248654Y-53991500D01*
X144248638Y-53991500D01*
X142551362Y-53991500D01*
X142551345Y-53991500D01*
X142490797Y-53998011D01*
X142490795Y-53998011D01*
X142353795Y-54049111D01*
X142236739Y-54136739D01*
X142149111Y-54253795D01*
X142098011Y-54390795D01*
X142098011Y-54390797D01*
X142091500Y-54451345D01*
X142091500Y-56148654D01*
X142098011Y-56209202D01*
X142098011Y-56209204D01*
X142134189Y-56306198D01*
X142149111Y-56346204D01*
X142236739Y-56463261D01*
X142353796Y-56550889D01*
X142453110Y-56587931D01*
X142490793Y-56601987D01*
X142490799Y-56601989D01*
X142505499Y-56603569D01*
X142570048Y-56630305D01*
X142609897Y-56687696D01*
X142612393Y-56757521D01*
X142576742Y-56817611D01*
X142563377Y-56828425D01*
X142563371Y-56828431D01*
X142555696Y-56833805D01*
X142393806Y-56995695D01*
X142262476Y-57183252D01*
X142262475Y-57183254D01*
X142165718Y-57390750D01*
X142165714Y-57390761D01*
X142106457Y-57611910D01*
X142106456Y-57611918D01*
X142086502Y-57839998D01*
X142086502Y-57840001D01*
X142106456Y-58068081D01*
X142106457Y-58068089D01*
X142165714Y-58289238D01*
X142165718Y-58289249D01*
X142244437Y-58458062D01*
X142262477Y-58496749D01*
X142393802Y-58684300D01*
X142555700Y-58846198D01*
X142743250Y-58977522D01*
X142743251Y-58977523D01*
X142786345Y-58997618D01*
X142838784Y-59043791D01*
X142857936Y-59110984D01*
X142837720Y-59177865D01*
X142786345Y-59222382D01*
X142743251Y-59242476D01*
X142618126Y-59330090D01*
X142555700Y-59373802D01*
X142555698Y-59373803D01*
X142555695Y-59373806D01*
X142393806Y-59535695D01*
X142393803Y-59535698D01*
X142393802Y-59535700D01*
X142341150Y-59610895D01*
X142262476Y-59723252D01*
X142262475Y-59723254D01*
X142165718Y-59930750D01*
X142165714Y-59930761D01*
X142106457Y-60151910D01*
X142106456Y-60151918D01*
X142086030Y-60385393D01*
X142083766Y-60385195D01*
X142066817Y-60442919D01*
X142014013Y-60488674D01*
X141944855Y-60498618D01*
X141881299Y-60469593D01*
X141874821Y-60463561D01*
X141854819Y-60443559D01*
X141821334Y-60382236D01*
X141818500Y-60355878D01*
X141818500Y-52036387D01*
X141820282Y-52020249D01*
X141820054Y-52020228D01*
X141820788Y-52012465D01*
X141818500Y-51939657D01*
X141818500Y-51908573D01*
X141818500Y-51908568D01*
X141817566Y-51901175D01*
X141817107Y-51895347D01*
X141815562Y-51846169D01*
X141809536Y-51825428D01*
X141805590Y-51806377D01*
X141802882Y-51784936D01*
X141784763Y-51739172D01*
X141782876Y-51733665D01*
X141769145Y-51686400D01*
X141758148Y-51667807D01*
X141749591Y-51650340D01*
X141741635Y-51630244D01*
X141712705Y-51590425D01*
X141709495Y-51585539D01*
X141684453Y-51543195D01*
X141684452Y-51543193D01*
X141684450Y-51543191D01*
X141684447Y-51543187D01*
X141669178Y-51527918D01*
X141656541Y-51513122D01*
X141643843Y-51495644D01*
X141643840Y-51495641D01*
X141605914Y-51464267D01*
X141601592Y-51460333D01*
X136941265Y-46800005D01*
X145586673Y-46800005D01*
X145605948Y-47032622D01*
X145663251Y-47258907D01*
X145757015Y-47472668D01*
X145884686Y-47668084D01*
X145971856Y-47762775D01*
X146002779Y-47825429D01*
X145994919Y-47894855D01*
X145950772Y-47949011D01*
X145923963Y-47962939D01*
X145853794Y-47989111D01*
X145736739Y-48076739D01*
X145649111Y-48193795D01*
X145598011Y-48330795D01*
X145598011Y-48330797D01*
X145591500Y-48391345D01*
X145591500Y-50288654D01*
X145598011Y-50349202D01*
X145598011Y-50349204D01*
X145649110Y-50486204D01*
X145649111Y-50486204D01*
X145736739Y-50603261D01*
X145853796Y-50690889D01*
X145990799Y-50741989D01*
X146018050Y-50744918D01*
X146051345Y-50748499D01*
X146051362Y-50748500D01*
X147948638Y-50748500D01*
X147948654Y-50748499D01*
X147975692Y-50745591D01*
X148009201Y-50741989D01*
X148146204Y-50690889D01*
X148263261Y-50603261D01*
X148350889Y-50486204D01*
X148401989Y-50349201D01*
X148405591Y-50315692D01*
X148408499Y-50288654D01*
X148408500Y-50288637D01*
X148408500Y-48391362D01*
X148408499Y-48391345D01*
X148402978Y-48340000D01*
X148401989Y-48330799D01*
X148398359Y-48321067D01*
X148353122Y-48199784D01*
X148350889Y-48193796D01*
X148263261Y-48076739D01*
X148146204Y-47989111D01*
X148076037Y-47962939D01*
X148020104Y-47921067D01*
X147995688Y-47855602D01*
X148010541Y-47787329D01*
X148028138Y-47762780D01*
X148115314Y-47668083D01*
X148242984Y-47472669D01*
X148336749Y-47258907D01*
X148394051Y-47032626D01*
X148413327Y-46800000D01*
X148405395Y-46704281D01*
X148394051Y-46567377D01*
X148394051Y-46567374D01*
X148336749Y-46341093D01*
X148242984Y-46127331D01*
X148115314Y-45931917D01*
X148115313Y-45931915D01*
X147957223Y-45760185D01*
X147957222Y-45760184D01*
X147957220Y-45760182D01*
X147773017Y-45616810D01*
X147773015Y-45616809D01*
X147773014Y-45616808D01*
X147773011Y-45616806D01*
X147567733Y-45505716D01*
X147567730Y-45505715D01*
X147567727Y-45505713D01*
X147567721Y-45505711D01*
X147567719Y-45505710D01*
X147346954Y-45429920D01*
X147174271Y-45401105D01*
X147116712Y-45391500D01*
X146883288Y-45391500D01*
X146837240Y-45399184D01*
X146653045Y-45429920D01*
X146432280Y-45505710D01*
X146432266Y-45505716D01*
X146226988Y-45616806D01*
X146226985Y-45616808D01*
X146042781Y-45760181D01*
X146042776Y-45760185D01*
X145884686Y-45931915D01*
X145757015Y-46127331D01*
X145663251Y-46341092D01*
X145605948Y-46567377D01*
X145586673Y-46799994D01*
X145586673Y-46800005D01*
X136941265Y-46800005D01*
X135611261Y-45470001D01*
X138336502Y-45470001D01*
X138356456Y-45698081D01*
X138356457Y-45698089D01*
X138415714Y-45919238D01*
X138415718Y-45919249D01*
X138512475Y-46126745D01*
X138512477Y-46126749D01*
X138643802Y-46314300D01*
X138805700Y-46476198D01*
X138993251Y-46607523D01*
X139118091Y-46665736D01*
X139200750Y-46704281D01*
X139200752Y-46704281D01*
X139200757Y-46704284D01*
X139421913Y-46763543D01*
X139584832Y-46777796D01*
X139649998Y-46783498D01*
X139650000Y-46783498D01*
X139650002Y-46783498D01*
X139707021Y-46778509D01*
X139878087Y-46763543D01*
X140099243Y-46704284D01*
X140306749Y-46607523D01*
X140494300Y-46476198D01*
X140656198Y-46314300D01*
X140787523Y-46126749D01*
X140884284Y-45919243D01*
X140943543Y-45698087D01*
X140963498Y-45470000D01*
X140959991Y-45429920D01*
X140943543Y-45241918D01*
X140943543Y-45241913D01*
X140884284Y-45020757D01*
X140872529Y-44995549D01*
X140833036Y-44910854D01*
X140787523Y-44813251D01*
X140656198Y-44625700D01*
X140494300Y-44463802D01*
X140306749Y-44332477D01*
X140306745Y-44332475D01*
X140099249Y-44235718D01*
X140099238Y-44235714D01*
X139878089Y-44176457D01*
X139878081Y-44176456D01*
X139650002Y-44156502D01*
X139649998Y-44156502D01*
X139421918Y-44176456D01*
X139421910Y-44176457D01*
X139200761Y-44235714D01*
X139200750Y-44235718D01*
X138993254Y-44332475D01*
X138993252Y-44332476D01*
X138993249Y-44332477D01*
X138993251Y-44332477D01*
X138805700Y-44463802D01*
X138805698Y-44463803D01*
X138805695Y-44463806D01*
X138643806Y-44625695D01*
X138512476Y-44813252D01*
X138512475Y-44813254D01*
X138415718Y-45020750D01*
X138415714Y-45020761D01*
X138356457Y-45241910D01*
X138356456Y-45241918D01*
X138336502Y-45469998D01*
X138336502Y-45470001D01*
X135611261Y-45470001D01*
X135256717Y-45115457D01*
X135246564Y-45102785D01*
X135246388Y-45102931D01*
X135241419Y-45096926D01*
X135241416Y-45096920D01*
X135215754Y-45072822D01*
X135188315Y-45047054D01*
X135166333Y-45025072D01*
X135160439Y-45020501D01*
X135156002Y-45016711D01*
X135120133Y-44983028D01*
X135120131Y-44983026D01*
X135101200Y-44972619D01*
X135084948Y-44961944D01*
X135067868Y-44948696D01*
X135067864Y-44948694D01*
X135022702Y-44929150D01*
X135017455Y-44926580D01*
X134974337Y-44902875D01*
X134974338Y-44902875D01*
X134953411Y-44897502D01*
X134935006Y-44891201D01*
X134915174Y-44882619D01*
X134866569Y-44874921D01*
X134860847Y-44873736D01*
X134824627Y-44864437D01*
X134813188Y-44861500D01*
X134813187Y-44861500D01*
X134791581Y-44861500D01*
X134772183Y-44859973D01*
X134763603Y-44858614D01*
X134750849Y-44856594D01*
X134750848Y-44856594D01*
X134701855Y-44861225D01*
X134696019Y-44861500D01*
X124866391Y-44861500D01*
X124850253Y-44859718D01*
X124850232Y-44859946D01*
X124842465Y-44859211D01*
X124769658Y-44861500D01*
X124738566Y-44861500D01*
X124731172Y-44862433D01*
X124725354Y-44862891D01*
X124676173Y-44864437D01*
X124676163Y-44864439D01*
X124655422Y-44870464D01*
X124636382Y-44874407D01*
X124614946Y-44877116D01*
X124614931Y-44877119D01*
X124569178Y-44895233D01*
X124563654Y-44897124D01*
X124516402Y-44910854D01*
X124516394Y-44910857D01*
X124497803Y-44921852D01*
X124480338Y-44930408D01*
X124460247Y-44938363D01*
X124460242Y-44938366D01*
X124420427Y-44967292D01*
X124415545Y-44970499D01*
X124373190Y-44995549D01*
X124357916Y-45010823D01*
X124343128Y-45023454D01*
X124325643Y-45036158D01*
X124325640Y-45036162D01*
X124294266Y-45074084D01*
X124290334Y-45078405D01*
X121184253Y-48184485D01*
X121171585Y-48194635D01*
X121171731Y-48194811D01*
X121165720Y-48199783D01*
X121115853Y-48252886D01*
X121093872Y-48274867D01*
X121089292Y-48280769D01*
X121085508Y-48285198D01*
X121051829Y-48321065D01*
X121051824Y-48321072D01*
X121041418Y-48340000D01*
X121030742Y-48356254D01*
X121017495Y-48373333D01*
X120997950Y-48418497D01*
X120995380Y-48423743D01*
X120971676Y-48466861D01*
X120966302Y-48487789D01*
X120960003Y-48506187D01*
X120951419Y-48526025D01*
X120943723Y-48574620D01*
X120942538Y-48580343D01*
X120930300Y-48628009D01*
X120930300Y-48649613D01*
X120928774Y-48669008D01*
X120925394Y-48690351D01*
X100500000Y-48690351D01*
X100500000Y-43624000D01*
X100519685Y-43556961D01*
X100572489Y-43511206D01*
X100624000Y-43500000D01*
X152576000Y-43500000D01*
X152643039Y-43519685D01*
G37*
G04 #@! TD.AperFunction*
M02*
