G04 #@! TF.GenerationSoftware,KiCad,Pcbnew,7.0.6*
G04 #@! TF.CreationDate,2024-10-13T07:30:47+02:00*
G04 #@! TF.ProjectId,KeybJr,4b657962-4a72-42e6-9b69-6361645f7063,rev?*
G04 #@! TF.SameCoordinates,Original*
G04 #@! TF.FileFunction,Copper,L2,Bot*
G04 #@! TF.FilePolarity,Positive*
%FSLAX46Y46*%
G04 Gerber Fmt 4.6, Leading zero omitted, Abs format (unit mm)*
G04 Created by KiCad (PCBNEW 7.0.6) date 2024-10-13 07:30:47*
%MOMM*%
%LPD*%
G01*
G04 APERTURE LIST*
G04 Aperture macros list*
%AMRoundRect*
0 Rectangle with rounded corners*
0 $1 Rounding radius*
0 $2 $3 $4 $5 $6 $7 $8 $9 X,Y pos of 4 corners*
0 Add a 4 corners polygon primitive as box body*
4,1,4,$2,$3,$4,$5,$6,$7,$8,$9,$2,$3,0*
0 Add four circle primitives for the rounded corners*
1,1,$1+$1,$2,$3*
1,1,$1+$1,$4,$5*
1,1,$1+$1,$6,$7*
1,1,$1+$1,$8,$9*
0 Add four rect primitives between the rounded corners*
20,1,$1+$1,$2,$3,$4,$5,0*
20,1,$1+$1,$4,$5,$6,$7,0*
20,1,$1+$1,$6,$7,$8,$9,0*
20,1,$1+$1,$8,$9,$2,$3,0*%
%AMOutline5P*
0 Free polygon, 5 corners , with rotation*
0 The origin of the aperture is its center*
0 number of corners: always 5*
0 $1 to $10 corner X, Y*
0 $11 Rotation angle, in degrees counterclockwise*
0 create outline with 5 corners*
4,1,5,$1,$2,$3,$4,$5,$6,$7,$8,$9,$10,$1,$2,$11*%
%AMOutline6P*
0 Free polygon, 6 corners , with rotation*
0 The origin of the aperture is its center*
0 number of corners: always 6*
0 $1 to $12 corner X, Y*
0 $13 Rotation angle, in degrees counterclockwise*
0 create outline with 6 corners*
4,1,6,$1,$2,$3,$4,$5,$6,$7,$8,$9,$10,$11,$12,$1,$2,$13*%
%AMOutline7P*
0 Free polygon, 7 corners , with rotation*
0 The origin of the aperture is its center*
0 number of corners: always 7*
0 $1 to $14 corner X, Y*
0 $15 Rotation angle, in degrees counterclockwise*
0 create outline with 7 corners*
4,1,7,$1,$2,$3,$4,$5,$6,$7,$8,$9,$10,$11,$12,$13,$14,$1,$2,$15*%
%AMOutline8P*
0 Free polygon, 8 corners , with rotation*
0 The origin of the aperture is its center*
0 number of corners: always 8*
0 $1 to $16 corner X, Y*
0 $17 Rotation angle, in degrees counterclockwise*
0 create outline with 8 corners*
4,1,8,$1,$2,$3,$4,$5,$6,$7,$8,$9,$10,$11,$12,$13,$14,$15,$16,$1,$2,$17*%
G04 Aperture macros list end*
G04 #@! TA.AperFunction,ComponentPad*
%ADD10R,1.600000X1.600000*%
G04 #@! TD*
G04 #@! TA.AperFunction,ComponentPad*
%ADD11O,1.600000X1.600000*%
G04 #@! TD*
G04 #@! TA.AperFunction,ComponentPad*
%ADD12C,1.500000*%
G04 #@! TD*
G04 #@! TA.AperFunction,ComponentPad*
%ADD13R,1.700000X1.700000*%
G04 #@! TD*
G04 #@! TA.AperFunction,ComponentPad*
%ADD14O,1.700000X1.700000*%
G04 #@! TD*
G04 #@! TA.AperFunction,ComponentPad*
%ADD15C,1.600000*%
G04 #@! TD*
G04 #@! TA.AperFunction,ComponentPad*
%ADD16R,3.500000X3.500000*%
G04 #@! TD*
G04 #@! TA.AperFunction,ComponentPad*
%ADD17RoundRect,0.750000X-1.000000X0.750000X-1.000000X-0.750000X1.000000X-0.750000X1.000000X0.750000X0*%
G04 #@! TD*
G04 #@! TA.AperFunction,ComponentPad*
%ADD18RoundRect,0.875000X-0.875000X0.875000X-0.875000X-0.875000X0.875000X-0.875000X0.875000X0.875000X0*%
G04 #@! TD*
G04 #@! TA.AperFunction,ComponentPad*
%ADD19C,2.000000*%
G04 #@! TD*
G04 #@! TA.AperFunction,ComponentPad*
%ADD20R,1.500000X1.050000*%
G04 #@! TD*
G04 #@! TA.AperFunction,ComponentPad*
%ADD21O,1.500000X1.050000*%
G04 #@! TD*
G04 #@! TA.AperFunction,ComponentPad*
%ADD22R,1.800000X1.800000*%
G04 #@! TD*
G04 #@! TA.AperFunction,ComponentPad*
%ADD23C,1.800000*%
G04 #@! TD*
G04 #@! TA.AperFunction,ComponentPad*
%ADD24Outline8P,-0.711200X0.294589X-0.294589X0.711200X0.294589X0.711200X0.711200X0.294589X0.711200X-0.294589X0.294589X-0.711200X-0.294589X-0.711200X-0.711200X-0.294589X0.000000*%
G04 #@! TD*
G04 #@! TA.AperFunction,ComponentPad*
%ADD25C,3.500000*%
G04 #@! TD*
G04 #@! TA.AperFunction,Conductor*
%ADD26C,0.200000*%
G04 #@! TD*
G04 #@! TA.AperFunction,Conductor*
%ADD27C,0.800000*%
G04 #@! TD*
G04 #@! TA.AperFunction,Conductor*
%ADD28C,0.300000*%
G04 #@! TD*
G04 APERTURE END LIST*
D10*
X143400000Y-55300000D03*
D11*
X143400000Y-57840000D03*
X143400000Y-60380000D03*
X143400000Y-62920000D03*
X143400000Y-65460000D03*
X143400000Y-68000000D03*
X143400000Y-70540000D03*
X143400000Y-73080000D03*
X143400000Y-75620000D03*
X143400000Y-78160000D03*
X143400000Y-80700000D03*
X143400000Y-83240000D03*
X143400000Y-85780000D03*
X143400000Y-88320000D03*
X151020000Y-88320000D03*
X151020000Y-85780000D03*
X151020000Y-83240000D03*
X151020000Y-80700000D03*
X151020000Y-78160000D03*
X151020000Y-75620000D03*
X151020000Y-73080000D03*
X151020000Y-70540000D03*
X151020000Y-68000000D03*
X151020000Y-65460000D03*
X151020000Y-62920000D03*
X151020000Y-60380000D03*
X151020000Y-57840000D03*
X151020000Y-55300000D03*
D12*
X137450000Y-78480000D03*
X137450000Y-73600000D03*
D13*
X123300000Y-91500000D03*
D14*
X123300000Y-94040000D03*
X123300000Y-96580000D03*
D10*
X119750000Y-67700000D03*
D15*
X117250000Y-67700000D03*
D16*
X107900000Y-57900000D03*
D17*
X107900000Y-51900000D03*
D18*
X103200000Y-54900000D03*
D19*
X127250000Y-73650000D03*
X132250000Y-73650000D03*
D20*
X138610000Y-96320000D03*
D21*
X138610000Y-95050000D03*
X138610000Y-93780000D03*
D13*
X127950000Y-91500000D03*
D14*
X127950000Y-94040000D03*
X127950000Y-96580000D03*
D15*
X139280000Y-85000000D03*
D11*
X129120000Y-85000000D03*
D22*
X146950000Y-96350000D03*
D23*
X146950000Y-93810000D03*
D19*
X127250000Y-78500000D03*
X132250000Y-78500000D03*
D14*
X109240000Y-66300000D03*
X109240000Y-68840000D03*
X106700000Y-63760000D03*
X106700000Y-66300000D03*
X106700000Y-68840000D03*
D15*
X103370000Y-96700000D03*
D11*
X113530000Y-96700000D03*
D24*
X124750000Y-52550000D03*
X127350000Y-52550000D03*
X122650000Y-52550000D03*
X129450000Y-52550000D03*
X122650000Y-55000000D03*
X129450000Y-55050000D03*
D25*
X132850000Y-49550000D03*
X126050000Y-48750000D03*
X119300000Y-49550000D03*
D15*
X139650000Y-45470000D03*
D11*
X139650000Y-55630000D03*
D19*
X123750000Y-61050000D03*
X128750000Y-61050000D03*
D22*
X147000000Y-49340000D03*
D23*
X147000000Y-46800000D03*
D19*
X104950000Y-86700000D03*
X111450000Y-86700000D03*
X104950000Y-91200000D03*
X111450000Y-91200000D03*
X138800000Y-61050000D03*
X133800000Y-61050000D03*
D26*
X113530000Y-96700000D02*
X113530000Y-97970000D01*
X113530000Y-97970000D02*
X112700000Y-98800000D01*
X112700000Y-98800000D02*
X102100000Y-98800000D01*
X101900000Y-98600000D02*
X101900000Y-74400000D01*
X102100000Y-98800000D02*
X101900000Y-98600000D01*
X101900000Y-74400000D02*
X104700000Y-71600000D01*
D27*
X115850000Y-71600000D02*
X108000000Y-71600000D01*
X123750000Y-61050000D02*
X123750000Y-58250000D01*
X119750000Y-67700000D02*
X115850000Y-71600000D01*
X142700000Y-52600000D02*
X145200000Y-52600000D01*
X119750000Y-67700000D02*
X119750000Y-65050000D01*
X141400000Y-53900000D02*
X142700000Y-52600000D01*
X138800000Y-61050000D02*
X137030000Y-59280000D01*
X123750000Y-58250000D02*
X137030000Y-58250000D01*
X102500000Y-69400000D02*
X104700000Y-71600000D01*
X107900000Y-57900000D02*
X102500000Y-63300000D01*
X145200000Y-52600000D02*
X145200000Y-68740000D01*
X137030000Y-59280000D02*
X137030000Y-58250000D01*
X109240000Y-70360000D02*
X109240000Y-68840000D01*
X141380000Y-53900000D02*
X141400000Y-53900000D01*
X123750000Y-58250000D02*
X129450000Y-52550000D01*
X137030000Y-58250000D02*
X139650000Y-55630000D01*
X119750000Y-65050000D02*
X123750000Y-61050000D01*
X139650000Y-55630000D02*
X141380000Y-53900000D01*
X145200000Y-68740000D02*
X143400000Y-70540000D01*
X104700000Y-71600000D02*
X108000000Y-71600000D01*
X102500000Y-63300000D02*
X102500000Y-69400000D01*
X108000000Y-71600000D02*
X109240000Y-70360000D01*
D28*
X137450000Y-73600000D02*
X132300000Y-73600000D01*
X139470000Y-75620000D02*
X137450000Y-73600000D01*
X132300000Y-73600000D02*
X132250000Y-73650000D01*
X143400000Y-75620000D02*
X139470000Y-75620000D01*
X132270000Y-78480000D02*
X132250000Y-78500000D01*
X137770000Y-78160000D02*
X137450000Y-78480000D01*
X137450000Y-78480000D02*
X132270000Y-78480000D01*
X143400000Y-78160000D02*
X137770000Y-78160000D01*
X147000000Y-93760000D02*
X146950000Y-93810000D01*
D27*
X147000000Y-49340000D02*
X147000000Y-93760000D01*
X139650000Y-45470000D02*
X145670000Y-45470000D01*
X145670000Y-45470000D02*
X147000000Y-46800000D01*
X146950000Y-96350000D02*
X138640000Y-96350000D01*
D28*
X138640000Y-96350000D02*
X138610000Y-96320000D01*
X127950000Y-94040000D02*
X129500000Y-92490000D01*
X127900000Y-79800000D02*
X130700000Y-77000000D01*
X135990811Y-68000000D02*
X143400000Y-68000000D01*
X129500000Y-92490000D02*
X129500000Y-88107106D01*
X127900000Y-86507106D02*
X127900000Y-79800000D01*
X130700000Y-73290811D02*
X135990811Y-68000000D01*
X130700000Y-77000000D02*
X130700000Y-73290811D01*
X129500000Y-88107106D02*
X127900000Y-86507106D01*
X142800000Y-55300000D02*
X143400000Y-55300000D01*
X103370000Y-96700000D02*
X103370000Y-88280000D01*
X133950000Y-64200000D02*
X139000000Y-64200000D01*
X139000000Y-64200000D02*
X141200000Y-62000000D01*
X141200000Y-62000000D02*
X141200000Y-56900000D01*
X141200000Y-56900000D02*
X142800000Y-55300000D01*
X111450000Y-86700000D02*
X133950000Y-64200000D01*
X103370000Y-88280000D02*
X104950000Y-86700000D01*
X104950000Y-86700000D02*
X111450000Y-86700000D01*
X141900000Y-80700000D02*
X143400000Y-80700000D01*
X139280000Y-83320000D02*
X141900000Y-80700000D01*
X139280000Y-85000000D02*
X139280000Y-83320000D01*
X137150000Y-95050000D02*
X138610000Y-95050000D01*
X129120000Y-87020000D02*
X137150000Y-95050000D01*
X129120000Y-85000000D02*
X129120000Y-87020000D01*
G04 #@! TA.AperFunction,Conductor*
G36*
X142266192Y-68678185D02*
G01*
X142300725Y-68711373D01*
X142393802Y-68844300D01*
X142555700Y-69006198D01*
X142743251Y-69137523D01*
X142786345Y-69157618D01*
X142838784Y-69203791D01*
X142857936Y-69270984D01*
X142837720Y-69337865D01*
X142786345Y-69382382D01*
X142743251Y-69402476D01*
X142647257Y-69469693D01*
X142555700Y-69533802D01*
X142555698Y-69533803D01*
X142555695Y-69533806D01*
X142393806Y-69695695D01*
X142393803Y-69695698D01*
X142393802Y-69695700D01*
X142340691Y-69771550D01*
X142262476Y-69883252D01*
X142262475Y-69883254D01*
X142165718Y-70090750D01*
X142165714Y-70090761D01*
X142106457Y-70311910D01*
X142106456Y-70311918D01*
X142086502Y-70539998D01*
X142086502Y-70540001D01*
X142106456Y-70768081D01*
X142106457Y-70768089D01*
X142165714Y-70989238D01*
X142165718Y-70989249D01*
X142262475Y-71196745D01*
X142262477Y-71196749D01*
X142393802Y-71384300D01*
X142555700Y-71546198D01*
X142743251Y-71677523D01*
X142843887Y-71724450D01*
X142950750Y-71774281D01*
X142950752Y-71774281D01*
X142950757Y-71774284D01*
X143171913Y-71833543D01*
X143334832Y-71847796D01*
X143399998Y-71853498D01*
X143400000Y-71853498D01*
X143400002Y-71853498D01*
X143457021Y-71848509D01*
X143628087Y-71833543D01*
X143849243Y-71774284D01*
X144056749Y-71677523D01*
X144244300Y-71546198D01*
X144406198Y-71384300D01*
X144537523Y-71196749D01*
X144634284Y-70989243D01*
X144693543Y-70768087D01*
X144712315Y-70553521D01*
X144737766Y-70488455D01*
X144748153Y-70476658D01*
X145784951Y-69439860D01*
X145799738Y-69427231D01*
X145811253Y-69418866D01*
X145858144Y-69366786D01*
X145860346Y-69364465D01*
X145872625Y-69352188D01*
X145878372Y-69346442D01*
X145879141Y-69347211D01*
X145934822Y-69312898D01*
X146004679Y-69314220D01*
X146062732Y-69353100D01*
X146090550Y-69417193D01*
X146091500Y-69432515D01*
X146091500Y-92632724D01*
X146071815Y-92699763D01*
X146043664Y-92730576D01*
X145992783Y-92770179D01*
X145992776Y-92770185D01*
X145834686Y-92941915D01*
X145707015Y-93137331D01*
X145613251Y-93351092D01*
X145555948Y-93577377D01*
X145536673Y-93809994D01*
X145536673Y-93810005D01*
X145555948Y-94042622D01*
X145613251Y-94268907D01*
X145707015Y-94482668D01*
X145834686Y-94678084D01*
X145921856Y-94772775D01*
X145952779Y-94835429D01*
X145944919Y-94904855D01*
X145900772Y-94959011D01*
X145873963Y-94972939D01*
X145803794Y-94999111D01*
X145686739Y-95086739D01*
X145599111Y-95203795D01*
X145548011Y-95340797D01*
X145546780Y-95346008D01*
X145512210Y-95406726D01*
X145450302Y-95439116D01*
X145426102Y-95441500D01*
X139963439Y-95441500D01*
X139896400Y-95421815D01*
X139850645Y-95369011D01*
X139840701Y-95299853D01*
X139844778Y-95281505D01*
X139853546Y-95252601D01*
X139873501Y-95050000D01*
X139853546Y-94847399D01*
X139794450Y-94652583D01*
X139703629Y-94482669D01*
X139698485Y-94473045D01*
X139698483Y-94473043D01*
X139698482Y-94473040D01*
X139601758Y-94355181D01*
X139569331Y-94315668D01*
X139411961Y-94186519D01*
X139411954Y-94186514D01*
X139232424Y-94090553D01*
X139232421Y-94090552D01*
X139232420Y-94090551D01*
X139232417Y-94090550D01*
X139037601Y-94031454D01*
X139037599Y-94031453D01*
X139037601Y-94031453D01*
X138920402Y-94019910D01*
X138885775Y-94016500D01*
X138334225Y-94016500D01*
X138296748Y-94020191D01*
X138182400Y-94031453D01*
X138067374Y-94066345D01*
X137987583Y-94090550D01*
X137987580Y-94090551D01*
X137987578Y-94090552D01*
X137987575Y-94090553D01*
X137808045Y-94186514D01*
X137808038Y-94186519D01*
X137650668Y-94315668D01*
X137625641Y-94346165D01*
X137567896Y-94385499D01*
X137529788Y-94391500D01*
X137474122Y-94391500D01*
X137407083Y-94371815D01*
X137386441Y-94355181D01*
X129814819Y-86783559D01*
X129781334Y-86722236D01*
X129778500Y-86695878D01*
X129778500Y-86200846D01*
X129798185Y-86133807D01*
X129831377Y-86099271D01*
X129913883Y-86041500D01*
X129964300Y-86006198D01*
X130126198Y-85844300D01*
X130257523Y-85656749D01*
X130354284Y-85449243D01*
X130413543Y-85228087D01*
X130433498Y-85000000D01*
X130413543Y-84771913D01*
X130354284Y-84550757D01*
X130351933Y-84545716D01*
X130304405Y-84443791D01*
X130257523Y-84343251D01*
X130126198Y-84155700D01*
X129964300Y-83993802D01*
X129776749Y-83862477D01*
X129776745Y-83862475D01*
X129569249Y-83765718D01*
X129569238Y-83765714D01*
X129348089Y-83706457D01*
X129348081Y-83706456D01*
X129120002Y-83686502D01*
X129119998Y-83686502D01*
X128891918Y-83706456D01*
X128891907Y-83706458D01*
X128714593Y-83753969D01*
X128644743Y-83752306D01*
X128586881Y-83713143D01*
X128559377Y-83648915D01*
X128558500Y-83634194D01*
X128558500Y-81902136D01*
X128558500Y-80124118D01*
X128578184Y-80057083D01*
X128594813Y-80036446D01*
X130566990Y-78064268D01*
X130628313Y-78030784D01*
X130698005Y-78035768D01*
X130753938Y-78077640D01*
X130778355Y-78143104D01*
X130775245Y-78180896D01*
X130755466Y-78263284D01*
X130755465Y-78263289D01*
X130745643Y-78388087D01*
X130736835Y-78500000D01*
X130755465Y-78736714D01*
X130810895Y-78967595D01*
X130810895Y-78967597D01*
X130901757Y-79186959D01*
X130901759Y-79186962D01*
X131025820Y-79389410D01*
X131025821Y-79389413D01*
X131043289Y-79409865D01*
X131180031Y-79569969D01*
X131232551Y-79614825D01*
X131360586Y-79724178D01*
X131360589Y-79724179D01*
X131563037Y-79848240D01*
X131563040Y-79848242D01*
X131782403Y-79939104D01*
X131782404Y-79939104D01*
X131782406Y-79939105D01*
X132013289Y-79994535D01*
X132250000Y-80013165D01*
X132486711Y-79994535D01*
X132717594Y-79939105D01*
X132717596Y-79939104D01*
X132717597Y-79939104D01*
X132936959Y-79848242D01*
X132936960Y-79848241D01*
X132936963Y-79848240D01*
X133139416Y-79724176D01*
X133319969Y-79569969D01*
X133474176Y-79389416D01*
X133545342Y-79273285D01*
X133591655Y-79197710D01*
X133643467Y-79150835D01*
X133697382Y-79138500D01*
X136310192Y-79138500D01*
X136377231Y-79158185D01*
X136411765Y-79191374D01*
X136482251Y-79292038D01*
X136637962Y-79447749D01*
X136818346Y-79574056D01*
X137017924Y-79667120D01*
X137230629Y-79724115D01*
X137387322Y-79737823D01*
X137449998Y-79743307D01*
X137450000Y-79743307D01*
X137450002Y-79743307D01*
X137505940Y-79738413D01*
X137669371Y-79724115D01*
X137882076Y-79667120D01*
X138081654Y-79574056D01*
X138262038Y-79447749D01*
X138417749Y-79292038D01*
X138544056Y-79111654D01*
X138637120Y-78912076D01*
X138637569Y-78910399D01*
X138637968Y-78909744D01*
X138638970Y-78906993D01*
X138639523Y-78907194D01*
X138673937Y-78850741D01*
X138736786Y-78820216D01*
X138757342Y-78818500D01*
X142199153Y-78818500D01*
X142266192Y-78838185D01*
X142300725Y-78871373D01*
X142393802Y-79004300D01*
X142555700Y-79166198D01*
X142730485Y-79288584D01*
X142743251Y-79297523D01*
X142786345Y-79317618D01*
X142838784Y-79363791D01*
X142857936Y-79430984D01*
X142837720Y-79497865D01*
X142786345Y-79542382D01*
X142743251Y-79562476D01*
X142618126Y-79650090D01*
X142555700Y-79693802D01*
X142555698Y-79693803D01*
X142555695Y-79693806D01*
X142393806Y-79855695D01*
X142393803Y-79855698D01*
X142393802Y-79855700D01*
X142300726Y-79988625D01*
X142246150Y-80032249D01*
X142199153Y-80041500D01*
X141986391Y-80041500D01*
X141970247Y-80039717D01*
X141970226Y-80039945D01*
X141962464Y-80039211D01*
X141962463Y-80039211D01*
X141889626Y-80041500D01*
X141858568Y-80041500D01*
X141858565Y-80041500D01*
X141858552Y-80041501D01*
X141851176Y-80042432D01*
X141845358Y-80042890D01*
X141796171Y-80044436D01*
X141775416Y-80050466D01*
X141756370Y-80054410D01*
X141734932Y-80057118D01*
X141689184Y-80075231D01*
X141683659Y-80077123D01*
X141636399Y-80090855D01*
X141617808Y-80101850D01*
X141600339Y-80110408D01*
X141580246Y-80118364D01*
X141580245Y-80118364D01*
X141580244Y-80118365D01*
X141555641Y-80136239D01*
X141540433Y-80147289D01*
X141535550Y-80150496D01*
X141493192Y-80175546D01*
X141477913Y-80190826D01*
X141463127Y-80203455D01*
X141445643Y-80216159D01*
X141445641Y-80216161D01*
X141445640Y-80216162D01*
X141414271Y-80254078D01*
X141410339Y-80258399D01*
X138875453Y-82793285D01*
X138862785Y-82803435D01*
X138862931Y-82803611D01*
X138856920Y-82808583D01*
X138807053Y-82861686D01*
X138785072Y-82883667D01*
X138780492Y-82889569D01*
X138776708Y-82893998D01*
X138743029Y-82929865D01*
X138743024Y-82929872D01*
X138732618Y-82948800D01*
X138721942Y-82965054D01*
X138708695Y-82982133D01*
X138689150Y-83027297D01*
X138686580Y-83032543D01*
X138662876Y-83075661D01*
X138657502Y-83096589D01*
X138651203Y-83114987D01*
X138642619Y-83134825D01*
X138634923Y-83183420D01*
X138633738Y-83189143D01*
X138621500Y-83236809D01*
X138621500Y-83258413D01*
X138619974Y-83277808D01*
X138616594Y-83299151D01*
X138621225Y-83348143D01*
X138621500Y-83353981D01*
X138621500Y-83799152D01*
X138601815Y-83866191D01*
X138568624Y-83900726D01*
X138435699Y-83993802D01*
X138273806Y-84155695D01*
X138273803Y-84155698D01*
X138273802Y-84155700D01*
X138191767Y-84272856D01*
X138142476Y-84343252D01*
X138142475Y-84343254D01*
X138045718Y-84550750D01*
X138045714Y-84550761D01*
X137986457Y-84771910D01*
X137986456Y-84771918D01*
X137966502Y-84999998D01*
X137966502Y-85000001D01*
X137986456Y-85228081D01*
X137986457Y-85228089D01*
X138045714Y-85449238D01*
X138045718Y-85449249D01*
X138130018Y-85630031D01*
X138142477Y-85656749D01*
X138273802Y-85844300D01*
X138435700Y-86006198D01*
X138623251Y-86137523D01*
X138748091Y-86195736D01*
X138830750Y-86234281D01*
X138830752Y-86234281D01*
X138830757Y-86234284D01*
X139051913Y-86293543D01*
X139214832Y-86307796D01*
X139279998Y-86313498D01*
X139280000Y-86313498D01*
X139280002Y-86313498D01*
X139337021Y-86308509D01*
X139508087Y-86293543D01*
X139729243Y-86234284D01*
X139936749Y-86137523D01*
X140124300Y-86006198D01*
X140286198Y-85844300D01*
X140417523Y-85656749D01*
X140514284Y-85449243D01*
X140573543Y-85228087D01*
X140593498Y-85000000D01*
X140573543Y-84771913D01*
X140514284Y-84550757D01*
X140511933Y-84545716D01*
X140464405Y-84443791D01*
X140417523Y-84343251D01*
X140286198Y-84155700D01*
X140124300Y-83993802D01*
X140124299Y-83993802D01*
X139991376Y-83900726D01*
X139947751Y-83846149D01*
X139938500Y-83799152D01*
X139938500Y-83644121D01*
X139958185Y-83577082D01*
X139974814Y-83556445D01*
X142121757Y-81409502D01*
X142183078Y-81376019D01*
X142252770Y-81381003D01*
X142308703Y-81422875D01*
X142310977Y-81426014D01*
X142393802Y-81544300D01*
X142555700Y-81706198D01*
X142743251Y-81837522D01*
X142743251Y-81837523D01*
X142786345Y-81857618D01*
X142838784Y-81903791D01*
X142857936Y-81970984D01*
X142837720Y-82037865D01*
X142786345Y-82082382D01*
X142743251Y-82102476D01*
X142618126Y-82190090D01*
X142555700Y-82233802D01*
X142555698Y-82233803D01*
X142555695Y-82233806D01*
X142393806Y-82395695D01*
X142262476Y-82583252D01*
X142262475Y-82583254D01*
X142165718Y-82790750D01*
X142165714Y-82790761D01*
X142106457Y-83011910D01*
X142106456Y-83011918D01*
X142086502Y-83239998D01*
X142086502Y-83240001D01*
X142106456Y-83468081D01*
X142106457Y-83468089D01*
X142165714Y-83689238D01*
X142165718Y-83689249D01*
X142262475Y-83896745D01*
X142262477Y-83896749D01*
X142393802Y-84084300D01*
X142555700Y-84246198D01*
X142694310Y-84343254D01*
X142743251Y-84377523D01*
X142786345Y-84397618D01*
X142838784Y-84443791D01*
X142857936Y-84510984D01*
X142837720Y-84577865D01*
X142786345Y-84622382D01*
X142743251Y-84642476D01*
X142618126Y-84730090D01*
X142555700Y-84773802D01*
X142555698Y-84773803D01*
X142555695Y-84773806D01*
X142393806Y-84935695D01*
X142262476Y-85123252D01*
X142262475Y-85123254D01*
X142165718Y-85330750D01*
X142165714Y-85330761D01*
X142106457Y-85551910D01*
X142106456Y-85551918D01*
X142086502Y-85779998D01*
X142086502Y-85780001D01*
X142106456Y-86008081D01*
X142106457Y-86008089D01*
X142165714Y-86229238D01*
X142165718Y-86229249D01*
X142195699Y-86293543D01*
X142262477Y-86436749D01*
X142393802Y-86624300D01*
X142555700Y-86786198D01*
X142738091Y-86913910D01*
X142743251Y-86917523D01*
X142786345Y-86937618D01*
X142838784Y-86983791D01*
X142857936Y-87050984D01*
X142837720Y-87117865D01*
X142786345Y-87162382D01*
X142743251Y-87182476D01*
X142618126Y-87270090D01*
X142555700Y-87313802D01*
X142555698Y-87313803D01*
X142555695Y-87313806D01*
X142393806Y-87475695D01*
X142262476Y-87663252D01*
X142262475Y-87663254D01*
X142165718Y-87870750D01*
X142165714Y-87870761D01*
X142106457Y-88091910D01*
X142106456Y-88091918D01*
X142086502Y-88319998D01*
X142086502Y-88320001D01*
X142106456Y-88548081D01*
X142106457Y-88548089D01*
X142165714Y-88769238D01*
X142165718Y-88769249D01*
X142262475Y-88976745D01*
X142262477Y-88976749D01*
X142393802Y-89164300D01*
X142555700Y-89326198D01*
X142743251Y-89457523D01*
X142868091Y-89515736D01*
X142950750Y-89554281D01*
X142950752Y-89554281D01*
X142950757Y-89554284D01*
X143171913Y-89613543D01*
X143334832Y-89627796D01*
X143399998Y-89633498D01*
X143400000Y-89633498D01*
X143400002Y-89633498D01*
X143457021Y-89628509D01*
X143628087Y-89613543D01*
X143849243Y-89554284D01*
X144056749Y-89457523D01*
X144244300Y-89326198D01*
X144406198Y-89164300D01*
X144537523Y-88976749D01*
X144634284Y-88769243D01*
X144693543Y-88548087D01*
X144713498Y-88320000D01*
X144708174Y-88259152D01*
X144698303Y-88146319D01*
X144693543Y-88091913D01*
X144634284Y-87870757D01*
X144537523Y-87663251D01*
X144406198Y-87475700D01*
X144244300Y-87313802D01*
X144056749Y-87182477D01*
X144013655Y-87162382D01*
X143961215Y-87116210D01*
X143942063Y-87049017D01*
X143962278Y-86982136D01*
X144013655Y-86937618D01*
X144031735Y-86929187D01*
X144056749Y-86917523D01*
X144244300Y-86786198D01*
X144406198Y-86624300D01*
X144537523Y-86436749D01*
X144634284Y-86229243D01*
X144693543Y-86008087D01*
X144713498Y-85780000D01*
X144693543Y-85551913D01*
X144634284Y-85330757D01*
X144537523Y-85123251D01*
X144406198Y-84935700D01*
X144244300Y-84773802D01*
X144056749Y-84642477D01*
X144013655Y-84622382D01*
X143961215Y-84576210D01*
X143942063Y-84509017D01*
X143962278Y-84442136D01*
X144013655Y-84397618D01*
X144016882Y-84396112D01*
X144056749Y-84377523D01*
X144244300Y-84246198D01*
X144406198Y-84084300D01*
X144537523Y-83896749D01*
X144634284Y-83689243D01*
X144693543Y-83468087D01*
X144713498Y-83240000D01*
X144693543Y-83011913D01*
X144634284Y-82790757D01*
X144537523Y-82583251D01*
X144406198Y-82395700D01*
X144244300Y-82233802D01*
X144056749Y-82102477D01*
X144013655Y-82082382D01*
X143961215Y-82036210D01*
X143942063Y-81969017D01*
X143962278Y-81902136D01*
X144013655Y-81857618D01*
X144016882Y-81856112D01*
X144056749Y-81837523D01*
X144244300Y-81706198D01*
X144406198Y-81544300D01*
X144537523Y-81356749D01*
X144634284Y-81149243D01*
X144693543Y-80928087D01*
X144713498Y-80700000D01*
X144693543Y-80471913D01*
X144634284Y-80250757D01*
X144537523Y-80043251D01*
X144406198Y-79855700D01*
X144244300Y-79693802D01*
X144056749Y-79562477D01*
X144013655Y-79542382D01*
X143961215Y-79496210D01*
X143942063Y-79429017D01*
X143962278Y-79362136D01*
X144013655Y-79317618D01*
X144016882Y-79316112D01*
X144056749Y-79297523D01*
X144244300Y-79166198D01*
X144406198Y-79004300D01*
X144537523Y-78816749D01*
X144634284Y-78609243D01*
X144693543Y-78388087D01*
X144713498Y-78160000D01*
X144693543Y-77931913D01*
X144634284Y-77710757D01*
X144614328Y-77667962D01*
X144587573Y-77610584D01*
X144537523Y-77503251D01*
X144406198Y-77315700D01*
X144244300Y-77153802D01*
X144056749Y-77022477D01*
X144020266Y-77005465D01*
X144013655Y-77002382D01*
X143961215Y-76956210D01*
X143942063Y-76889017D01*
X143962278Y-76822136D01*
X144013655Y-76777618D01*
X144016882Y-76776112D01*
X144056749Y-76757523D01*
X144244300Y-76626198D01*
X144406198Y-76464300D01*
X144537523Y-76276749D01*
X144634284Y-76069243D01*
X144693543Y-75848087D01*
X144713498Y-75620000D01*
X144693543Y-75391913D01*
X144634284Y-75170757D01*
X144630743Y-75163164D01*
X144553839Y-74998242D01*
X144537523Y-74963251D01*
X144406198Y-74775700D01*
X144244300Y-74613802D01*
X144056749Y-74482477D01*
X144013655Y-74462382D01*
X143849249Y-74385718D01*
X143849238Y-74385714D01*
X143628089Y-74326457D01*
X143628081Y-74326456D01*
X143400002Y-74306502D01*
X143399998Y-74306502D01*
X143171918Y-74326456D01*
X143171910Y-74326457D01*
X142950761Y-74385714D01*
X142950750Y-74385718D01*
X142743254Y-74482475D01*
X142743252Y-74482476D01*
X142743249Y-74482477D01*
X142743251Y-74482477D01*
X142555700Y-74613802D01*
X142555698Y-74613803D01*
X142555695Y-74613806D01*
X142393806Y-74775695D01*
X142393803Y-74775698D01*
X142393802Y-74775700D01*
X142300726Y-74908625D01*
X142246150Y-74952249D01*
X142199153Y-74961500D01*
X139794121Y-74961500D01*
X139727082Y-74941815D01*
X139706440Y-74925181D01*
X138724982Y-73943722D01*
X138691497Y-73882399D01*
X138692891Y-73823939D01*
X138692946Y-73823730D01*
X138694115Y-73819371D01*
X138713307Y-73600000D01*
X138694115Y-73380629D01*
X138637120Y-73167924D01*
X138544056Y-72968347D01*
X138544054Y-72968344D01*
X138544053Y-72968342D01*
X138448932Y-72832496D01*
X138417749Y-72787962D01*
X138262038Y-72632251D01*
X138081654Y-72505944D01*
X138060434Y-72496049D01*
X137882081Y-72412882D01*
X137882079Y-72412881D01*
X137882076Y-72412880D01*
X137730777Y-72372339D01*
X137669372Y-72355885D01*
X137669365Y-72355884D01*
X137450002Y-72336693D01*
X137449998Y-72336693D01*
X137230634Y-72355884D01*
X137230627Y-72355885D01*
X137017920Y-72412881D01*
X136818346Y-72505944D01*
X136818342Y-72505946D01*
X136637967Y-72632247D01*
X136637960Y-72632252D01*
X136482251Y-72787961D01*
X136482247Y-72787967D01*
X136411765Y-72888625D01*
X136357190Y-72932248D01*
X136310192Y-72941500D01*
X133654485Y-72941500D01*
X133587446Y-72921815D01*
X133548758Y-72882290D01*
X133474179Y-72760588D01*
X133474178Y-72760586D01*
X133439340Y-72719797D01*
X133319969Y-72580031D01*
X133171035Y-72452829D01*
X133139413Y-72425821D01*
X133139410Y-72425820D01*
X132936962Y-72301759D01*
X132936959Y-72301757D01*
X132884508Y-72280032D01*
X132830104Y-72236192D01*
X132808039Y-72169898D01*
X132825318Y-72102198D01*
X132844275Y-72077794D01*
X136227251Y-68694819D01*
X136288575Y-68661334D01*
X136314933Y-68658500D01*
X142199153Y-68658500D01*
X142266192Y-68678185D01*
G37*
G04 #@! TD.AperFunction*
G04 #@! TA.AperFunction,Conductor*
G36*
X136063254Y-59178185D02*
G01*
X136109009Y-59230989D01*
X136120045Y-59276012D01*
X136121415Y-59302160D01*
X136121500Y-59305404D01*
X136121500Y-59327610D01*
X136123303Y-59344776D01*
X136123820Y-59349693D01*
X136124074Y-59352925D01*
X136127742Y-59422901D01*
X136131424Y-59436640D01*
X136134969Y-59455767D01*
X136136457Y-59469927D01*
X136147378Y-59503540D01*
X136158121Y-59536604D01*
X136159028Y-59539663D01*
X136168282Y-59574200D01*
X136177171Y-59607373D01*
X136183631Y-59620051D01*
X136191073Y-59638018D01*
X136195470Y-59651550D01*
X136195471Y-59651553D01*
X136195473Y-59651556D01*
X136230521Y-59712262D01*
X136232055Y-59715087D01*
X136254532Y-59759201D01*
X136263868Y-59777524D01*
X136263873Y-59777533D01*
X136272827Y-59788590D01*
X136283838Y-59804610D01*
X136290960Y-59816944D01*
X136290962Y-59816947D01*
X136337846Y-59869017D01*
X136339946Y-59871476D01*
X136353928Y-59888741D01*
X136353930Y-59888744D01*
X136353931Y-59888744D01*
X136369625Y-59904438D01*
X136371846Y-59906777D01*
X136418747Y-59958866D01*
X136430257Y-59967228D01*
X136445052Y-59979865D01*
X137263073Y-60797886D01*
X137296558Y-60859209D01*
X137299010Y-60895295D01*
X137286835Y-61049999D01*
X137305465Y-61286714D01*
X137360895Y-61517595D01*
X137360895Y-61517597D01*
X137451757Y-61736959D01*
X137451759Y-61736962D01*
X137575820Y-61939410D01*
X137575821Y-61939413D01*
X137604780Y-61973319D01*
X137730031Y-62119969D01*
X137806379Y-62185176D01*
X137910586Y-62274178D01*
X137910589Y-62274179D01*
X138113037Y-62398240D01*
X138113040Y-62398242D01*
X138332403Y-62489104D01*
X138332404Y-62489104D01*
X138332406Y-62489105D01*
X138563289Y-62544535D01*
X138800000Y-62563165D01*
X139036711Y-62544535D01*
X139267594Y-62489105D01*
X139267596Y-62489104D01*
X139267597Y-62489104D01*
X139486959Y-62398242D01*
X139486960Y-62398241D01*
X139486963Y-62398240D01*
X139584219Y-62338640D01*
X139651664Y-62320396D01*
X139718267Y-62341512D01*
X139762880Y-62395284D01*
X139771341Y-62464639D01*
X139740962Y-62527559D01*
X139736690Y-62532049D01*
X138763559Y-63505181D01*
X138702236Y-63538666D01*
X138675878Y-63541500D01*
X134036391Y-63541500D01*
X134020253Y-63539718D01*
X134020232Y-63539946D01*
X134012465Y-63539211D01*
X133939658Y-63541500D01*
X133908566Y-63541500D01*
X133901172Y-63542433D01*
X133895354Y-63542891D01*
X133846173Y-63544437D01*
X133846163Y-63544439D01*
X133825422Y-63550464D01*
X133806382Y-63554407D01*
X133784946Y-63557116D01*
X133784931Y-63557119D01*
X133739178Y-63575233D01*
X133733654Y-63577124D01*
X133686399Y-63590855D01*
X133667808Y-63601850D01*
X133650339Y-63610408D01*
X133630246Y-63618364D01*
X133630245Y-63618364D01*
X133630244Y-63618365D01*
X133605641Y-63636239D01*
X133590433Y-63647289D01*
X133585550Y-63650496D01*
X133543192Y-63675546D01*
X133527913Y-63690826D01*
X133513127Y-63703455D01*
X133495643Y-63716159D01*
X133495641Y-63716161D01*
X133495640Y-63716162D01*
X133464271Y-63754078D01*
X133460339Y-63758399D01*
X111999155Y-85219583D01*
X111937832Y-85253068D01*
X111882527Y-85252476D01*
X111686714Y-85205465D01*
X111509177Y-85191492D01*
X111450000Y-85186835D01*
X111449999Y-85186835D01*
X111213285Y-85205465D01*
X110982404Y-85260895D01*
X110982402Y-85260895D01*
X110763040Y-85351757D01*
X110763037Y-85351759D01*
X110560589Y-85475820D01*
X110560586Y-85475821D01*
X110380031Y-85630031D01*
X110225821Y-85810586D01*
X110225820Y-85810589D01*
X110120601Y-85982290D01*
X110068789Y-86029165D01*
X110014874Y-86041500D01*
X106385126Y-86041500D01*
X106318087Y-86021815D01*
X106279399Y-85982290D01*
X106174179Y-85810589D01*
X106174178Y-85810586D01*
X106042788Y-85656749D01*
X106019969Y-85630031D01*
X105900596Y-85528076D01*
X105839413Y-85475821D01*
X105839410Y-85475820D01*
X105636962Y-85351759D01*
X105636959Y-85351757D01*
X105417596Y-85260895D01*
X105186714Y-85205465D01*
X105009177Y-85191492D01*
X104950000Y-85186835D01*
X104949999Y-85186835D01*
X104713285Y-85205465D01*
X104482404Y-85260895D01*
X104482402Y-85260895D01*
X104263040Y-85351757D01*
X104263037Y-85351759D01*
X104060589Y-85475820D01*
X104060586Y-85475821D01*
X103880031Y-85630031D01*
X103725821Y-85810586D01*
X103725820Y-85810589D01*
X103601759Y-86013037D01*
X103601757Y-86013040D01*
X103510895Y-86232402D01*
X103510895Y-86232404D01*
X103455465Y-86463285D01*
X103436835Y-86699999D01*
X103455465Y-86936714D01*
X103502476Y-87132528D01*
X103498985Y-87202311D01*
X103469583Y-87249156D01*
X102965453Y-87753285D01*
X102952785Y-87763435D01*
X102952931Y-87763611D01*
X102946920Y-87768583D01*
X102897053Y-87821686D01*
X102875072Y-87843667D01*
X102870492Y-87849569D01*
X102866708Y-87853998D01*
X102833029Y-87889865D01*
X102833024Y-87889872D01*
X102822618Y-87908800D01*
X102811942Y-87925054D01*
X102798695Y-87942133D01*
X102779150Y-87987297D01*
X102776580Y-87992543D01*
X102752876Y-88035661D01*
X102752874Y-88035664D01*
X102752603Y-88036724D01*
X102752163Y-88037462D01*
X102750005Y-88042914D01*
X102749125Y-88042565D01*
X102716863Y-88096761D01*
X102654338Y-88127945D01*
X102584880Y-88120375D01*
X102530541Y-88076454D01*
X102508573Y-88010128D01*
X102508500Y-88005883D01*
X102508500Y-74703410D01*
X102528185Y-74636371D01*
X102544814Y-74615734D01*
X104614215Y-72546332D01*
X104675536Y-72512849D01*
X104708379Y-72510185D01*
X104747810Y-72512252D01*
X104761857Y-72510027D01*
X104781257Y-72508500D01*
X107918743Y-72508500D01*
X107938142Y-72510027D01*
X107952190Y-72512252D01*
X108022160Y-72508584D01*
X108025404Y-72508500D01*
X115768743Y-72508500D01*
X115788142Y-72510027D01*
X115802190Y-72512252D01*
X115872160Y-72508584D01*
X115875404Y-72508500D01*
X115897609Y-72508500D01*
X115897610Y-72508500D01*
X115919710Y-72506177D01*
X115922911Y-72505925D01*
X115992903Y-72502257D01*
X116006648Y-72498573D01*
X116025769Y-72495029D01*
X116039928Y-72493542D01*
X116106618Y-72471872D01*
X116109669Y-72470969D01*
X116177370Y-72452829D01*
X116190040Y-72446372D01*
X116208017Y-72438925D01*
X116221556Y-72434527D01*
X116282270Y-72399472D01*
X116285051Y-72397961D01*
X116347530Y-72366129D01*
X116358599Y-72357165D01*
X116374618Y-72346156D01*
X116386944Y-72339040D01*
X116439058Y-72292115D01*
X116441449Y-72290074D01*
X116458741Y-72276072D01*
X116474465Y-72260346D01*
X116476786Y-72258144D01*
X116528866Y-72211253D01*
X116537231Y-72199738D01*
X116549860Y-72184951D01*
X119689993Y-69044819D01*
X119751317Y-69011334D01*
X119777675Y-69008500D01*
X120598638Y-69008500D01*
X120598654Y-69008499D01*
X120625692Y-69005591D01*
X120659201Y-69001989D01*
X120796204Y-68950889D01*
X120913261Y-68863261D01*
X121000889Y-68746204D01*
X121051989Y-68609201D01*
X121055591Y-68575692D01*
X121058499Y-68548654D01*
X121058499Y-68548647D01*
X121058500Y-68548638D01*
X121058500Y-66851362D01*
X121058499Y-66851352D01*
X121058499Y-66851345D01*
X121055157Y-66820270D01*
X121051989Y-66790799D01*
X121050425Y-66786606D01*
X121015990Y-66694284D01*
X121000889Y-66653796D01*
X120913261Y-66536739D01*
X120796204Y-66449111D01*
X120796204Y-66449110D01*
X120739165Y-66427836D01*
X120683232Y-66385964D01*
X120658816Y-66320500D01*
X120658500Y-66311655D01*
X120658500Y-65477674D01*
X120678185Y-65410635D01*
X120694814Y-65389998D01*
X123497887Y-62586924D01*
X123559208Y-62553441D01*
X123595294Y-62550989D01*
X123750000Y-62563165D01*
X123986711Y-62544535D01*
X124217594Y-62489105D01*
X124217596Y-62489104D01*
X124217597Y-62489104D01*
X124436959Y-62398242D01*
X124436960Y-62398241D01*
X124436963Y-62398240D01*
X124639416Y-62274176D01*
X124819969Y-62119969D01*
X124974176Y-61939416D01*
X125098240Y-61736963D01*
X125102268Y-61727240D01*
X125189104Y-61517597D01*
X125189104Y-61517596D01*
X125189105Y-61517594D01*
X125244535Y-61286711D01*
X125263165Y-61050000D01*
X125244535Y-60813289D01*
X125189105Y-60582406D01*
X125189104Y-60582403D01*
X125189104Y-60582402D01*
X125098242Y-60363040D01*
X125098240Y-60363037D01*
X124974179Y-60160589D01*
X124974178Y-60160586D01*
X124939340Y-60119797D01*
X124819969Y-59980031D01*
X124713086Y-59888744D01*
X124701968Y-59879248D01*
X124663775Y-59820741D01*
X124658500Y-59784958D01*
X124658500Y-59282500D01*
X124678185Y-59215461D01*
X124730989Y-59169706D01*
X124782500Y-59158500D01*
X135996215Y-59158500D01*
X136063254Y-59178185D01*
G37*
G04 #@! TD.AperFunction*
G04 #@! TA.AperFunction,Conductor*
G36*
X152643039Y-43519685D02*
G01*
X152688794Y-43572489D01*
X152700000Y-43624000D01*
X152700000Y-99776000D01*
X152680315Y-99843039D01*
X152627511Y-99888794D01*
X152576000Y-99900000D01*
X100624000Y-99900000D01*
X100556961Y-99880315D01*
X100511206Y-99827511D01*
X100500000Y-99776000D01*
X100500000Y-98600002D01*
X101286250Y-98600002D01*
X101291164Y-98637327D01*
X101291169Y-98637382D01*
X101291667Y-98641148D01*
X101307162Y-98758849D01*
X101307163Y-98758854D01*
X101368473Y-98906871D01*
X101368473Y-98906872D01*
X101441525Y-99002074D01*
X101441526Y-99002075D01*
X101466012Y-99033986D01*
X101494698Y-99055998D01*
X101500794Y-99061343D01*
X101638655Y-99199204D01*
X101643996Y-99205294D01*
X101653927Y-99218236D01*
X101666010Y-99233984D01*
X101666011Y-99233985D01*
X101666013Y-99233987D01*
X101689828Y-99252261D01*
X101696284Y-99257215D01*
X101696308Y-99257235D01*
X101772167Y-99315443D01*
X101793124Y-99331524D01*
X101793126Y-99331524D01*
X101793128Y-99331526D01*
X101867136Y-99362181D01*
X101941149Y-99392838D01*
X102020574Y-99403294D01*
X102099999Y-99413751D01*
X102100000Y-99413751D01*
X102100001Y-99413751D01*
X102135853Y-99409031D01*
X102143954Y-99408500D01*
X112656054Y-99408500D01*
X112664151Y-99409030D01*
X112689527Y-99412371D01*
X112699999Y-99413750D01*
X112700000Y-99413750D01*
X112700001Y-99413750D01*
X112735846Y-99409031D01*
X112737961Y-99408752D01*
X112737974Y-99408751D01*
X112739881Y-99408500D01*
X112739885Y-99408500D01*
X112821002Y-99397820D01*
X112839457Y-99395391D01*
X112858851Y-99392838D01*
X112858856Y-99392836D01*
X113006876Y-99331524D01*
X113102072Y-99258477D01*
X113102073Y-99258475D01*
X113110164Y-99252267D01*
X113110171Y-99252261D01*
X113133983Y-99233990D01*
X113133982Y-99233990D01*
X113133987Y-99233987D01*
X113156010Y-99205285D01*
X113161338Y-99199209D01*
X113929202Y-98431345D01*
X113935293Y-98426003D01*
X113963987Y-98403987D01*
X113982267Y-98380164D01*
X113988475Y-98372073D01*
X113988477Y-98372072D01*
X114061524Y-98276876D01*
X114090400Y-98207162D01*
X114122838Y-98128850D01*
X114138500Y-98009885D01*
X114138500Y-98009884D01*
X114138723Y-98008191D01*
X114138726Y-98008160D01*
X114141604Y-97986297D01*
X114143750Y-97970000D01*
X114141231Y-97950871D01*
X114151995Y-97881841D01*
X114193044Y-97833114D01*
X114374300Y-97706198D01*
X114536198Y-97544300D01*
X114667523Y-97356749D01*
X114764284Y-97149243D01*
X114823543Y-96928087D01*
X114843498Y-96700000D01*
X114823543Y-96471913D01*
X114764284Y-96250757D01*
X114667523Y-96043251D01*
X114536198Y-95855700D01*
X114374300Y-95693802D01*
X114186749Y-95562477D01*
X114162750Y-95551286D01*
X113979249Y-95465718D01*
X113979238Y-95465714D01*
X113758089Y-95406457D01*
X113758081Y-95406456D01*
X113530002Y-95386502D01*
X113529998Y-95386502D01*
X113301918Y-95406456D01*
X113301910Y-95406457D01*
X113080761Y-95465714D01*
X113080750Y-95465718D01*
X112873254Y-95562475D01*
X112873252Y-95562476D01*
X112823406Y-95597379D01*
X112685700Y-95693802D01*
X112685698Y-95693803D01*
X112685695Y-95693806D01*
X112523806Y-95855695D01*
X112392476Y-96043252D01*
X112392475Y-96043254D01*
X112295718Y-96250750D01*
X112295714Y-96250761D01*
X112236457Y-96471910D01*
X112236456Y-96471918D01*
X112216502Y-96699998D01*
X112216502Y-96700001D01*
X112236456Y-96928081D01*
X112236457Y-96928089D01*
X112295714Y-97149238D01*
X112295718Y-97149249D01*
X112390962Y-97353500D01*
X112392477Y-97356749D01*
X112523802Y-97544300D01*
X112523806Y-97544304D01*
X112685698Y-97706196D01*
X112685704Y-97706201D01*
X112710248Y-97723387D01*
X112753873Y-97777964D01*
X112761067Y-97847462D01*
X112729544Y-97909817D01*
X112726807Y-97912643D01*
X112484268Y-98155182D01*
X112422948Y-98188666D01*
X112396589Y-98191500D01*
X103801175Y-98191500D01*
X103734136Y-98171815D01*
X103688381Y-98119011D01*
X103678437Y-98049853D01*
X103707462Y-97986297D01*
X103766240Y-97948523D01*
X103769081Y-97947725D01*
X103773818Y-97946455D01*
X103819243Y-97934284D01*
X104026749Y-97837523D01*
X104214300Y-97706198D01*
X104376198Y-97544300D01*
X104507523Y-97356749D01*
X104604284Y-97149243D01*
X104663543Y-96928087D01*
X104683498Y-96700000D01*
X104663543Y-96471913D01*
X104604284Y-96250757D01*
X104507523Y-96043251D01*
X104376198Y-95855700D01*
X104214300Y-95693802D01*
X104214299Y-95693802D01*
X104081376Y-95600726D01*
X104037751Y-95546149D01*
X104028500Y-95499152D01*
X104028500Y-94040005D01*
X121936844Y-94040005D01*
X121955434Y-94264359D01*
X121955436Y-94264371D01*
X122010703Y-94482614D01*
X122101140Y-94688792D01*
X122224276Y-94877265D01*
X122224284Y-94877276D01*
X122336443Y-94999111D01*
X122376760Y-95042906D01*
X122554424Y-95181189D01*
X122554425Y-95181189D01*
X122554427Y-95181191D01*
X122596196Y-95203795D01*
X122752426Y-95288342D01*
X122965365Y-95361444D01*
X123187431Y-95398500D01*
X123412569Y-95398500D01*
X123634635Y-95361444D01*
X123847574Y-95288342D01*
X124045576Y-95181189D01*
X124223240Y-95042906D01*
X124375722Y-94877268D01*
X124498860Y-94688791D01*
X124589296Y-94482616D01*
X124644564Y-94264368D01*
X124651015Y-94186518D01*
X124663156Y-94040005D01*
X124663156Y-94039994D01*
X124644565Y-93815640D01*
X124644563Y-93815628D01*
X124641876Y-93805018D01*
X124589296Y-93597384D01*
X124498860Y-93391209D01*
X124375722Y-93202732D01*
X124375719Y-93202729D01*
X124375715Y-93202723D01*
X124230510Y-93044991D01*
X124199587Y-92982337D01*
X124207447Y-92912911D01*
X124251594Y-92858755D01*
X124278405Y-92844827D01*
X124358584Y-92814920D01*
X124396204Y-92800889D01*
X124513261Y-92713261D01*
X124600889Y-92596204D01*
X124651989Y-92459201D01*
X124655591Y-92425692D01*
X124658499Y-92398654D01*
X124658499Y-92398647D01*
X124658500Y-92398638D01*
X124658500Y-90601362D01*
X124658499Y-90601352D01*
X124658499Y-90601345D01*
X124655157Y-90570270D01*
X124651989Y-90540799D01*
X124600889Y-90403796D01*
X124513261Y-90286739D01*
X124396204Y-90199111D01*
X124396203Y-90199110D01*
X124259203Y-90148011D01*
X124198654Y-90141500D01*
X124198638Y-90141500D01*
X122401362Y-90141500D01*
X122401345Y-90141500D01*
X122340797Y-90148011D01*
X122340795Y-90148011D01*
X122203795Y-90199111D01*
X122086739Y-90286739D01*
X121999111Y-90403795D01*
X121948011Y-90540795D01*
X121948011Y-90540797D01*
X121941500Y-90601345D01*
X121941500Y-92398654D01*
X121948011Y-92459202D01*
X121948011Y-92459204D01*
X121990526Y-92573188D01*
X121999111Y-92596204D01*
X122086739Y-92713261D01*
X122203796Y-92800889D01*
X122255737Y-92820262D01*
X122321595Y-92844827D01*
X122377528Y-92886699D01*
X122401944Y-92952163D01*
X122387092Y-93020436D01*
X122369490Y-93044991D01*
X122224279Y-93202730D01*
X122224276Y-93202734D01*
X122101140Y-93391207D01*
X122010703Y-93597385D01*
X121955436Y-93815628D01*
X121955434Y-93815640D01*
X121936844Y-94039994D01*
X121936844Y-94040005D01*
X104028500Y-94040005D01*
X104028500Y-88604120D01*
X104048185Y-88537081D01*
X104064815Y-88516443D01*
X104400844Y-88180413D01*
X104462165Y-88146930D01*
X104517465Y-88147521D01*
X104713289Y-88194535D01*
X104950000Y-88213165D01*
X105186711Y-88194535D01*
X105417594Y-88139105D01*
X105417596Y-88139104D01*
X105417597Y-88139104D01*
X105636959Y-88048242D01*
X105636960Y-88048241D01*
X105636963Y-88048240D01*
X105839416Y-87924176D01*
X106019969Y-87769969D01*
X106174176Y-87589416D01*
X106243865Y-87475695D01*
X106279399Y-87417710D01*
X106331211Y-87370835D01*
X106385126Y-87358500D01*
X110014874Y-87358500D01*
X110081913Y-87378185D01*
X110120601Y-87417710D01*
X110225820Y-87589410D01*
X110225821Y-87589413D01*
X110225824Y-87589416D01*
X110380031Y-87769969D01*
X110498043Y-87870761D01*
X110560586Y-87924178D01*
X110560589Y-87924179D01*
X110763037Y-88048240D01*
X110763040Y-88048242D01*
X110982403Y-88139104D01*
X110982404Y-88139104D01*
X110982406Y-88139105D01*
X111213289Y-88194535D01*
X111450000Y-88213165D01*
X111686711Y-88194535D01*
X111917594Y-88139105D01*
X111917596Y-88139104D01*
X111917597Y-88139104D01*
X112136959Y-88048242D01*
X112136960Y-88048241D01*
X112136963Y-88048240D01*
X112339416Y-87924176D01*
X112519969Y-87769969D01*
X112674176Y-87589416D01*
X112798240Y-87386963D01*
X112804921Y-87370835D01*
X112889104Y-87167597D01*
X112889104Y-87167596D01*
X112889105Y-87167594D01*
X112944535Y-86936711D01*
X112963165Y-86700000D01*
X112944535Y-86463289D01*
X112897522Y-86267466D01*
X112901013Y-86197689D01*
X112930413Y-86150845D01*
X134186440Y-64894819D01*
X134247764Y-64861334D01*
X134274122Y-64858500D01*
X138913609Y-64858500D01*
X138929746Y-64860281D01*
X138929768Y-64860054D01*
X138937534Y-64860788D01*
X138937536Y-64860787D01*
X138937537Y-64860788D01*
X139010342Y-64858500D01*
X139041432Y-64858500D01*
X139048822Y-64857566D01*
X139054651Y-64857107D01*
X139103831Y-64855562D01*
X139124583Y-64849532D01*
X139143621Y-64845590D01*
X139165064Y-64842882D01*
X139210834Y-64824760D01*
X139216348Y-64822873D01*
X139242875Y-64815165D01*
X139263600Y-64809145D01*
X139282196Y-64798146D01*
X139299664Y-64789589D01*
X139319756Y-64781635D01*
X139359582Y-64752698D01*
X139364441Y-64749506D01*
X139406807Y-64724453D01*
X139422090Y-64709168D01*
X139436873Y-64696542D01*
X139454357Y-64683841D01*
X139485731Y-64645914D01*
X139489645Y-64641613D01*
X141604543Y-62526715D01*
X141617214Y-62516566D01*
X141617068Y-62516389D01*
X141623074Y-62511419D01*
X141623080Y-62511416D01*
X141672945Y-62458314D01*
X141694927Y-62436333D01*
X141699495Y-62430442D01*
X141703282Y-62426008D01*
X141736972Y-62390133D01*
X141747380Y-62371200D01*
X141758059Y-62354942D01*
X141771304Y-62337868D01*
X141790852Y-62292691D01*
X141793409Y-62287472D01*
X141817124Y-62244337D01*
X141822495Y-62223413D01*
X141828796Y-62205009D01*
X141837380Y-62185176D01*
X141842733Y-62151372D01*
X141845078Y-62136569D01*
X141846263Y-62130844D01*
X141858500Y-62083188D01*
X141858500Y-62061580D01*
X141860027Y-62042180D01*
X141863406Y-62020848D01*
X141858775Y-61971854D01*
X141858500Y-61966017D01*
X141858500Y-60613989D01*
X141878185Y-60546950D01*
X141930989Y-60501195D01*
X142000147Y-60491251D01*
X142063703Y-60520276D01*
X142101477Y-60579054D01*
X142106028Y-60603182D01*
X142106456Y-60608081D01*
X142106457Y-60608089D01*
X142165714Y-60829238D01*
X142165718Y-60829249D01*
X142262475Y-61036745D01*
X142262477Y-61036749D01*
X142393802Y-61224300D01*
X142555700Y-61386198D01*
X142743251Y-61517522D01*
X142743251Y-61517523D01*
X142786345Y-61537618D01*
X142838784Y-61583791D01*
X142857936Y-61650984D01*
X142837720Y-61717865D01*
X142786345Y-61762382D01*
X142743251Y-61782476D01*
X142618126Y-61870090D01*
X142555700Y-61913802D01*
X142555698Y-61913803D01*
X142555695Y-61913806D01*
X142393806Y-62075695D01*
X142393803Y-62075698D01*
X142393802Y-62075700D01*
X142355190Y-62130844D01*
X142262476Y-62263252D01*
X142262475Y-62263254D01*
X142165718Y-62470750D01*
X142165714Y-62470761D01*
X142106457Y-62691910D01*
X142106456Y-62691918D01*
X142086502Y-62919998D01*
X142086502Y-62920001D01*
X142106456Y-63148081D01*
X142106457Y-63148089D01*
X142165714Y-63369238D01*
X142165718Y-63369249D01*
X142250220Y-63550464D01*
X142262477Y-63576749D01*
X142393802Y-63764300D01*
X142555700Y-63926198D01*
X142743250Y-64057522D01*
X142743251Y-64057523D01*
X142786345Y-64077618D01*
X142838784Y-64123791D01*
X142857936Y-64190984D01*
X142837720Y-64257865D01*
X142786345Y-64302382D01*
X142743251Y-64322476D01*
X142619982Y-64408791D01*
X142555700Y-64453802D01*
X142555698Y-64453803D01*
X142555695Y-64453806D01*
X142393806Y-64615695D01*
X142393803Y-64615698D01*
X142393802Y-64615700D01*
X142337201Y-64696534D01*
X142262476Y-64803252D01*
X142262475Y-64803254D01*
X142165718Y-65010750D01*
X142165714Y-65010761D01*
X142106457Y-65231910D01*
X142106456Y-65231918D01*
X142086502Y-65459998D01*
X142086502Y-65460001D01*
X142106456Y-65688081D01*
X142106457Y-65688089D01*
X142165714Y-65909238D01*
X142165718Y-65909249D01*
X142262475Y-66116745D01*
X142262477Y-66116749D01*
X142393802Y-66304300D01*
X142555700Y-66466198D01*
X142743251Y-66597522D01*
X142743251Y-66597523D01*
X142786345Y-66617618D01*
X142838784Y-66663791D01*
X142857936Y-66730984D01*
X142837720Y-66797865D01*
X142786345Y-66842382D01*
X142743251Y-66862476D01*
X142626806Y-66944013D01*
X142555700Y-66993802D01*
X142555698Y-66993803D01*
X142555695Y-66993806D01*
X142393806Y-67155695D01*
X142393803Y-67155698D01*
X142393802Y-67155700D01*
X142300726Y-67288625D01*
X142246150Y-67332249D01*
X142199153Y-67341500D01*
X136077202Y-67341500D01*
X136061059Y-67339717D01*
X136061038Y-67339945D01*
X136053276Y-67339211D01*
X136053274Y-67339211D01*
X135980451Y-67341500D01*
X135949379Y-67341500D01*
X135949375Y-67341500D01*
X135949365Y-67341501D01*
X135941978Y-67342434D01*
X135936161Y-67342891D01*
X135886985Y-67344437D01*
X135886974Y-67344439D01*
X135866233Y-67350464D01*
X135847193Y-67354407D01*
X135825757Y-67357116D01*
X135825742Y-67357119D01*
X135779989Y-67375233D01*
X135774465Y-67377124D01*
X135727210Y-67390855D01*
X135708619Y-67401850D01*
X135691150Y-67410408D01*
X135671057Y-67418364D01*
X135671056Y-67418364D01*
X135671055Y-67418365D01*
X135646452Y-67436239D01*
X135631244Y-67447289D01*
X135626361Y-67450496D01*
X135584003Y-67475546D01*
X135568724Y-67490826D01*
X135553938Y-67503455D01*
X135536454Y-67516159D01*
X135536452Y-67516161D01*
X135536451Y-67516162D01*
X135505082Y-67554078D01*
X135501150Y-67558399D01*
X130295453Y-72764096D01*
X130282785Y-72774246D01*
X130282931Y-72774422D01*
X130276920Y-72779394D01*
X130227053Y-72832497D01*
X130205072Y-72854478D01*
X130200492Y-72860380D01*
X130196708Y-72864809D01*
X130163029Y-72900676D01*
X130163024Y-72900683D01*
X130152618Y-72919611D01*
X130141942Y-72935865D01*
X130128695Y-72952944D01*
X130109150Y-72998108D01*
X130106580Y-73003354D01*
X130082876Y-73046472D01*
X130077502Y-73067400D01*
X130071203Y-73085798D01*
X130062619Y-73105635D01*
X130054922Y-73154233D01*
X130053738Y-73159953D01*
X130041501Y-73207615D01*
X130041499Y-73207629D01*
X130041499Y-73229232D01*
X130039973Y-73248620D01*
X130036594Y-73269959D01*
X130036593Y-73269966D01*
X130041224Y-73318956D01*
X130041499Y-73324792D01*
X130041499Y-76675877D01*
X130021814Y-76742916D01*
X130005180Y-76763558D01*
X127495453Y-79273285D01*
X127482785Y-79283435D01*
X127482931Y-79283611D01*
X127476920Y-79288583D01*
X127427053Y-79341686D01*
X127405072Y-79363667D01*
X127400492Y-79369569D01*
X127396708Y-79373998D01*
X127363029Y-79409865D01*
X127363024Y-79409872D01*
X127352618Y-79428800D01*
X127341942Y-79445054D01*
X127328695Y-79462133D01*
X127309150Y-79507297D01*
X127306580Y-79512543D01*
X127282876Y-79555661D01*
X127277502Y-79576589D01*
X127271203Y-79594987D01*
X127262619Y-79614825D01*
X127254923Y-79663420D01*
X127253738Y-79669143D01*
X127241500Y-79716809D01*
X127241500Y-79738413D01*
X127239974Y-79757808D01*
X127236594Y-79779151D01*
X127236593Y-79779152D01*
X127241224Y-79828142D01*
X127241499Y-79833978D01*
X127241499Y-86420715D01*
X127239719Y-86436852D01*
X127239946Y-86436874D01*
X127239211Y-86444640D01*
X127241500Y-86517448D01*
X127241500Y-86548540D01*
X127242433Y-86555935D01*
X127242891Y-86561753D01*
X127244437Y-86610935D01*
X127244438Y-86610938D01*
X127250464Y-86631683D01*
X127254407Y-86650724D01*
X127257116Y-86672159D01*
X127257117Y-86672163D01*
X127257118Y-86672170D01*
X127273284Y-86713003D01*
X127275234Y-86717928D01*
X127277125Y-86723454D01*
X127290854Y-86770704D01*
X127290855Y-86770706D01*
X127298456Y-86783559D01*
X127301850Y-86789297D01*
X127310410Y-86806771D01*
X127318363Y-86826860D01*
X127347289Y-86866671D01*
X127350490Y-86871543D01*
X127375547Y-86913913D01*
X127375551Y-86913917D01*
X127390821Y-86929187D01*
X127403458Y-86943982D01*
X127416159Y-86961463D01*
X127454072Y-86992827D01*
X127458383Y-86996749D01*
X128214920Y-87753285D01*
X128805181Y-88343546D01*
X128838666Y-88404869D01*
X128841500Y-88431227D01*
X128841500Y-90017500D01*
X128821815Y-90084539D01*
X128769011Y-90130294D01*
X128717500Y-90141500D01*
X127051345Y-90141500D01*
X126990797Y-90148011D01*
X126990795Y-90148011D01*
X126853795Y-90199111D01*
X126736739Y-90286739D01*
X126649111Y-90403795D01*
X126598011Y-90540795D01*
X126598011Y-90540797D01*
X126591500Y-90601345D01*
X126591500Y-92398654D01*
X126598011Y-92459202D01*
X126598011Y-92459204D01*
X126640526Y-92573188D01*
X126649111Y-92596204D01*
X126736739Y-92713261D01*
X126853796Y-92800889D01*
X126905737Y-92820262D01*
X126971595Y-92844827D01*
X127027528Y-92886699D01*
X127051944Y-92952163D01*
X127037092Y-93020436D01*
X127019490Y-93044991D01*
X126874279Y-93202730D01*
X126874276Y-93202734D01*
X126751140Y-93391207D01*
X126660703Y-93597385D01*
X126605436Y-93815628D01*
X126605434Y-93815640D01*
X126586844Y-94039994D01*
X126586844Y-94040005D01*
X126605434Y-94264359D01*
X126605436Y-94264371D01*
X126660703Y-94482614D01*
X126751140Y-94688792D01*
X126874276Y-94877265D01*
X126874284Y-94877276D01*
X126986443Y-94999111D01*
X127026760Y-95042906D01*
X127204424Y-95181189D01*
X127204425Y-95181189D01*
X127204427Y-95181191D01*
X127246196Y-95203795D01*
X127402426Y-95288342D01*
X127615365Y-95361444D01*
X127837431Y-95398500D01*
X128062569Y-95398500D01*
X128284635Y-95361444D01*
X128497574Y-95288342D01*
X128695576Y-95181189D01*
X128873240Y-95042906D01*
X129025722Y-94877268D01*
X129148860Y-94688791D01*
X129239296Y-94482616D01*
X129294564Y-94264368D01*
X129301015Y-94186518D01*
X129313156Y-94040005D01*
X129313156Y-94039994D01*
X129294565Y-93815640D01*
X129294564Y-93815636D01*
X129294564Y-93815632D01*
X129293138Y-93810000D01*
X129273683Y-93733173D01*
X129276307Y-93663352D01*
X129306205Y-93615053D01*
X129904543Y-93016715D01*
X129917214Y-93006566D01*
X129917068Y-93006389D01*
X129923074Y-93001419D01*
X129923080Y-93001416D01*
X129972945Y-92948314D01*
X129994927Y-92926333D01*
X129999495Y-92920442D01*
X130003282Y-92916008D01*
X130036972Y-92880133D01*
X130047380Y-92861200D01*
X130058059Y-92844942D01*
X130071304Y-92827868D01*
X130090852Y-92782691D01*
X130093409Y-92777472D01*
X130117124Y-92734337D01*
X130122495Y-92713413D01*
X130128796Y-92695009D01*
X130137380Y-92675176D01*
X130144103Y-92632724D01*
X130145078Y-92626569D01*
X130146263Y-92620844D01*
X130158500Y-92573188D01*
X130158500Y-92551580D01*
X130160027Y-92532180D01*
X130163406Y-92510848D01*
X130158772Y-92461833D01*
X130158499Y-92456039D01*
X130158499Y-89289121D01*
X130178184Y-89222083D01*
X130230988Y-89176328D01*
X130300146Y-89166384D01*
X130363702Y-89195409D01*
X130370180Y-89201441D01*
X136623280Y-95454540D01*
X136633430Y-95467208D01*
X136633606Y-95467064D01*
X136638580Y-95473076D01*
X136691685Y-95522946D01*
X136713661Y-95544922D01*
X136713665Y-95544925D01*
X136713667Y-95544927D01*
X136719551Y-95549491D01*
X136723994Y-95553286D01*
X136759864Y-95586970D01*
X136759866Y-95586971D01*
X136759867Y-95586972D01*
X136778803Y-95597382D01*
X136795049Y-95608053D01*
X136812132Y-95621304D01*
X136812137Y-95621306D01*
X136857296Y-95640848D01*
X136862544Y-95643420D01*
X136894234Y-95660840D01*
X136905663Y-95667124D01*
X136921823Y-95671272D01*
X136926583Y-95672495D01*
X136944986Y-95678795D01*
X136964824Y-95687380D01*
X137001960Y-95693261D01*
X137013431Y-95695078D01*
X137019146Y-95696261D01*
X137066812Y-95708500D01*
X137088419Y-95708500D01*
X137107816Y-95710026D01*
X137129152Y-95713406D01*
X137178144Y-95708774D01*
X137183981Y-95708500D01*
X137227500Y-95708500D01*
X137294539Y-95728185D01*
X137340294Y-95780989D01*
X137351500Y-95832500D01*
X137351500Y-96893654D01*
X137358011Y-96954202D01*
X137358011Y-96954204D01*
X137409110Y-97091203D01*
X137409111Y-97091204D01*
X137496739Y-97208261D01*
X137613796Y-97295889D01*
X137750799Y-97346989D01*
X137778050Y-97349918D01*
X137811345Y-97353499D01*
X137811362Y-97353500D01*
X139408638Y-97353500D01*
X139408654Y-97353499D01*
X139435692Y-97350591D01*
X139469201Y-97346989D01*
X139606204Y-97295889D01*
X139606204Y-97295888D01*
X139606206Y-97295888D01*
X139606207Y-97295887D01*
X139623110Y-97283234D01*
X139688574Y-97258816D01*
X139697421Y-97258500D01*
X145426102Y-97258500D01*
X145493141Y-97278185D01*
X145538896Y-97330989D01*
X145546780Y-97353992D01*
X145548011Y-97359201D01*
X145599111Y-97496204D01*
X145686739Y-97613261D01*
X145803796Y-97700889D01*
X145940799Y-97751989D01*
X145968050Y-97754918D01*
X146001345Y-97758499D01*
X146001362Y-97758500D01*
X147898638Y-97758500D01*
X147898654Y-97758499D01*
X147925692Y-97755591D01*
X147959201Y-97751989D01*
X148096204Y-97700889D01*
X148213261Y-97613261D01*
X148300889Y-97496204D01*
X148351989Y-97359201D01*
X148355591Y-97325692D01*
X148358499Y-97298654D01*
X148358500Y-97298637D01*
X148358500Y-95401362D01*
X148358499Y-95401345D01*
X148355022Y-95369011D01*
X148351989Y-95340799D01*
X148300889Y-95203796D01*
X148213261Y-95086739D01*
X148096204Y-94999111D01*
X148026037Y-94972939D01*
X147970104Y-94931067D01*
X147945688Y-94865602D01*
X147960541Y-94797329D01*
X147978138Y-94772780D01*
X148065314Y-94678083D01*
X148192984Y-94482669D01*
X148286749Y-94268907D01*
X148344051Y-94042626D01*
X148362860Y-93815640D01*
X148363327Y-93810005D01*
X148363327Y-93809994D01*
X148344051Y-93577377D01*
X148344051Y-93577374D01*
X148286749Y-93351093D01*
X148192984Y-93137331D01*
X148065316Y-92941919D01*
X147941270Y-92807169D01*
X147910348Y-92744514D01*
X147908500Y-92723186D01*
X147908500Y-88320001D01*
X149706502Y-88320001D01*
X149726456Y-88548081D01*
X149726457Y-88548089D01*
X149785714Y-88769238D01*
X149785718Y-88769249D01*
X149882475Y-88976745D01*
X149882477Y-88976749D01*
X150013802Y-89164300D01*
X150175700Y-89326198D01*
X150363251Y-89457523D01*
X150488091Y-89515736D01*
X150570750Y-89554281D01*
X150570752Y-89554281D01*
X150570757Y-89554284D01*
X150791913Y-89613543D01*
X150954832Y-89627796D01*
X151019998Y-89633498D01*
X151020000Y-89633498D01*
X151020002Y-89633498D01*
X151077021Y-89628509D01*
X151248087Y-89613543D01*
X151469243Y-89554284D01*
X151676749Y-89457523D01*
X151864300Y-89326198D01*
X152026198Y-89164300D01*
X152157523Y-88976749D01*
X152254284Y-88769243D01*
X152313543Y-88548087D01*
X152333498Y-88320000D01*
X152328174Y-88259152D01*
X152318303Y-88146319D01*
X152313543Y-88091913D01*
X152254284Y-87870757D01*
X152157523Y-87663251D01*
X152026198Y-87475700D01*
X151864300Y-87313802D01*
X151676749Y-87182477D01*
X151633655Y-87162382D01*
X151581215Y-87116210D01*
X151562063Y-87049017D01*
X151582278Y-86982136D01*
X151633655Y-86937618D01*
X151651735Y-86929187D01*
X151676749Y-86917523D01*
X151864300Y-86786198D01*
X152026198Y-86624300D01*
X152157523Y-86436749D01*
X152254284Y-86229243D01*
X152313543Y-86008087D01*
X152333498Y-85780000D01*
X152313543Y-85551913D01*
X152254284Y-85330757D01*
X152157523Y-85123251D01*
X152026198Y-84935700D01*
X151864300Y-84773802D01*
X151676749Y-84642477D01*
X151633655Y-84622382D01*
X151581215Y-84576210D01*
X151562063Y-84509017D01*
X151582278Y-84442136D01*
X151633655Y-84397618D01*
X151636882Y-84396112D01*
X151676749Y-84377523D01*
X151864300Y-84246198D01*
X152026198Y-84084300D01*
X152157523Y-83896749D01*
X152254284Y-83689243D01*
X152313543Y-83468087D01*
X152333498Y-83240000D01*
X152313543Y-83011913D01*
X152254284Y-82790757D01*
X152157523Y-82583251D01*
X152026198Y-82395700D01*
X151864300Y-82233802D01*
X151676749Y-82102477D01*
X151633655Y-82082382D01*
X151581215Y-82036210D01*
X151562063Y-81969017D01*
X151582278Y-81902136D01*
X151633655Y-81857618D01*
X151636882Y-81856112D01*
X151676749Y-81837523D01*
X151864300Y-81706198D01*
X152026198Y-81544300D01*
X152157523Y-81356749D01*
X152254284Y-81149243D01*
X152313543Y-80928087D01*
X152333498Y-80700000D01*
X152313543Y-80471913D01*
X152254284Y-80250757D01*
X152157523Y-80043251D01*
X152026198Y-79855700D01*
X151864300Y-79693802D01*
X151676749Y-79562477D01*
X151633655Y-79542382D01*
X151581215Y-79496210D01*
X151562063Y-79429017D01*
X151582278Y-79362136D01*
X151633655Y-79317618D01*
X151636882Y-79316112D01*
X151676749Y-79297523D01*
X151864300Y-79166198D01*
X152026198Y-79004300D01*
X152157523Y-78816749D01*
X152254284Y-78609243D01*
X152313543Y-78388087D01*
X152333498Y-78160000D01*
X152313543Y-77931913D01*
X152254284Y-77710757D01*
X152234328Y-77667962D01*
X152207573Y-77610584D01*
X152157523Y-77503251D01*
X152026198Y-77315700D01*
X151864300Y-77153802D01*
X151676749Y-77022477D01*
X151640266Y-77005465D01*
X151633655Y-77002382D01*
X151581215Y-76956210D01*
X151562063Y-76889017D01*
X151582278Y-76822136D01*
X151633655Y-76777618D01*
X151636882Y-76776112D01*
X151676749Y-76757523D01*
X151864300Y-76626198D01*
X152026198Y-76464300D01*
X152157523Y-76276749D01*
X152254284Y-76069243D01*
X152313543Y-75848087D01*
X152333498Y-75620000D01*
X152313543Y-75391913D01*
X152254284Y-75170757D01*
X152250743Y-75163164D01*
X152173839Y-74998242D01*
X152157523Y-74963251D01*
X152026198Y-74775700D01*
X151864300Y-74613802D01*
X151676749Y-74482477D01*
X151633655Y-74462382D01*
X151581215Y-74416210D01*
X151562063Y-74349017D01*
X151582278Y-74282136D01*
X151633655Y-74237618D01*
X151640091Y-74234616D01*
X151676749Y-74217523D01*
X151864300Y-74086198D01*
X152026198Y-73924300D01*
X152157523Y-73736749D01*
X152254284Y-73529243D01*
X152313543Y-73308087D01*
X152333498Y-73080000D01*
X152313543Y-72851913D01*
X152254284Y-72630757D01*
X152157523Y-72423251D01*
X152026198Y-72235700D01*
X151864300Y-72073802D01*
X151676749Y-71942477D01*
X151676745Y-71942475D01*
X151469249Y-71845718D01*
X151469238Y-71845714D01*
X151248089Y-71786457D01*
X151248081Y-71786456D01*
X151020002Y-71766502D01*
X151019998Y-71766502D01*
X150791918Y-71786456D01*
X150791910Y-71786457D01*
X150570761Y-71845714D01*
X150570750Y-71845718D01*
X150363254Y-71942475D01*
X150363252Y-71942476D01*
X150363249Y-71942477D01*
X150363251Y-71942477D01*
X150175700Y-72073802D01*
X150175698Y-72073803D01*
X150175695Y-72073806D01*
X150013806Y-72235695D01*
X150013803Y-72235698D01*
X150013802Y-72235700D01*
X149975032Y-72291069D01*
X149882476Y-72423252D01*
X149882475Y-72423254D01*
X149785718Y-72630750D01*
X149785714Y-72630761D01*
X149726457Y-72851910D01*
X149726456Y-72851918D01*
X149706502Y-73079998D01*
X149706502Y-73080001D01*
X149726456Y-73308081D01*
X149726457Y-73308089D01*
X149785714Y-73529238D01*
X149785718Y-73529249D01*
X149818710Y-73600000D01*
X149882477Y-73736749D01*
X150013802Y-73924300D01*
X150175700Y-74086198D01*
X150363251Y-74217523D01*
X150406345Y-74237618D01*
X150458784Y-74283791D01*
X150477936Y-74350984D01*
X150457720Y-74417865D01*
X150406345Y-74462382D01*
X150363251Y-74482476D01*
X150241472Y-74567748D01*
X150175700Y-74613802D01*
X150175698Y-74613803D01*
X150175695Y-74613806D01*
X150013806Y-74775695D01*
X149882476Y-74963252D01*
X149882475Y-74963254D01*
X149785718Y-75170750D01*
X149785714Y-75170761D01*
X149726457Y-75391910D01*
X149726456Y-75391918D01*
X149706502Y-75619998D01*
X149706502Y-75620001D01*
X149726456Y-75848081D01*
X149726457Y-75848089D01*
X149785714Y-76069238D01*
X149785718Y-76069249D01*
X149877033Y-76265074D01*
X149882477Y-76276749D01*
X150013802Y-76464300D01*
X150175700Y-76626198D01*
X150320003Y-76727240D01*
X150363251Y-76757523D01*
X150406345Y-76777618D01*
X150458784Y-76823791D01*
X150477936Y-76890984D01*
X150457720Y-76957865D01*
X150406345Y-77002382D01*
X150363251Y-77022476D01*
X150276547Y-77083188D01*
X150175700Y-77153802D01*
X150175698Y-77153803D01*
X150175695Y-77153806D01*
X150013806Y-77315695D01*
X150013803Y-77315698D01*
X150013802Y-77315700D01*
X149964615Y-77385946D01*
X149882476Y-77503252D01*
X149882475Y-77503254D01*
X149785718Y-77710750D01*
X149785714Y-77710761D01*
X149726457Y-77931910D01*
X149726456Y-77931918D01*
X149706502Y-78159998D01*
X149706502Y-78160001D01*
X149726456Y-78388081D01*
X149726457Y-78388089D01*
X149785714Y-78609238D01*
X149785718Y-78609249D01*
X149845155Y-78736711D01*
X149882477Y-78816749D01*
X150013802Y-79004300D01*
X150175700Y-79166198D01*
X150350485Y-79288584D01*
X150363251Y-79297523D01*
X150406345Y-79317618D01*
X150458784Y-79363791D01*
X150477936Y-79430984D01*
X150457720Y-79497865D01*
X150406345Y-79542382D01*
X150363251Y-79562476D01*
X150238126Y-79650090D01*
X150175700Y-79693802D01*
X150175698Y-79693803D01*
X150175695Y-79693806D01*
X150013806Y-79855695D01*
X149882476Y-80043252D01*
X149882475Y-80043254D01*
X149785718Y-80250750D01*
X149785714Y-80250761D01*
X149726457Y-80471910D01*
X149726456Y-80471918D01*
X149706502Y-80699998D01*
X149706502Y-80700001D01*
X149726456Y-80928081D01*
X149726457Y-80928089D01*
X149785714Y-81149238D01*
X149785718Y-81149249D01*
X149882475Y-81356745D01*
X149882477Y-81356749D01*
X150013802Y-81544300D01*
X150175700Y-81706198D01*
X150363251Y-81837523D01*
X150406345Y-81857618D01*
X150458784Y-81903791D01*
X150477936Y-81970984D01*
X150457720Y-82037865D01*
X150406345Y-82082382D01*
X150363251Y-82102476D01*
X150238126Y-82190090D01*
X150175700Y-82233802D01*
X150175698Y-82233803D01*
X150175695Y-82233806D01*
X150013806Y-82395695D01*
X149882476Y-82583252D01*
X149882475Y-82583254D01*
X149785718Y-82790750D01*
X149785714Y-82790761D01*
X149726457Y-83011910D01*
X149726456Y-83011918D01*
X149706502Y-83239998D01*
X149706502Y-83240001D01*
X149726456Y-83468081D01*
X149726457Y-83468089D01*
X149785714Y-83689238D01*
X149785718Y-83689249D01*
X149882475Y-83896745D01*
X149882477Y-83896749D01*
X150013802Y-84084300D01*
X150175700Y-84246198D01*
X150314310Y-84343254D01*
X150363251Y-84377523D01*
X150406345Y-84397618D01*
X150458784Y-84443791D01*
X150477936Y-84510984D01*
X150457720Y-84577865D01*
X150406345Y-84622382D01*
X150363251Y-84642476D01*
X150238126Y-84730090D01*
X150175700Y-84773802D01*
X150175698Y-84773803D01*
X150175695Y-84773806D01*
X150013806Y-84935695D01*
X149882476Y-85123252D01*
X149882475Y-85123254D01*
X149785718Y-85330750D01*
X149785714Y-85330761D01*
X149726457Y-85551910D01*
X149726456Y-85551918D01*
X149706502Y-85779998D01*
X149706502Y-85780001D01*
X149726456Y-86008081D01*
X149726457Y-86008089D01*
X149785714Y-86229238D01*
X149785718Y-86229249D01*
X149815699Y-86293543D01*
X149882477Y-86436749D01*
X150013802Y-86624300D01*
X150175700Y-86786198D01*
X150358091Y-86913910D01*
X150363251Y-86917523D01*
X150406345Y-86937618D01*
X150458784Y-86983791D01*
X150477936Y-87050984D01*
X150457720Y-87117865D01*
X150406345Y-87162382D01*
X150363251Y-87182476D01*
X150238126Y-87270090D01*
X150175700Y-87313802D01*
X150175698Y-87313803D01*
X150175695Y-87313806D01*
X150013806Y-87475695D01*
X149882476Y-87663252D01*
X149882475Y-87663254D01*
X149785718Y-87870750D01*
X149785714Y-87870761D01*
X149726457Y-88091910D01*
X149726456Y-88091918D01*
X149706502Y-88319998D01*
X149706502Y-88320001D01*
X147908500Y-88320001D01*
X147908500Y-68000001D01*
X149706502Y-68000001D01*
X149726456Y-68228081D01*
X149726457Y-68228089D01*
X149785714Y-68449238D01*
X149785718Y-68449249D01*
X149882475Y-68656745D01*
X149882477Y-68656749D01*
X150013802Y-68844300D01*
X150175700Y-69006198D01*
X150363251Y-69137523D01*
X150440707Y-69173641D01*
X150570750Y-69234281D01*
X150570752Y-69234281D01*
X150570757Y-69234284D01*
X150791913Y-69293543D01*
X150954832Y-69307796D01*
X151019998Y-69313498D01*
X151020000Y-69313498D01*
X151020002Y-69313498D01*
X151077021Y-69308509D01*
X151248087Y-69293543D01*
X151469243Y-69234284D01*
X151676749Y-69137523D01*
X151864300Y-69006198D01*
X152026198Y-68844300D01*
X152157523Y-68656749D01*
X152254284Y-68449243D01*
X152313543Y-68228087D01*
X152333498Y-68000000D01*
X152313543Y-67771913D01*
X152254284Y-67550757D01*
X152253158Y-67548343D01*
X152192549Y-67418365D01*
X152157523Y-67343251D01*
X152026198Y-67155700D01*
X151864300Y-66993802D01*
X151676749Y-66862477D01*
X151633655Y-66842382D01*
X151581215Y-66796210D01*
X151562063Y-66729017D01*
X151582278Y-66662136D01*
X151633655Y-66617618D01*
X151636882Y-66616112D01*
X151676749Y-66597523D01*
X151864300Y-66466198D01*
X152026198Y-66304300D01*
X152157523Y-66116749D01*
X152254284Y-65909243D01*
X152313543Y-65688087D01*
X152333498Y-65460000D01*
X152313543Y-65231913D01*
X152254284Y-65010757D01*
X152250383Y-65002392D01*
X152203191Y-64901187D01*
X152157523Y-64803251D01*
X152026198Y-64615700D01*
X151864300Y-64453802D01*
X151676749Y-64322477D01*
X151633655Y-64302382D01*
X151581215Y-64256210D01*
X151562063Y-64189017D01*
X151582278Y-64122136D01*
X151633655Y-64077618D01*
X151636882Y-64076112D01*
X151676749Y-64057523D01*
X151864300Y-63926198D01*
X152026198Y-63764300D01*
X152157523Y-63576749D01*
X152254284Y-63369243D01*
X152313543Y-63148087D01*
X152333498Y-62920000D01*
X152313543Y-62691913D01*
X152254284Y-62470757D01*
X152248481Y-62458313D01*
X152203874Y-62362651D01*
X152157523Y-62263251D01*
X152026198Y-62075700D01*
X151864300Y-61913802D01*
X151676749Y-61782477D01*
X151676743Y-61782474D01*
X151633653Y-61762380D01*
X151581214Y-61716207D01*
X151562063Y-61649014D01*
X151582280Y-61582133D01*
X151633654Y-61537618D01*
X151676749Y-61517523D01*
X151864300Y-61386198D01*
X152026198Y-61224300D01*
X152157523Y-61036749D01*
X152254284Y-60829243D01*
X152313543Y-60608087D01*
X152333498Y-60380000D01*
X152313543Y-60151913D01*
X152254284Y-59930757D01*
X152242011Y-59904438D01*
X152182835Y-59777533D01*
X152157523Y-59723251D01*
X152026198Y-59535700D01*
X151864300Y-59373802D01*
X151676749Y-59242477D01*
X151676743Y-59242474D01*
X151633653Y-59222380D01*
X151581214Y-59176207D01*
X151562063Y-59109014D01*
X151582280Y-59042133D01*
X151633654Y-58997618D01*
X151676749Y-58977523D01*
X151864300Y-58846198D01*
X152026198Y-58684300D01*
X152157523Y-58496749D01*
X152254284Y-58289243D01*
X152313543Y-58068087D01*
X152333498Y-57840000D01*
X152333234Y-57836987D01*
X152319665Y-57681886D01*
X152313543Y-57611913D01*
X152254284Y-57390757D01*
X152157523Y-57183251D01*
X152026198Y-56995700D01*
X151864300Y-56833802D01*
X151676749Y-56702477D01*
X151676743Y-56702474D01*
X151633653Y-56682380D01*
X151581214Y-56636207D01*
X151562063Y-56569014D01*
X151582280Y-56502133D01*
X151633654Y-56457618D01*
X151676749Y-56437523D01*
X151864300Y-56306198D01*
X152026198Y-56144300D01*
X152157523Y-55956749D01*
X152254284Y-55749243D01*
X152313543Y-55528087D01*
X152333498Y-55300000D01*
X152313543Y-55071913D01*
X152254284Y-54850757D01*
X152157523Y-54643251D01*
X152026198Y-54455700D01*
X151864300Y-54293802D01*
X151676749Y-54162477D01*
X151676745Y-54162475D01*
X151469249Y-54065718D01*
X151469238Y-54065714D01*
X151248089Y-54006457D01*
X151248081Y-54006456D01*
X151020002Y-53986502D01*
X151019998Y-53986502D01*
X150791918Y-54006456D01*
X150791910Y-54006457D01*
X150570761Y-54065714D01*
X150570750Y-54065718D01*
X150363254Y-54162475D01*
X150363252Y-54162476D01*
X150363249Y-54162477D01*
X150363251Y-54162477D01*
X150175700Y-54293802D01*
X150175698Y-54293803D01*
X150175695Y-54293806D01*
X150013806Y-54455695D01*
X150013803Y-54455698D01*
X150013802Y-54455700D01*
X149941316Y-54559221D01*
X149882476Y-54643252D01*
X149882475Y-54643254D01*
X149785718Y-54850750D01*
X149785714Y-54850761D01*
X149726457Y-55071910D01*
X149726456Y-55071918D01*
X149706502Y-55299998D01*
X149706502Y-55300001D01*
X149726456Y-55528081D01*
X149726457Y-55528089D01*
X149785714Y-55749238D01*
X149785718Y-55749249D01*
X149861872Y-55912562D01*
X149882477Y-55956749D01*
X150013802Y-56144300D01*
X150175700Y-56306198D01*
X150363251Y-56437523D01*
X150406345Y-56457618D01*
X150458783Y-56503788D01*
X150477936Y-56570981D01*
X150457721Y-56637863D01*
X150406347Y-56682380D01*
X150363252Y-56702476D01*
X150292856Y-56751767D01*
X150175700Y-56833802D01*
X150175698Y-56833803D01*
X150175695Y-56833806D01*
X150013806Y-56995695D01*
X149882476Y-57183252D01*
X149882475Y-57183254D01*
X149785718Y-57390750D01*
X149785714Y-57390761D01*
X149726457Y-57611910D01*
X149726456Y-57611918D01*
X149706502Y-57839998D01*
X149706502Y-57840001D01*
X149726456Y-58068081D01*
X149726457Y-58068089D01*
X149785714Y-58289238D01*
X149785718Y-58289249D01*
X149882475Y-58496745D01*
X149882477Y-58496749D01*
X150013802Y-58684300D01*
X150175700Y-58846198D01*
X150363251Y-58977523D01*
X150406345Y-58997618D01*
X150458783Y-59043788D01*
X150477936Y-59110981D01*
X150457721Y-59177863D01*
X150406347Y-59222380D01*
X150363252Y-59242476D01*
X150363249Y-59242477D01*
X150363251Y-59242477D01*
X150175700Y-59373802D01*
X150175698Y-59373803D01*
X150175695Y-59373806D01*
X150013806Y-59535695D01*
X150013803Y-59535698D01*
X150013802Y-59535700D01*
X149963618Y-59607370D01*
X149882476Y-59723252D01*
X149882475Y-59723254D01*
X149785718Y-59930750D01*
X149785714Y-59930761D01*
X149726457Y-60151910D01*
X149726456Y-60151918D01*
X149706502Y-60379998D01*
X149706502Y-60380001D01*
X149726456Y-60608081D01*
X149726457Y-60608089D01*
X149785714Y-60829238D01*
X149785718Y-60829249D01*
X149882475Y-61036745D01*
X149882477Y-61036749D01*
X150013802Y-61224300D01*
X150175700Y-61386198D01*
X150363251Y-61517523D01*
X150406345Y-61537618D01*
X150458783Y-61583788D01*
X150477936Y-61650981D01*
X150457721Y-61717863D01*
X150406347Y-61762380D01*
X150363252Y-61782476D01*
X150363249Y-61782477D01*
X150363251Y-61782477D01*
X150175700Y-61913802D01*
X150175698Y-61913803D01*
X150175695Y-61913806D01*
X150013806Y-62075695D01*
X150013803Y-62075698D01*
X150013802Y-62075700D01*
X149975190Y-62130844D01*
X149882476Y-62263252D01*
X149882475Y-62263254D01*
X149785718Y-62470750D01*
X149785714Y-62470761D01*
X149726457Y-62691910D01*
X149726456Y-62691918D01*
X149706502Y-62919998D01*
X149706502Y-62920001D01*
X149726456Y-63148081D01*
X149726457Y-63148089D01*
X149785714Y-63369238D01*
X149785718Y-63369249D01*
X149870220Y-63550464D01*
X149882477Y-63576749D01*
X150013802Y-63764300D01*
X150175700Y-63926198D01*
X150363251Y-64057523D01*
X150406345Y-64077618D01*
X150458783Y-64123788D01*
X150477936Y-64190981D01*
X150457721Y-64257863D01*
X150406347Y-64302380D01*
X150363252Y-64322476D01*
X150363249Y-64322477D01*
X150363251Y-64322477D01*
X150175700Y-64453802D01*
X150175698Y-64453803D01*
X150175695Y-64453806D01*
X150013806Y-64615695D01*
X150013803Y-64615698D01*
X150013802Y-64615700D01*
X149957201Y-64696534D01*
X149882476Y-64803252D01*
X149882475Y-64803254D01*
X149785718Y-65010750D01*
X149785714Y-65010761D01*
X149726457Y-65231910D01*
X149726456Y-65231918D01*
X149706502Y-65459998D01*
X149706502Y-65460001D01*
X149726456Y-65688081D01*
X149726457Y-65688089D01*
X149785714Y-65909238D01*
X149785718Y-65909249D01*
X149882475Y-66116745D01*
X149882477Y-66116749D01*
X150013802Y-66304300D01*
X150175700Y-66466198D01*
X150363251Y-66597523D01*
X150406345Y-66617618D01*
X150458784Y-66663791D01*
X150477936Y-66730984D01*
X150457720Y-66797865D01*
X150406345Y-66842382D01*
X150363251Y-66862476D01*
X150246806Y-66944013D01*
X150175700Y-66993802D01*
X150175698Y-66993803D01*
X150175695Y-66993806D01*
X150013806Y-67155695D01*
X149882476Y-67343252D01*
X149882475Y-67343254D01*
X149785718Y-67550750D01*
X149785714Y-67550761D01*
X149726457Y-67771910D01*
X149726456Y-67771918D01*
X149706502Y-67999998D01*
X149706502Y-68000001D01*
X147908500Y-68000001D01*
X147908500Y-50863898D01*
X147928185Y-50796859D01*
X147980989Y-50751104D01*
X148003992Y-50743220D01*
X148009195Y-50741989D01*
X148009201Y-50741989D01*
X148146204Y-50690889D01*
X148263261Y-50603261D01*
X148350889Y-50486204D01*
X148401989Y-50349201D01*
X148405591Y-50315692D01*
X148408499Y-50288654D01*
X148408500Y-50288637D01*
X148408500Y-48391362D01*
X148408499Y-48391345D01*
X148405157Y-48360270D01*
X148401989Y-48330799D01*
X148350889Y-48193796D01*
X148263261Y-48076739D01*
X148146204Y-47989111D01*
X148076037Y-47962939D01*
X148020104Y-47921067D01*
X147995688Y-47855602D01*
X148010541Y-47787329D01*
X148028138Y-47762780D01*
X148115314Y-47668083D01*
X148242984Y-47472669D01*
X148336749Y-47258907D01*
X148394051Y-47032626D01*
X148413327Y-46800000D01*
X148405395Y-46704281D01*
X148394051Y-46567377D01*
X148394051Y-46567374D01*
X148336749Y-46341093D01*
X148242984Y-46127331D01*
X148115314Y-45931917D01*
X148115313Y-45931915D01*
X147957223Y-45760185D01*
X147957222Y-45760184D01*
X147957220Y-45760182D01*
X147773017Y-45616810D01*
X147773015Y-45616809D01*
X147773014Y-45616808D01*
X147773011Y-45616806D01*
X147567733Y-45505716D01*
X147567730Y-45505715D01*
X147567727Y-45505713D01*
X147567721Y-45505711D01*
X147567719Y-45505710D01*
X147346954Y-45429920D01*
X147174271Y-45401105D01*
X147116712Y-45391500D01*
X146927675Y-45391500D01*
X146860636Y-45371815D01*
X146839994Y-45355181D01*
X146369865Y-44885052D01*
X146357228Y-44870257D01*
X146348866Y-44858747D01*
X146296777Y-44811846D01*
X146294438Y-44809625D01*
X146278744Y-44793931D01*
X146278744Y-44793930D01*
X146278741Y-44793928D01*
X146261476Y-44779946D01*
X146259017Y-44777846D01*
X146206947Y-44730962D01*
X146206944Y-44730960D01*
X146194610Y-44723838D01*
X146178590Y-44712827D01*
X146167533Y-44703873D01*
X146167531Y-44703872D01*
X146167530Y-44703871D01*
X146105087Y-44672055D01*
X146102262Y-44670521D01*
X146041556Y-44635473D01*
X146041557Y-44635473D01*
X146041553Y-44635471D01*
X146041550Y-44635470D01*
X146028018Y-44631073D01*
X146010051Y-44623631D01*
X145997373Y-44617171D01*
X145964200Y-44608282D01*
X145929663Y-44599028D01*
X145926604Y-44598121D01*
X145893540Y-44587378D01*
X145859927Y-44576457D01*
X145845767Y-44574969D01*
X145826644Y-44571424D01*
X145820579Y-44569799D01*
X145812901Y-44567742D01*
X145742925Y-44564074D01*
X145739693Y-44563820D01*
X145734776Y-44563303D01*
X145717610Y-44561500D01*
X145717603Y-44561500D01*
X145695404Y-44561500D01*
X145692160Y-44561415D01*
X145622190Y-44557748D01*
X145622189Y-44557748D01*
X145622188Y-44557748D01*
X145608142Y-44559973D01*
X145588743Y-44561500D01*
X140643360Y-44561500D01*
X140576321Y-44541815D01*
X140555679Y-44525181D01*
X140494304Y-44463806D01*
X140494304Y-44463805D01*
X140494300Y-44463802D01*
X140306749Y-44332477D01*
X140306745Y-44332475D01*
X140099249Y-44235718D01*
X140099238Y-44235714D01*
X139878089Y-44176457D01*
X139878081Y-44176456D01*
X139650002Y-44156502D01*
X139649998Y-44156502D01*
X139421918Y-44176456D01*
X139421910Y-44176457D01*
X139200761Y-44235714D01*
X139200750Y-44235718D01*
X138993254Y-44332475D01*
X138993252Y-44332476D01*
X138993249Y-44332477D01*
X138993251Y-44332477D01*
X138805700Y-44463802D01*
X138805698Y-44463803D01*
X138805695Y-44463806D01*
X138643806Y-44625695D01*
X138643803Y-44625698D01*
X138643802Y-44625700D01*
X138636959Y-44635473D01*
X138512476Y-44813252D01*
X138512475Y-44813254D01*
X138415718Y-45020750D01*
X138415714Y-45020761D01*
X138356457Y-45241910D01*
X138356456Y-45241918D01*
X138336502Y-45469998D01*
X138336502Y-45470001D01*
X138356456Y-45698081D01*
X138356457Y-45698089D01*
X138415714Y-45919238D01*
X138415718Y-45919249D01*
X138512475Y-46126745D01*
X138512477Y-46126749D01*
X138643802Y-46314300D01*
X138805700Y-46476198D01*
X138993251Y-46607523D01*
X139064353Y-46640678D01*
X139200750Y-46704281D01*
X139200752Y-46704281D01*
X139200757Y-46704284D01*
X139421913Y-46763543D01*
X139584832Y-46777796D01*
X139649998Y-46783498D01*
X139650000Y-46783498D01*
X139650002Y-46783498D01*
X139707021Y-46778509D01*
X139878087Y-46763543D01*
X140099243Y-46704284D01*
X140306749Y-46607523D01*
X140494300Y-46476198D01*
X140555679Y-46414818D01*
X140617002Y-46381334D01*
X140643360Y-46378500D01*
X145242325Y-46378500D01*
X145309364Y-46398185D01*
X145330006Y-46414819D01*
X145555865Y-46640678D01*
X145589350Y-46702001D01*
X145591760Y-46738597D01*
X145586674Y-46799994D01*
X145586673Y-46800004D01*
X145586673Y-46800005D01*
X145605948Y-47032622D01*
X145663251Y-47258907D01*
X145757015Y-47472668D01*
X145884686Y-47668084D01*
X145971856Y-47762775D01*
X146002779Y-47825429D01*
X145994919Y-47894855D01*
X145950772Y-47949011D01*
X145923963Y-47962939D01*
X145853794Y-47989111D01*
X145736739Y-48076739D01*
X145649111Y-48193795D01*
X145598011Y-48330795D01*
X145598011Y-48330797D01*
X145591500Y-48391345D01*
X145591500Y-50288654D01*
X145598011Y-50349202D01*
X145598011Y-50349204D01*
X145649110Y-50486204D01*
X145649111Y-50486204D01*
X145736739Y-50603261D01*
X145853796Y-50690889D01*
X145990799Y-50741989D01*
X145990803Y-50741989D01*
X145996008Y-50743220D01*
X146056726Y-50777790D01*
X146089116Y-50839698D01*
X146091500Y-50863898D01*
X146091500Y-51901870D01*
X146071815Y-51968909D01*
X146019011Y-52014664D01*
X145949853Y-52024608D01*
X145886297Y-51995583D01*
X145883725Y-51993060D01*
X145883695Y-51993095D01*
X145845698Y-51958883D01*
X145841106Y-51954290D01*
X145829922Y-51941869D01*
X145811253Y-51921134D01*
X145792960Y-51907843D01*
X145775146Y-51894900D01*
X145770100Y-51890813D01*
X145736947Y-51860962D01*
X145736938Y-51860956D01*
X145698300Y-51838648D01*
X145692857Y-51835113D01*
X145666414Y-51815902D01*
X145656752Y-51808882D01*
X145641402Y-51802048D01*
X145615984Y-51790731D01*
X145610197Y-51787783D01*
X145609535Y-51787401D01*
X145571556Y-51765473D01*
X145571555Y-51765472D01*
X145571554Y-51765472D01*
X145529118Y-51751683D01*
X145523056Y-51749357D01*
X145482290Y-51731206D01*
X145438639Y-51721928D01*
X145432367Y-51720247D01*
X145389926Y-51706457D01*
X145389928Y-51706457D01*
X145345547Y-51701792D01*
X145339136Y-51700777D01*
X145295487Y-51691500D01*
X145247610Y-51691500D01*
X142781257Y-51691500D01*
X142761859Y-51689973D01*
X142756734Y-51689161D01*
X142747811Y-51687748D01*
X142747810Y-51687748D01*
X142677839Y-51691415D01*
X142674596Y-51691500D01*
X142652390Y-51691500D01*
X142645116Y-51692264D01*
X142630304Y-51693820D01*
X142627073Y-51694074D01*
X142557097Y-51697742D01*
X142543344Y-51701427D01*
X142524223Y-51704970D01*
X142510072Y-51706457D01*
X142510070Y-51706458D01*
X142443435Y-51728109D01*
X142440324Y-51729030D01*
X142372631Y-51747168D01*
X142359947Y-51753632D01*
X142341982Y-51761073D01*
X142328447Y-51765472D01*
X142328441Y-51765474D01*
X142328440Y-51765474D01*
X142267771Y-51800500D01*
X142264922Y-51802048D01*
X142202468Y-51833872D01*
X142202460Y-51833877D01*
X142191399Y-51842833D01*
X142175388Y-51853838D01*
X142163059Y-51860957D01*
X142163052Y-51860962D01*
X142110985Y-51907843D01*
X142108521Y-51909948D01*
X142091258Y-51923928D01*
X142091247Y-51923939D01*
X142075545Y-51939639D01*
X142073195Y-51941869D01*
X142021133Y-51988746D01*
X142012769Y-52000259D01*
X142000135Y-52015050D01*
X140881029Y-53134156D01*
X140855354Y-53153859D01*
X140843058Y-53160958D01*
X140843053Y-53160962D01*
X140790991Y-53207838D01*
X140788527Y-53209943D01*
X140771267Y-53223921D01*
X140771248Y-53223938D01*
X140755545Y-53239639D01*
X140753195Y-53241869D01*
X140701133Y-53288746D01*
X140692769Y-53300259D01*
X140680135Y-53315050D01*
X139713347Y-54281838D01*
X139652024Y-54315323D01*
X139636474Y-54317685D01*
X139421917Y-54336456D01*
X139421910Y-54336457D01*
X139200761Y-54395714D01*
X139200750Y-54395718D01*
X138993254Y-54492475D01*
X138993252Y-54492476D01*
X138966436Y-54511253D01*
X138805700Y-54623802D01*
X138805698Y-54623803D01*
X138805695Y-54623806D01*
X138643806Y-54785695D01*
X138643803Y-54785698D01*
X138643802Y-54785700D01*
X138598246Y-54850761D01*
X138512476Y-54973252D01*
X138512475Y-54973254D01*
X138415718Y-55180750D01*
X138415714Y-55180761D01*
X138356457Y-55401910D01*
X138356456Y-55401917D01*
X138337685Y-55616474D01*
X138312232Y-55681542D01*
X138301838Y-55693347D01*
X136690006Y-57305181D01*
X136628683Y-57338666D01*
X136602325Y-57341500D01*
X126242675Y-57341500D01*
X126175636Y-57321815D01*
X126129881Y-57269011D01*
X126119937Y-57199853D01*
X126148962Y-57136297D01*
X126154994Y-57129819D01*
X128018618Y-55266194D01*
X128079941Y-55232709D01*
X128149633Y-55237693D01*
X128205566Y-55279565D01*
X128229983Y-55345029D01*
X128230299Y-55353875D01*
X128230299Y-55386219D01*
X128241028Y-55471635D01*
X128241029Y-55471639D01*
X128296985Y-55606728D01*
X128296986Y-55606730D01*
X128349791Y-55674707D01*
X128349803Y-55674720D01*
X128825283Y-56150200D01*
X128825293Y-56150209D01*
X128878229Y-56191329D01*
X128893271Y-56203014D01*
X129028363Y-56258971D01*
X129113781Y-56269700D01*
X129786218Y-56269701D01*
X129871638Y-56258971D01*
X130006730Y-56203014D01*
X130053453Y-56166718D01*
X130074707Y-56150208D01*
X130074710Y-56150205D01*
X130074718Y-56150199D01*
X130550202Y-55674715D01*
X130603014Y-55606729D01*
X130658971Y-55471637D01*
X130669700Y-55386219D01*
X130669701Y-54713782D01*
X130658971Y-54628362D01*
X130603014Y-54493270D01*
X130573825Y-54455695D01*
X130550208Y-54425292D01*
X130550196Y-54425279D01*
X130074716Y-53949799D01*
X130074706Y-53949790D01*
X130007939Y-53897926D01*
X129967072Y-53841255D01*
X129963331Y-53771486D01*
X129997904Y-53710769D01*
X130007929Y-53702081D01*
X130074718Y-53650199D01*
X130550202Y-53174715D01*
X130603014Y-53106729D01*
X130658971Y-52971637D01*
X130669700Y-52886219D01*
X130669701Y-52213782D01*
X130658971Y-52128362D01*
X130603014Y-51993270D01*
X130584090Y-51968909D01*
X130550208Y-51925292D01*
X130550196Y-51925279D01*
X130074716Y-51449799D01*
X130074706Y-51449790D01*
X130006729Y-51396986D01*
X130006724Y-51396984D01*
X129871637Y-51341029D01*
X129850282Y-51338346D01*
X129786222Y-51330300D01*
X129786215Y-51330299D01*
X129113780Y-51330299D01*
X129028364Y-51341028D01*
X129028360Y-51341029D01*
X128893272Y-51396984D01*
X128825282Y-51449801D01*
X128825275Y-51449807D01*
X128487680Y-51787401D01*
X128426357Y-51820886D01*
X128356665Y-51815902D01*
X128312318Y-51787401D01*
X127974716Y-51449799D01*
X127974706Y-51449790D01*
X127906729Y-51396986D01*
X127906724Y-51396984D01*
X127771637Y-51341029D01*
X127750282Y-51338346D01*
X127686222Y-51330300D01*
X127686215Y-51330299D01*
X127013780Y-51330299D01*
X126928364Y-51341028D01*
X126928360Y-51341029D01*
X126793271Y-51396985D01*
X126793269Y-51396986D01*
X126725292Y-51449791D01*
X126725279Y-51449803D01*
X126249799Y-51925283D01*
X126249790Y-51925293D01*
X126196986Y-51993270D01*
X126164561Y-52071551D01*
X126120719Y-52125955D01*
X126054425Y-52148019D01*
X125986726Y-52130739D01*
X125939116Y-52079602D01*
X125935439Y-52071551D01*
X125917184Y-52027480D01*
X125903014Y-51993270D01*
X125884090Y-51968909D01*
X125850208Y-51925292D01*
X125850196Y-51925279D01*
X125374716Y-51449799D01*
X125374706Y-51449790D01*
X125306729Y-51396986D01*
X125306724Y-51396984D01*
X125171637Y-51341029D01*
X125150282Y-51338346D01*
X125086222Y-51330300D01*
X125086215Y-51330299D01*
X124413780Y-51330299D01*
X124328364Y-51341028D01*
X124328360Y-51341029D01*
X124193271Y-51396985D01*
X124193269Y-51396986D01*
X124125292Y-51449791D01*
X124125279Y-51449803D01*
X123649799Y-51925283D01*
X123649790Y-51925293D01*
X123596986Y-51993270D01*
X123541029Y-52128363D01*
X123530300Y-52213777D01*
X123530299Y-52213784D01*
X123530299Y-52886219D01*
X123541028Y-52971635D01*
X123541029Y-52971639D01*
X123596985Y-53106728D01*
X123596986Y-53106730D01*
X123649791Y-53174707D01*
X123649803Y-53174720D01*
X124125283Y-53650200D01*
X124125293Y-53650209D01*
X124178229Y-53691329D01*
X124193271Y-53703014D01*
X124328363Y-53758971D01*
X124413781Y-53769700D01*
X125086218Y-53769701D01*
X125171638Y-53758971D01*
X125306730Y-53703014D01*
X125353453Y-53666718D01*
X125374707Y-53650208D01*
X125374710Y-53650205D01*
X125374718Y-53650199D01*
X125850202Y-53174715D01*
X125903014Y-53106729D01*
X125935439Y-53028447D01*
X125979278Y-52974045D01*
X126045572Y-52951980D01*
X126113272Y-52969259D01*
X126160882Y-53020396D01*
X126164560Y-53028448D01*
X126196985Y-53106728D01*
X126196986Y-53106730D01*
X126249791Y-53174707D01*
X126249803Y-53174720D01*
X126725283Y-53650200D01*
X126725293Y-53650209D01*
X126799835Y-53708113D01*
X126798883Y-53709337D01*
X126840487Y-53753234D01*
X126853503Y-53821881D01*
X126827340Y-53886667D01*
X126817782Y-53897403D01*
X123165050Y-57550135D01*
X123150259Y-57562769D01*
X123138746Y-57571134D01*
X123108886Y-57604296D01*
X123104296Y-57608886D01*
X123071132Y-57638748D01*
X123044901Y-57674851D01*
X123040816Y-57679896D01*
X123010960Y-57713055D01*
X123010959Y-57713057D01*
X123003841Y-57725384D01*
X122992831Y-57741403D01*
X122983874Y-57752465D01*
X122983868Y-57752473D01*
X122977406Y-57765155D01*
X122967251Y-57781726D01*
X122958881Y-57793247D01*
X122940731Y-57834015D01*
X122937783Y-57839800D01*
X122915472Y-57878443D01*
X122911071Y-57891988D01*
X122903630Y-57909951D01*
X122897174Y-57922622D01*
X122897168Y-57922636D01*
X122893487Y-57936375D01*
X122886997Y-57954703D01*
X122881206Y-57967711D01*
X122871928Y-58011359D01*
X122870248Y-58017630D01*
X122856457Y-58060071D01*
X122856457Y-58060072D01*
X122854970Y-58074223D01*
X122851427Y-58093344D01*
X122847743Y-58107095D01*
X122847742Y-58107099D01*
X122846997Y-58121310D01*
X122844459Y-58140586D01*
X122841500Y-58154511D01*
X122841500Y-58224594D01*
X122841415Y-58227839D01*
X122837748Y-58297810D01*
X122837747Y-58297810D01*
X122839973Y-58311862D01*
X122841499Y-58331256D01*
X122841500Y-59784958D01*
X122821815Y-59851997D01*
X122798032Y-59879248D01*
X122680031Y-59980031D01*
X122525821Y-60160586D01*
X122525820Y-60160589D01*
X122401759Y-60363037D01*
X122401757Y-60363040D01*
X122310895Y-60582402D01*
X122310895Y-60582404D01*
X122255465Y-60813285D01*
X122236835Y-61050000D01*
X122249010Y-61204703D01*
X122234646Y-61273080D01*
X122213073Y-61302112D01*
X119165050Y-64350135D01*
X119150259Y-64362769D01*
X119138746Y-64371133D01*
X119091869Y-64423195D01*
X119089639Y-64425545D01*
X119073939Y-64441247D01*
X119073928Y-64441258D01*
X119059948Y-64458521D01*
X119057843Y-64460985D01*
X119010962Y-64513052D01*
X119010957Y-64513059D01*
X119003838Y-64525388D01*
X118992833Y-64541400D01*
X118983873Y-64552466D01*
X118983871Y-64552468D01*
X118952053Y-64614913D01*
X118950505Y-64617765D01*
X118915471Y-64678445D01*
X118911071Y-64691988D01*
X118903630Y-64709951D01*
X118897171Y-64722628D01*
X118897169Y-64722634D01*
X118886379Y-64762902D01*
X118879031Y-64790324D01*
X118878115Y-64793416D01*
X118856457Y-64860074D01*
X118856457Y-64860077D01*
X118854970Y-64874223D01*
X118851427Y-64893344D01*
X118847742Y-64907097D01*
X118844074Y-64977073D01*
X118843820Y-64980304D01*
X118841500Y-65002392D01*
X118841499Y-65002399D01*
X118841499Y-65024599D01*
X118841414Y-65027841D01*
X118837747Y-65097810D01*
X118839973Y-65111861D01*
X118841499Y-65131256D01*
X118841500Y-66311655D01*
X118821815Y-66378694D01*
X118769012Y-66424449D01*
X118760835Y-66427836D01*
X118703795Y-66449111D01*
X118586739Y-66536739D01*
X118499111Y-66653795D01*
X118448011Y-66790795D01*
X118448011Y-66790797D01*
X118441500Y-66851345D01*
X118441500Y-67672325D01*
X118421815Y-67739364D01*
X118405181Y-67760006D01*
X115510006Y-70655181D01*
X115448683Y-70688666D01*
X115422325Y-70691500D01*
X110256378Y-70691500D01*
X110189339Y-70671815D01*
X110143584Y-70619011D01*
X110133056Y-70554546D01*
X110133540Y-70549932D01*
X110133542Y-70549928D01*
X110135030Y-70535764D01*
X110138573Y-70516648D01*
X110142257Y-70502903D01*
X110145925Y-70432911D01*
X110146178Y-70429698D01*
X110148500Y-70407610D01*
X110148500Y-70385404D01*
X110148585Y-70382158D01*
X110152252Y-70312190D01*
X110150026Y-70298140D01*
X110148500Y-70278743D01*
X110148500Y-69907302D01*
X110168185Y-69840263D01*
X110181264Y-69823326D01*
X110315722Y-69677268D01*
X110438860Y-69488791D01*
X110529296Y-69282616D01*
X110584564Y-69064368D01*
X110588959Y-69011334D01*
X110603156Y-68840005D01*
X110603156Y-68839994D01*
X110584565Y-68615640D01*
X110584563Y-68615628D01*
X110542430Y-68449249D01*
X110529296Y-68397384D01*
X110438860Y-68191209D01*
X110315722Y-68002732D01*
X110315719Y-68002729D01*
X110315715Y-68002723D01*
X110163243Y-67837097D01*
X110163238Y-67837092D01*
X109985577Y-67698812D01*
X109985578Y-67698812D01*
X109985576Y-67698811D01*
X109949070Y-67679055D01*
X109899479Y-67629836D01*
X109884371Y-67561619D01*
X109908541Y-67496064D01*
X109949070Y-67460945D01*
X109949084Y-67460936D01*
X109985576Y-67441189D01*
X110163240Y-67302906D01*
X110315722Y-67137268D01*
X110438860Y-66948791D01*
X110529296Y-66742616D01*
X110584564Y-66524368D01*
X110592844Y-66424449D01*
X110603156Y-66300005D01*
X110603156Y-66299994D01*
X110584565Y-66075640D01*
X110584563Y-66075628D01*
X110542430Y-65909249D01*
X110529296Y-65857384D01*
X110438860Y-65651209D01*
X110422706Y-65626484D01*
X110315723Y-65462734D01*
X110315715Y-65462723D01*
X110163243Y-65297097D01*
X110163238Y-65297092D01*
X109985577Y-65158812D01*
X109985572Y-65158808D01*
X109787580Y-65051661D01*
X109787577Y-65051659D01*
X109787574Y-65051658D01*
X109787571Y-65051657D01*
X109787569Y-65051656D01*
X109574637Y-64978556D01*
X109352569Y-64941500D01*
X109127431Y-64941500D01*
X108905362Y-64978556D01*
X108692430Y-65051656D01*
X108692419Y-65051661D01*
X108494427Y-65158808D01*
X108494422Y-65158812D01*
X108316761Y-65297092D01*
X108316756Y-65297097D01*
X108164284Y-65462723D01*
X108164276Y-65462734D01*
X108073808Y-65601206D01*
X108020662Y-65646562D01*
X107951431Y-65655986D01*
X107888095Y-65626484D01*
X107866192Y-65601206D01*
X107775723Y-65462734D01*
X107775715Y-65462723D01*
X107623243Y-65297097D01*
X107623238Y-65297092D01*
X107445577Y-65158812D01*
X107445572Y-65158808D01*
X107409068Y-65139053D01*
X107359478Y-65089833D01*
X107344371Y-65021616D01*
X107368542Y-64956061D01*
X107409069Y-64920945D01*
X107445576Y-64901189D01*
X107623240Y-64762906D01*
X107758759Y-64615695D01*
X107775715Y-64597276D01*
X107775716Y-64597274D01*
X107775722Y-64597268D01*
X107898860Y-64408791D01*
X107989296Y-64202616D01*
X108044564Y-63984368D01*
X108049385Y-63926193D01*
X108063156Y-63760005D01*
X108063156Y-63759994D01*
X108044565Y-63535640D01*
X108044563Y-63535628D01*
X108036853Y-63505181D01*
X107989296Y-63317384D01*
X107898860Y-63111209D01*
X107898120Y-63110077D01*
X107837290Y-63016970D01*
X107775722Y-62922732D01*
X107775719Y-62922729D01*
X107775715Y-62922723D01*
X107623243Y-62757097D01*
X107623238Y-62757092D01*
X107504797Y-62664905D01*
X107445576Y-62618811D01*
X107445575Y-62618810D01*
X107445572Y-62618808D01*
X107247580Y-62511661D01*
X107247577Y-62511659D01*
X107247574Y-62511658D01*
X107247571Y-62511657D01*
X107247569Y-62511656D01*
X107034637Y-62438556D01*
X106812569Y-62401500D01*
X106587431Y-62401500D01*
X106365362Y-62438556D01*
X106152430Y-62511656D01*
X106152419Y-62511661D01*
X105954427Y-62618808D01*
X105954422Y-62618812D01*
X105776761Y-62757092D01*
X105776756Y-62757097D01*
X105624284Y-62922723D01*
X105624276Y-62922734D01*
X105501140Y-63111207D01*
X105410703Y-63317385D01*
X105355436Y-63535628D01*
X105355434Y-63535640D01*
X105336844Y-63759994D01*
X105336844Y-63760005D01*
X105355434Y-63984359D01*
X105355436Y-63984371D01*
X105410703Y-64202614D01*
X105501140Y-64408792D01*
X105624276Y-64597265D01*
X105624284Y-64597276D01*
X105776756Y-64762902D01*
X105776761Y-64762907D01*
X105835981Y-64809000D01*
X105954424Y-64901189D01*
X105990930Y-64920945D01*
X106040519Y-64970162D01*
X106055629Y-65038378D01*
X106031459Y-65103934D01*
X105990932Y-65139052D01*
X105954432Y-65158805D01*
X105954422Y-65158812D01*
X105776761Y-65297092D01*
X105776756Y-65297097D01*
X105624284Y-65462723D01*
X105624276Y-65462734D01*
X105501140Y-65651207D01*
X105410703Y-65857385D01*
X105355436Y-66075628D01*
X105355434Y-66075640D01*
X105336844Y-66299994D01*
X105336844Y-66300005D01*
X105355434Y-66524359D01*
X105355436Y-66524371D01*
X105410703Y-66742614D01*
X105501140Y-66948792D01*
X105624276Y-67137265D01*
X105624284Y-67137276D01*
X105776756Y-67302902D01*
X105776761Y-67302907D01*
X105830118Y-67344437D01*
X105954424Y-67441189D01*
X105954425Y-67441189D01*
X105954427Y-67441191D01*
X106017910Y-67475546D01*
X106152426Y-67548342D01*
X106365365Y-67621444D01*
X106587431Y-67658500D01*
X106812569Y-67658500D01*
X107034635Y-67621444D01*
X107247574Y-67548342D01*
X107445576Y-67441189D01*
X107623240Y-67302906D01*
X107775722Y-67137268D01*
X107866193Y-66998790D01*
X107919338Y-66953437D01*
X107988569Y-66944013D01*
X108051905Y-66973515D01*
X108073804Y-66998787D01*
X108164278Y-67137268D01*
X108164283Y-67137273D01*
X108164284Y-67137276D01*
X108316756Y-67302902D01*
X108316761Y-67302907D01*
X108370118Y-67344437D01*
X108494424Y-67441189D01*
X108494429Y-67441191D01*
X108494431Y-67441193D01*
X108530930Y-67460946D01*
X108580520Y-67510165D01*
X108595628Y-67578382D01*
X108571457Y-67643937D01*
X108530930Y-67679054D01*
X108494431Y-67698806D01*
X108494422Y-67698812D01*
X108316761Y-67837092D01*
X108316756Y-67837097D01*
X108164284Y-68002723D01*
X108164276Y-68002734D01*
X108041140Y-68191207D01*
X107950703Y-68397385D01*
X107895436Y-68615628D01*
X107895434Y-68615640D01*
X107876844Y-68839994D01*
X107876844Y-68840005D01*
X107895434Y-69064359D01*
X107895436Y-69064371D01*
X107950703Y-69282614D01*
X108041140Y-69488792D01*
X108151771Y-69658125D01*
X108164278Y-69677268D01*
X108298730Y-69823320D01*
X108329652Y-69885973D01*
X108331500Y-69907302D01*
X108331500Y-69932325D01*
X108311815Y-69999364D01*
X108295181Y-70020006D01*
X107660006Y-70655181D01*
X107598683Y-70688666D01*
X107572325Y-70691500D01*
X105127675Y-70691500D01*
X105060636Y-70671815D01*
X105039994Y-70655181D01*
X103444819Y-69060005D01*
X103411334Y-68998682D01*
X103408500Y-68972324D01*
X103408500Y-63727674D01*
X103428185Y-63660635D01*
X103444814Y-63639998D01*
X106889994Y-60194818D01*
X106951317Y-60161334D01*
X106977675Y-60158500D01*
X109698638Y-60158500D01*
X109698654Y-60158499D01*
X109725692Y-60155591D01*
X109759201Y-60151989D01*
X109759392Y-60151918D01*
X109775231Y-60146010D01*
X109896204Y-60100889D01*
X110013261Y-60013261D01*
X110100889Y-59896204D01*
X110151989Y-59759201D01*
X110157038Y-59712240D01*
X110158499Y-59698654D01*
X110158500Y-59698637D01*
X110158500Y-56101362D01*
X110158499Y-56101345D01*
X110154143Y-56060838D01*
X110151989Y-56040799D01*
X110100889Y-55903796D01*
X110013261Y-55786739D01*
X109896204Y-55699111D01*
X109759203Y-55648011D01*
X109698654Y-55641500D01*
X109698638Y-55641500D01*
X106101362Y-55641500D01*
X106101345Y-55641500D01*
X106040797Y-55648011D01*
X106040795Y-55648011D01*
X105903795Y-55699111D01*
X105786739Y-55786739D01*
X105699111Y-55903795D01*
X105648011Y-56040795D01*
X105648011Y-56040797D01*
X105641500Y-56101345D01*
X105641499Y-56101362D01*
X105641500Y-58822323D01*
X105621815Y-58889362D01*
X105605181Y-58910004D01*
X101915050Y-62600135D01*
X101900259Y-62612769D01*
X101888746Y-62621133D01*
X101841869Y-62673195D01*
X101839639Y-62675545D01*
X101823939Y-62691247D01*
X101823928Y-62691258D01*
X101809948Y-62708521D01*
X101807843Y-62710985D01*
X101760962Y-62763052D01*
X101760957Y-62763059D01*
X101753838Y-62775388D01*
X101742833Y-62791400D01*
X101733873Y-62802466D01*
X101733871Y-62802468D01*
X101702053Y-62864913D01*
X101700505Y-62867765D01*
X101665471Y-62928445D01*
X101661071Y-62941988D01*
X101653630Y-62959951D01*
X101647171Y-62972628D01*
X101647169Y-62972634D01*
X101635876Y-63014777D01*
X101629031Y-63040324D01*
X101628115Y-63043416D01*
X101606457Y-63110074D01*
X101606457Y-63110077D01*
X101604970Y-63124223D01*
X101601427Y-63143344D01*
X101597742Y-63157097D01*
X101594074Y-63227073D01*
X101593820Y-63230304D01*
X101591500Y-63252392D01*
X101591500Y-63274594D01*
X101591415Y-63277839D01*
X101587748Y-63347809D01*
X101589973Y-63361856D01*
X101591500Y-63381256D01*
X101591500Y-69318743D01*
X101589973Y-69338142D01*
X101588537Y-69347211D01*
X101587748Y-69352190D01*
X101591155Y-69417193D01*
X101591415Y-69422158D01*
X101591500Y-69425404D01*
X101591500Y-69447610D01*
X101593303Y-69464776D01*
X101593820Y-69469693D01*
X101594074Y-69472925D01*
X101597742Y-69542901D01*
X101601424Y-69556640D01*
X101604969Y-69575767D01*
X101606457Y-69589927D01*
X101617378Y-69623540D01*
X101628121Y-69656604D01*
X101629028Y-69659663D01*
X101633745Y-69677265D01*
X101647171Y-69727373D01*
X101653631Y-69740051D01*
X101661073Y-69758018D01*
X101665470Y-69771550D01*
X101665471Y-69771553D01*
X101665473Y-69771556D01*
X101700521Y-69832262D01*
X101702055Y-69835087D01*
X101706039Y-69842906D01*
X101733868Y-69897524D01*
X101733873Y-69897533D01*
X101742827Y-69908590D01*
X101753838Y-69924610D01*
X101760960Y-69936944D01*
X101760962Y-69936947D01*
X101807846Y-69989017D01*
X101809946Y-69991476D01*
X101823928Y-70008741D01*
X101823931Y-70008744D01*
X101839625Y-70024438D01*
X101841846Y-70026777D01*
X101888747Y-70078866D01*
X101900257Y-70087228D01*
X101915052Y-70099865D01*
X103539637Y-71724450D01*
X103573122Y-71785773D01*
X103568138Y-71855465D01*
X103539637Y-71899812D01*
X101500801Y-73938649D01*
X101494698Y-73944000D01*
X101466013Y-73966012D01*
X101441522Y-73997929D01*
X101368476Y-74093123D01*
X101368475Y-74093125D01*
X101316949Y-74217523D01*
X101307162Y-74241147D01*
X101301766Y-74282136D01*
X101294882Y-74334430D01*
X101290957Y-74364241D01*
X101290955Y-74364254D01*
X101286250Y-74400000D01*
X101290969Y-74435843D01*
X101291500Y-74443945D01*
X101291500Y-98556054D01*
X101290969Y-98564156D01*
X101286250Y-98599999D01*
X101286250Y-98600002D01*
X100500000Y-98600002D01*
X100500000Y-55336219D01*
X121430299Y-55336219D01*
X121441028Y-55421635D01*
X121441029Y-55421639D01*
X121496985Y-55556728D01*
X121496986Y-55556730D01*
X121549791Y-55624707D01*
X121549803Y-55624720D01*
X122025283Y-56100200D01*
X122025293Y-56100209D01*
X122078229Y-56141329D01*
X122093271Y-56153014D01*
X122228363Y-56208971D01*
X122313781Y-56219700D01*
X122986218Y-56219701D01*
X123071638Y-56208971D01*
X123206730Y-56153014D01*
X123273243Y-56101345D01*
X123274707Y-56100208D01*
X123274710Y-56100205D01*
X123274718Y-56100199D01*
X123750202Y-55624715D01*
X123803014Y-55556729D01*
X123858971Y-55421637D01*
X123869700Y-55336219D01*
X123869701Y-54663782D01*
X123858971Y-54578362D01*
X123803014Y-54443270D01*
X123789048Y-54425292D01*
X123750208Y-54375292D01*
X123750196Y-54375279D01*
X123274716Y-53899799D01*
X123274706Y-53899790D01*
X123206729Y-53846986D01*
X123192893Y-53841255D01*
X123071637Y-53791029D01*
X123033964Y-53786297D01*
X122986222Y-53780300D01*
X122986215Y-53780299D01*
X122313780Y-53780299D01*
X122228364Y-53791028D01*
X122228360Y-53791029D01*
X122093271Y-53846985D01*
X122093269Y-53846986D01*
X122025292Y-53899791D01*
X122025279Y-53899803D01*
X121549799Y-54375283D01*
X121549790Y-54375293D01*
X121496986Y-54443270D01*
X121441029Y-54578363D01*
X121430300Y-54663777D01*
X121430299Y-54663784D01*
X121430299Y-55336219D01*
X100500000Y-55336219D01*
X100500000Y-43624000D01*
X100519685Y-43556961D01*
X100572489Y-43511206D01*
X100624000Y-43500000D01*
X152576000Y-43500000D01*
X152643039Y-43519685D01*
G37*
G04 #@! TD.AperFunction*
M02*
