M48
; DRILL file {KiCad 7.0.6} date Sun Oct 13 07:30:50 2024
; FORMAT={-:-/ absolute / metric / decimal}
; #@! TF.CreationDate,2024-10-13T07:30:50+02:00
; #@! TF.GenerationSoftware,Kicad,Pcbnew,7.0.6
; #@! TF.FileFunction,Plated,1,2,PTH
FMAT,2
METRIC
; #@! TA.AperFunction,Plated,PTH,ComponentDrill
T1C0.750
; #@! TA.AperFunction,Plated,PTH,ComponentDrill
T2C0.800
; #@! TA.AperFunction,Plated,PTH,ComponentDrill
T3C0.900
; #@! TA.AperFunction,Plated,PTH,ComponentDrill
T4C1.000
; #@! TA.AperFunction,Plated,PTH,ComponentDrill
T5C1.100
; #@! TA.AperFunction,Plated,PTH,ComponentDrill
T6C2.300
%
G90
G05
T1
X138.61Y-93.78
X138.61Y-95.05
X138.61Y-96.32
T2
X103.37Y-96.7
X113.53Y-96.7
X117.25Y-67.7
X119.75Y-67.7
X129.12Y-85.0
X137.45Y-73.6
X137.45Y-78.48
X139.28Y-85.0
X139.65Y-45.47
X139.65Y-55.63
X143.4Y-55.3
X143.4Y-57.84
X143.4Y-60.38
X143.4Y-62.92
X143.4Y-65.46
X143.4Y-68.0
X143.4Y-70.54
X143.4Y-73.08
X143.4Y-75.62
X143.4Y-78.16
X143.4Y-80.7
X143.4Y-83.24
X143.4Y-85.78
X143.4Y-88.32
X151.02Y-55.3
X151.02Y-57.84
X151.02Y-60.38
X151.02Y-62.92
X151.02Y-65.46
X151.02Y-68.0
X151.02Y-70.54
X151.02Y-73.08
X151.02Y-75.62
X151.02Y-78.16
X151.02Y-80.7
X151.02Y-83.24
X151.02Y-85.78
X151.02Y-88.32
T3
X122.65Y-52.55
X122.65Y-55.0
X124.75Y-52.55
X127.35Y-52.55
X129.45Y-52.55
X129.45Y-55.05
X146.95Y-93.81
X146.95Y-96.35
X147.0Y-46.8
X147.0Y-49.34
T4
X106.7Y-63.76
X106.7Y-66.3
X106.7Y-68.84
X109.24Y-66.3
X109.24Y-68.84
X123.3Y-91.5
X123.3Y-94.04
X123.3Y-96.58
X123.75Y-61.05
X127.25Y-73.65
X127.25Y-78.5
X127.95Y-91.5
X127.95Y-94.04
X127.95Y-96.58
X128.75Y-61.05
X132.25Y-73.65
X132.25Y-78.5
X133.8Y-61.05
X138.8Y-61.05
T5
X104.95Y-86.7
X104.95Y-91.2
X111.45Y-86.7
X111.45Y-91.2
T6
X119.3Y-49.55
X126.05Y-48.75
X132.85Y-49.55
T4
X103.2Y-53.9G85X103.2Y-55.9
G05
X108.9Y-51.9G85X106.9Y-51.9
G05
X108.9Y-57.9G85X106.9Y-57.9
G05
T0
M30
