%TF.GenerationSoftware,KiCad,Pcbnew,7.0.6*%
%TF.CreationDate,2024-10-13T07:30:52+02:00*%
%TF.ProjectId,KeybJr,4b657962-4a72-42e6-9b69-6361645f7063,rev?*%
%TF.SameCoordinates,Original*%
%TF.FileFunction,Drillmap*%
%TF.FilePolarity,Positive*%
%FSLAX45Y45*%
G04 Gerber Fmt 4.5, Leading zero omitted, Abs format (unit mm)*
G04 Created by KiCad (PCBNEW 7.0.6) date 2024-10-13 07:30:52*
%MOMM*%
%LPD*%
G01*
G04 APERTURE LIST*
%ADD10C,0.200000*%
G04 APERTURE END LIST*
D10*
X10008500Y-4296000D02*
X15325000Y-4296000D01*
X15325000Y-10040000D01*
X10008500Y-10040000D01*
X10008500Y-4296000D01*
X10259277Y-10361484D02*
X10259277Y-10161484D01*
X10259277Y-10161484D02*
X10306896Y-10161484D01*
X10306896Y-10161484D02*
X10335467Y-10171008D01*
X10335467Y-10171008D02*
X10354515Y-10190055D01*
X10354515Y-10190055D02*
X10364039Y-10209103D01*
X10364039Y-10209103D02*
X10373563Y-10247198D01*
X10373563Y-10247198D02*
X10373563Y-10275770D01*
X10373563Y-10275770D02*
X10364039Y-10313865D01*
X10364039Y-10313865D02*
X10354515Y-10332912D01*
X10354515Y-10332912D02*
X10335467Y-10351960D01*
X10335467Y-10351960D02*
X10306896Y-10361484D01*
X10306896Y-10361484D02*
X10259277Y-10361484D01*
X10459277Y-10361484D02*
X10459277Y-10228150D01*
X10459277Y-10266246D02*
X10468801Y-10247198D01*
X10468801Y-10247198D02*
X10478324Y-10237674D01*
X10478324Y-10237674D02*
X10497372Y-10228150D01*
X10497372Y-10228150D02*
X10516420Y-10228150D01*
X10583086Y-10361484D02*
X10583086Y-10228150D01*
X10583086Y-10161484D02*
X10573563Y-10171008D01*
X10573563Y-10171008D02*
X10583086Y-10180531D01*
X10583086Y-10180531D02*
X10592610Y-10171008D01*
X10592610Y-10171008D02*
X10583086Y-10161484D01*
X10583086Y-10161484D02*
X10583086Y-10180531D01*
X10706896Y-10361484D02*
X10687848Y-10351960D01*
X10687848Y-10351960D02*
X10678324Y-10332912D01*
X10678324Y-10332912D02*
X10678324Y-10161484D01*
X10811658Y-10361484D02*
X10792610Y-10351960D01*
X10792610Y-10351960D02*
X10783086Y-10332912D01*
X10783086Y-10332912D02*
X10783086Y-10161484D01*
X11040229Y-10361484D02*
X11040229Y-10161484D01*
X11040229Y-10161484D02*
X11106896Y-10304341D01*
X11106896Y-10304341D02*
X11173563Y-10161484D01*
X11173563Y-10161484D02*
X11173563Y-10361484D01*
X11354515Y-10361484D02*
X11354515Y-10256722D01*
X11354515Y-10256722D02*
X11344991Y-10237674D01*
X11344991Y-10237674D02*
X11325943Y-10228150D01*
X11325943Y-10228150D02*
X11287848Y-10228150D01*
X11287848Y-10228150D02*
X11268801Y-10237674D01*
X11354515Y-10351960D02*
X11335467Y-10361484D01*
X11335467Y-10361484D02*
X11287848Y-10361484D01*
X11287848Y-10361484D02*
X11268801Y-10351960D01*
X11268801Y-10351960D02*
X11259277Y-10332912D01*
X11259277Y-10332912D02*
X11259277Y-10313865D01*
X11259277Y-10313865D02*
X11268801Y-10294817D01*
X11268801Y-10294817D02*
X11287848Y-10285293D01*
X11287848Y-10285293D02*
X11335467Y-10285293D01*
X11335467Y-10285293D02*
X11354515Y-10275770D01*
X11449753Y-10228150D02*
X11449753Y-10428150D01*
X11449753Y-10237674D02*
X11468801Y-10228150D01*
X11468801Y-10228150D02*
X11506896Y-10228150D01*
X11506896Y-10228150D02*
X11525943Y-10237674D01*
X11525943Y-10237674D02*
X11535467Y-10247198D01*
X11535467Y-10247198D02*
X11544991Y-10266246D01*
X11544991Y-10266246D02*
X11544991Y-10323389D01*
X11544991Y-10323389D02*
X11535467Y-10342436D01*
X11535467Y-10342436D02*
X11525943Y-10351960D01*
X11525943Y-10351960D02*
X11506896Y-10361484D01*
X11506896Y-10361484D02*
X11468801Y-10361484D01*
X11468801Y-10361484D02*
X11449753Y-10351960D01*
X11630705Y-10342436D02*
X11640229Y-10351960D01*
X11640229Y-10351960D02*
X11630705Y-10361484D01*
X11630705Y-10361484D02*
X11621182Y-10351960D01*
X11621182Y-10351960D02*
X11630705Y-10342436D01*
X11630705Y-10342436D02*
X11630705Y-10361484D01*
X11630705Y-10237674D02*
X11640229Y-10247198D01*
X11640229Y-10247198D02*
X11630705Y-10256722D01*
X11630705Y-10256722D02*
X11621182Y-10247198D01*
X11621182Y-10247198D02*
X11630705Y-10237674D01*
X11630705Y-10237674D02*
X11630705Y-10256722D01*
M02*
