G04 #@! TF.GenerationSoftware,KiCad,Pcbnew,7.0.6*
G04 #@! TF.CreationDate,2024-10-13T07:30:47+02:00*
G04 #@! TF.ProjectId,KeybJr,4b657962-4a72-42e6-9b69-6361645f7063,rev?*
G04 #@! TF.SameCoordinates,Original*
G04 #@! TF.FileFunction,Soldermask,Top*
G04 #@! TF.FilePolarity,Negative*
%FSLAX46Y46*%
G04 Gerber Fmt 4.6, Leading zero omitted, Abs format (unit mm)*
G04 Created by KiCad (PCBNEW 7.0.6) date 2024-10-13 07:30:47*
%MOMM*%
%LPD*%
G01*
G04 APERTURE LIST*
G04 Aperture macros list*
%AMRoundRect*
0 Rectangle with rounded corners*
0 $1 Rounding radius*
0 $2 $3 $4 $5 $6 $7 $8 $9 X,Y pos of 4 corners*
0 Add a 4 corners polygon primitive as box body*
4,1,4,$2,$3,$4,$5,$6,$7,$8,$9,$2,$3,0*
0 Add four circle primitives for the rounded corners*
1,1,$1+$1,$2,$3*
1,1,$1+$1,$4,$5*
1,1,$1+$1,$6,$7*
1,1,$1+$1,$8,$9*
0 Add four rect primitives between the rounded corners*
20,1,$1+$1,$2,$3,$4,$5,0*
20,1,$1+$1,$4,$5,$6,$7,0*
20,1,$1+$1,$6,$7,$8,$9,0*
20,1,$1+$1,$8,$9,$2,$3,0*%
%AMFreePoly0*
4,1,17,0.330510,0.747121,0.747121,0.330510,0.762000,0.294589,0.762000,-0.294589,0.747121,-0.330510,0.330510,-0.747121,0.294589,-0.762000,-0.294589,-0.762000,-0.330510,-0.747121,-0.747121,-0.330510,-0.762000,-0.294589,-0.762000,0.294589,-0.747121,0.330510,-0.330510,0.747121,-0.294589,0.762000,0.294589,0.762000,0.330510,0.747121,0.330510,0.747121,$1*%
G04 Aperture macros list end*
%ADD10R,1.600000X1.600000*%
%ADD11O,1.600000X1.600000*%
%ADD12C,1.500000*%
%ADD13R,1.700000X1.700000*%
%ADD14O,1.700000X1.700000*%
%ADD15C,1.600000*%
%ADD16R,3.500000X3.500000*%
%ADD17RoundRect,0.750000X-1.000000X0.750000X-1.000000X-0.750000X1.000000X-0.750000X1.000000X0.750000X0*%
%ADD18RoundRect,0.875000X-0.875000X0.875000X-0.875000X-0.875000X0.875000X-0.875000X0.875000X0.875000X0*%
%ADD19C,2.000000*%
%ADD20R,1.500000X1.050000*%
%ADD21O,1.500000X1.050000*%
%ADD22R,1.800000X1.800000*%
%ADD23C,1.800000*%
%ADD24FreePoly0,0.000000*%
%ADD25C,3.601600*%
G04 APERTURE END LIST*
D10*
X143400000Y-55300000D03*
D11*
X143400000Y-57840000D03*
X143400000Y-60380000D03*
X143400000Y-62920000D03*
X143400000Y-65460000D03*
X143400000Y-68000000D03*
X143400000Y-70540000D03*
X143400000Y-73080000D03*
X143400000Y-75620000D03*
X143400000Y-78160000D03*
X143400000Y-80700000D03*
X143400000Y-83240000D03*
X143400000Y-85780000D03*
X143400000Y-88320000D03*
X151020000Y-88320000D03*
X151020000Y-85780000D03*
X151020000Y-83240000D03*
X151020000Y-80700000D03*
X151020000Y-78160000D03*
X151020000Y-75620000D03*
X151020000Y-73080000D03*
X151020000Y-70540000D03*
X151020000Y-68000000D03*
X151020000Y-65460000D03*
X151020000Y-62920000D03*
X151020000Y-60380000D03*
X151020000Y-57840000D03*
X151020000Y-55300000D03*
D12*
X137450000Y-78480000D03*
X137450000Y-73600000D03*
D13*
X123300000Y-91500000D03*
D14*
X123300000Y-94040000D03*
X123300000Y-96580000D03*
D10*
X119750000Y-67700000D03*
D15*
X117250000Y-67700000D03*
D16*
X107900000Y-57900000D03*
D17*
X107900000Y-51900000D03*
D18*
X103200000Y-54900000D03*
D19*
X127250000Y-73650000D03*
X132250000Y-73650000D03*
D20*
X138610000Y-96320000D03*
D21*
X138610000Y-95050000D03*
X138610000Y-93780000D03*
D13*
X127950000Y-91500000D03*
D14*
X127950000Y-94040000D03*
X127950000Y-96580000D03*
D15*
X139280000Y-85000000D03*
D11*
X129120000Y-85000000D03*
D22*
X146950000Y-96350000D03*
D23*
X146950000Y-93810000D03*
D19*
X127250000Y-78500000D03*
X132250000Y-78500000D03*
D14*
X109240000Y-66300000D03*
X109240000Y-68840000D03*
X106700000Y-63760000D03*
X106700000Y-66300000D03*
X106700000Y-68840000D03*
D15*
X103370000Y-96700000D03*
D11*
X113530000Y-96700000D03*
D24*
X124750000Y-52550000D03*
X127350000Y-52550000D03*
X122650000Y-52550000D03*
X129450000Y-52550000D03*
X122650000Y-55000000D03*
X129450000Y-55050000D03*
D25*
X132850000Y-49550000D03*
X126050000Y-48750000D03*
X119300000Y-49550000D03*
D15*
X139650000Y-45470000D03*
D11*
X139650000Y-55630000D03*
D19*
X123750000Y-61050000D03*
X128750000Y-61050000D03*
D22*
X147000000Y-49340000D03*
D23*
X147000000Y-46800000D03*
D19*
X104950000Y-86700000D03*
X111450000Y-86700000D03*
X104950000Y-91200000D03*
X111450000Y-91200000D03*
X138800000Y-61050000D03*
X133800000Y-61050000D03*
M02*
